# Blender 4.4.1
# www.blender.org
mtllib Enemy.mtl
o 円錐.001
v 0.229618 -0.098802 -0.043083
v 0.000000 -0.294956 0.373265
v -0.229618 -0.098802 -0.044350
v -0.000000 0.329929 -0.266100
v -0.506717 -0.001262 -0.368966
v -0.365515 -0.192547 -0.083140
v 0.493285 0.007726 -0.335005
v 0.365515 -0.192547 -0.083140
v 0.000000 -0.487322 -0.054854
v -0.060073 -0.277155 -0.218688
v 0.060073 -0.277155 -0.218688
vn 0.5488 0.5979 0.5843
vn -0.5510 0.5968 0.5833
vn -0.5534 0.5396 0.6345
vn 0.5701 0.5761 0.5858
vn -0.9741 -0.2062 0.0927
vn -0.2677 -0.9635 -0.0018
vn 0.9741 -0.2062 0.0927
vn 0.2677 -0.9635 -0.0018
vn -0.5671 0.5803 0.5844
vn 0.5438 0.5004 0.6737
vt 0.490000 0.250000
vt 0.250000 0.250000
vt 0.250000 0.010000
vt 0.010000 0.250000
vt 0.000000 0.000000
s 0
usemtl マテリアル
f 1/1/1 4/2/1 2/3/1
f 2/3/2 4/2/2 3/4/2
f 6/5/3 3/4/3 5/5/3
f 8/5/4 1/1/4 2/3/4
f 9/5/5 2/5/5 10/5/5
f 6/5/6 10/5/6 2/5/6
f 11/5/7 2/5/7 9/5/7
f 8/5/8 2/5/8 11/5/8
f 6/5/9 2/3/9 3/4/9
f 8/5/10 7/5/10 1/1/10
o 立方体
v -0.118164 -0.140653 -0.077343
v 0.000000 -0.310510 -0.077343
v -0.000000 0.029205 -0.077343
v 0.118164 -0.140653 -0.077343
v 0.000000 -0.140653 0.044399
v -0.000000 -0.140404 -0.199085
vn -0.6420 -0.4466 0.6232
vn -0.6424 0.4469 -0.6226
vn 0.6420 0.4466 0.6232
vn 0.6417 -0.4464 -0.6237
vn -0.6420 0.4466 0.6232
vn 0.6420 -0.4466 0.6232
vn 0.6424 0.4469 -0.6226
vn -0.6417 -0.4464 -0.6237
vt 0.375000 0.000000
vt 0.625000 0.000000
vt 0.500000 0.125000
vt 0.375000 0.500000
vt 0.498329 0.624817
vt 0.375000 0.750000
vt 0.375000 0.250000
vt 0.625000 0.250000
vt 0.622019 0.750000
vt 0.625000 0.500000
vt 0.624269 0.500000
s 0
usemtl マテリアル
f 12/6/11 13/7/11 16/8/11
f 14/9/12 17/10/12 12/11/12
f 14/12/13 16/8/13 15/13/13
f 13/14/14 17/10/14 15/15/14
f 16/8/15 14/12/15 12/6/15
f 15/13/16 16/8/16 13/7/16
f 15/16/17 17/10/17 14/9/17
f 12/11/18 17/10/18 13/14/18
