# Blender 4.4.1
# www.blender.org
mtllib Boss.mtl
o 円錐
v 0.000000 0.164113 0.164113
v 0.164113 0.164113 0.000000
v 0.000000 0.164113 -0.164113
v -0.164113 0.164113 0.000000
v 0.000000 -0.164113 -0.000000
v -0.082057 0.246170 0.082057
v -0.082057 0.410282 0.082057
v -0.082057 0.246170 -0.082057
v -0.082057 0.410282 -0.082057
v 0.082057 0.246170 0.082057
v 0.082057 0.410282 0.082057
v 0.082057 0.246170 -0.082057
v 0.082057 0.410282 -0.082057
v -0.100038 0.228188 -0.000000
v -0.100038 0.328226 0.100038
v -0.100038 0.428264 0.000000
v -0.100038 0.328226 -0.100038
v 0.000000 0.228188 -0.100038
v -0.000000 0.428264 -0.100038
v 0.100038 0.328226 -0.100038
v 0.100038 0.228188 0.000000
v 0.100038 0.428264 0.000000
v 0.100038 0.328226 0.100038
v -0.000000 0.228188 0.100038
v -0.000000 0.428264 0.100038
v -0.137774 0.328226 0.000000
v 0.000000 0.328226 -0.137774
v 0.137774 0.328226 0.000000
v -0.000000 0.328226 0.137774
v 0.000000 0.190452 0.000000
v -0.000000 0.466000 0.000000
v -0.421225 0.120539 -0.106493
v -0.342451 0.199314 -0.106493
v -0.421225 0.278088 -0.106493
v -0.500000 0.199314 -0.106493
v -0.421225 0.199314 -0.316558
v 0.421225 0.120539 -0.106493
v 0.342451 0.199314 -0.106493
v 0.421225 0.278088 -0.106493
v 0.500000 0.199314 -0.106493
v 0.421225 0.199314 -0.316558
v 0.265808 0.377831 -0.184637
v 0.187033 0.456605 -0.184637
v 0.265808 0.535379 -0.184637
v 0.344582 0.456605 -0.184637
v 0.265808 0.456605 -0.394702
v -0.265808 0.377831 -0.184637
v -0.187033 0.456605 -0.184637
v -0.265808 0.535379 -0.184637
v -0.344582 0.456605 -0.184637
v -0.265808 0.456605 -0.394702
vn 0.6667 -0.3333 0.6667
vn 0.6667 -0.3333 -0.6667
vn -0.0000 1.0000 -0.0000
vn -0.6667 -0.3333 -0.6667
vn -0.6667 -0.3333 0.6667
vn -0.9004 -0.3397 0.2717
vn -0.9004 0.2717 0.3397
vn -0.9004 0.2717 -0.3397
vn -0.9004 -0.3397 -0.2717
vn -0.2717 -0.3397 -0.9004
vn -0.3397 0.2717 -0.9004
vn 0.3397 0.2717 -0.9004
vn 0.2717 -0.3397 -0.9004
vn 0.9004 -0.3397 -0.2717
vn 0.9004 0.2717 -0.3397
vn 0.9004 0.2717 0.3397
vn 0.9004 -0.3397 0.2717
vn 0.2717 -0.3397 0.9004
vn 0.3397 0.2717 0.9004
vn -0.3397 0.2717 0.9004
vn -0.2717 -0.3397 0.9004
vn -0.3397 -0.9004 -0.2717
vn 0.2717 -0.9004 -0.3397
vn 0.2717 -0.9004 0.3397
vn -0.3397 -0.9004 0.2717
vn 0.3397 0.9004 -0.2717
vn -0.2717 0.9004 -0.3397
vn -0.2717 0.9004 0.3397
vn 0.3397 0.9004 0.2717
vn 0.6835 -0.6835 -0.2563
vn 0.6835 0.6835 -0.2563
vn -0.0000 -0.0000 1.0000
vn -0.6835 0.6835 -0.2563
vn -0.6835 -0.6835 -0.2563
vn 0.6835 0.6835 0.2563
vn 0.6835 -0.6835 0.2563
vn -0.0000 -0.0000 -1.0000
vn -0.6835 -0.6835 0.2563
vn -0.6835 0.6835 0.2563
vn -0.9004 -0.2717 0.3397
vn -0.9004 0.3397 0.2717
vn -0.9004 0.3397 -0.2717
vn -0.9004 -0.2717 -0.3397
vn -0.3397 -0.2717 -0.9004
vn -0.2717 0.3397 -0.9004
vn 0.2717 0.3397 -0.9004
vn 0.3397 -0.2717 -0.9004
vn 0.9004 -0.2717 -0.3397
vn 0.9004 0.3397 -0.2717
vn 0.9004 0.3397 0.2717
vn 0.9004 -0.2717 0.3397
vn 0.3397 -0.2717 0.9004
vn 0.2717 0.3397 0.9004
vn -0.2717 0.3397 0.9004
vn -0.3397 -0.2717 0.9004
vn -0.2717 -0.9004 -0.3397
vn 0.3397 -0.9004 -0.2717
vn 0.3397 -0.9004 0.2717
vn -0.2717 -0.9004 0.3397
vn 0.2717 0.9004 -0.3397
vn -0.3397 0.9004 -0.2717
vn -0.3397 0.9004 0.2717
vn 0.2717 0.9004 0.3397
vt 0.636570 0.099968
vt 0.736538 0.199935
vt 0.636570 0.299903
vt 0.836506 0.299903
vt 0.817121 0.375840
vt 0.932554 0.491273
vt 0.932554 0.375840
vt 0.836506 0.099967
vt 0.283682 0.154305
vt 0.378658 0.249281
vt 0.283682 0.249281
vt 0.473634 0.154305
vt 0.378658 0.154305
vt 0.473634 0.344257
vt 0.378658 0.344257
vt 0.283682 0.344257
vt 0.378658 0.439233
vt 0.283682 0.439233
vt 0.473634 0.534209
vt 0.378658 0.534209
vt 0.283682 0.534209
vt 0.378658 0.629184
vt 0.283682 0.629184
vt 0.473634 0.724160
vt 0.378658 0.724160
vt 0.283682 0.724160
vt 0.378658 0.819137
vt 0.283682 0.819137
vt 0.473634 0.914113
vt 0.378658 0.914113
vt 0.283682 0.914113
vt 0.093730 0.534209
vt 0.188706 0.629184
vt 0.093730 0.629185
vt 0.188706 0.534209
vt 0.188706 0.724161
vt 0.093730 0.724161
vt 0.568610 0.629184
vt 0.473634 0.629184
vt 0.663586 0.534209
vt 0.568610 0.534209
vt 0.663586 0.724161
vt 0.568610 0.724161
vt 0.932228 0.783335
vt 0.863826 0.714933
vt 0.932228 0.646531
vt 0.795424 0.646531
vt 0.700664 0.911474
vt 0.769924 0.842214
vt 0.700664 0.842214
vt 0.795424 0.783335
vt 0.932292 0.783331
vt 0.863889 0.714929
vt 0.932292 0.646527
vt 0.795487 0.646527
vt 0.700552 0.842101
vt 0.769812 0.911360
vt 0.769812 0.842101
vt 0.795487 0.783331
vt 0.932312 0.783374
vt 0.863910 0.714972
vt 0.932312 0.646569
vt 0.795508 0.646569
vt 0.769812 0.841965
vt 0.700552 0.911224
vt 0.769812 0.911224
vt 0.795508 0.783374
vt 0.932245 0.783303
vt 0.863842 0.714901
vt 0.932245 0.646499
vt 0.795440 0.646499
vt 0.769694 0.842028
vt 0.700434 0.911288
vt 0.769694 0.911288
vt 0.795440 0.783303
vt 0.817121 0.491273
vt 0.473634 0.249281
vt 0.473634 0.439233
vt 0.473634 0.819137
vt 0.663586 0.629185
vt 0.769924 0.911474
vt 0.700552 0.911360
vt 0.700552 0.841965
vt 0.700434 0.842028
s 0
usemtl マテリアル.001
f 1/1/1 5/2/1 2/3/1
f 2/3/2 5/2/2 3/4/2
f 2/5/3 4/6/3 1/7/3
f 3/4/4 5/2/4 4/8/4
f 4/8/5 5/2/5 1/1/5
f 6/9/6 26/10/6 14/11/6
f 7/12/7 26/10/7 15/13/7
f 26/10/8 9/14/8 17/15/8
f 26/10/9 8/16/9 14/11/9
f 8/16/10 27/17/10 18/18/10
f 9/14/11 27/17/11 17/15/11
f 27/17/12 13/19/12 20/20/12
f 27/17/13 12/21/13 18/18/13
f 12/21/14 28/22/14 21/23/14
f 13/19/15 28/22/15 20/20/15
f 28/22/16 11/24/16 23/25/16
f 28/22/17 10/26/17 21/23/17
f 10/26/18 29/27/18 24/28/18
f 11/24/19 29/27/19 23/25/19
f 29/27/20 7/29/20 15/30/20
f 29/27/21 6/31/21 24/28/21
f 8/32/22 30/33/22 14/34/22
f 12/21/23 30/33/23 18/35/23
f 30/33/24 10/26/24 24/36/24
f 30/33/25 6/37/25 14/34/25
f 13/19/26 31/38/26 22/39/26
f 9/40/27 31/38/27 19/41/27
f 31/38/28 7/42/28 25/43/28
f 31/38/29 11/24/29 22/39/29
f 32/44/30 36/45/30 33/46/30
f 33/46/31 36/45/31 34/47/31
f 33/48/32 35/49/32 32/50/32
f 34/47/33 36/45/33 35/51/33
f 35/51/34 36/45/34 32/44/34
f 37/52/35 41/53/35 38/54/35
f 38/54/36 41/53/36 39/55/36
f 38/56/37 40/57/37 37/58/37
f 39/55/38 41/53/38 40/59/38
f 40/59/39 41/53/39 37/52/39
f 42/60/35 46/61/35 43/62/35
f 43/62/36 46/61/36 44/63/36
f 43/64/37 45/65/37 42/66/37
f 44/63/38 46/61/38 45/67/38
f 45/67/39 46/61/39 42/60/39
f 47/68/30 51/69/30 48/70/30
f 48/70/31 51/69/31 49/71/31
f 48/72/32 50/73/32 47/74/32
f 49/71/33 51/69/33 50/75/33
f 50/75/34 51/69/34 47/68/34
f 2/5/3 3/76/3 4/6/3
f 6/9/40 15/13/40 26/10/40
f 7/12/41 16/77/41 26/10/41
f 26/10/42 16/77/42 9/14/42
f 26/10/43 17/15/43 8/16/43
f 8/16/44 17/15/44 27/17/44
f 9/14/45 19/78/45 27/17/45
f 27/17/46 19/78/46 13/19/46
f 27/17/47 20/20/47 12/21/47
f 12/21/48 20/20/48 28/22/48
f 13/19/49 22/39/49 28/22/49
f 28/22/50 22/39/50 11/24/50
f 28/22/51 23/25/51 10/26/51
f 10/26/52 23/25/52 29/27/52
f 11/24/53 25/79/53 29/27/53
f 29/27/54 25/79/54 7/29/54
f 29/27/55 15/30/55 6/31/55
f 8/32/56 18/35/56 30/33/56
f 12/21/57 21/23/57 30/33/57
f 30/33/58 21/23/58 10/26/58
f 30/33/59 24/36/59 6/37/59
f 13/19/60 19/41/60 31/38/60
f 9/40/61 16/80/61 31/38/61
f 31/38/62 16/80/62 7/42/62
f 31/38/63 25/43/63 11/24/63
f 33/48/32 34/81/32 35/49/32
f 38/56/37 39/82/37 40/57/37
f 43/64/37 44/83/37 45/65/37
f 48/72/32 49/84/32 50/73/32
