# Blender 4.4.1
# www.blender.org
mtllib Bullet.mtl
o 円柱
v 0.000000 -0.166667 -0.166667
v 0.000000 0.166667 -0.166667
v 0.166667 -0.166667 0.000000
v 0.166667 0.166667 0.000000
v 0.000000 -0.166667 0.166667
v 0.000000 0.166667 0.166667
v -0.166667 -0.166667 0.000000
v -0.166667 0.166667 0.000000
v 0.000000 0.166667 -0.333334
v 0.333334 0.166667 0.000000
v 0.000000 0.166667 0.333334
v -0.333334 0.166667 0.000000
v 0.000000 0.500001 0.000000
v 0.000000 -0.166667 0.333334
v 0.333334 -0.166667 0.000000
v 0.000000 -0.166667 -0.333334
v -0.333334 -0.166667 0.000000
v 0.000000 -0.500001 -0.000000
vn 0.7071 -0.0000 -0.7071
vn 0.7071 -0.0000 0.7071
vn -0.7071 -0.0000 0.7071
vn -0.7071 -0.0000 -0.7071
vn 0.5774 0.5774 -0.5774
vn 0.5774 0.5774 0.5774
vn -0.0000 -1.0000 -0.0000
vn -0.5774 0.5774 0.5774
vn -0.5774 0.5774 -0.5774
vn 0.5774 -0.5774 0.5774
vn 0.5774 -0.5774 -0.5774
vn -0.0000 1.0000 -0.0000
vn -0.5774 -0.5774 -0.5774
vn -0.5774 -0.5774 0.5774
vt 0.032162 0.500000
vt 0.365773 0.264101
vt 0.365773 0.500000
vt 0.032162 0.264101
vt 0.365773 0.028203
vt 0.032162 0.971797
vt 0.365773 0.735898
vt 0.365773 0.971797
vt 0.032162 0.735899
vt 0.464832 0.248421
vt 0.381430 0.081616
vt 0.548235 0.165019
vt 0.715040 0.081616
vt 0.631638 0.248421
vt 0.548235 0.331824
vt 0.715041 0.415227
vt 0.381430 0.415227
vt 0.464832 0.632946
vt 0.381430 0.466140
vt 0.548235 0.549543
vt 0.715041 0.466140
vt 0.631638 0.632946
vt 0.548235 0.716349
vt 0.715041 0.799751
vt 0.381430 0.799751
vt 0.032162 0.028203
s 0
usemtl マテリアル
f 2/1/1 3/2/1 1/3/1
f 4/4/2 5/5/2 3/2/2
f 6/6/3 7/7/3 5/8/3
f 8/9/4 1/3/4 7/7/4
f 9/10/5 13/11/5 10/12/5
f 10/12/6 13/13/6 11/14/6
f 10/12/7 12/15/7 9/10/7
f 11/14/8 13/16/8 12/15/8
f 12/15/9 13/17/9 9/10/9
f 14/18/10 18/19/10 15/20/10
f 15/20/11 18/21/11 16/22/11
f 14/18/12 16/22/12 17/23/12
f 16/22/13 18/24/13 17/23/13
f 17/23/14 18/25/14 14/18/14
f 2/1/1 4/4/1 3/2/1
f 4/4/2 6/26/2 5/5/2
f 6/6/3 8/9/3 7/7/3
f 8/9/4 2/1/4 1/3/4
f 10/12/7 11/14/7 12/15/7
f 14/18/12 15/20/12 16/22/12
