# Blender 4.4.1
# www.blender.org
mtllib EnemySpawner.mtl
o 円柱
v -0.433013 -0.500000 -0.250000
v -0.433013 0.500000 -0.250000
v 0.000000 -0.500000 -0.500000
v 0.000000 0.500000 -0.500000
v 0.433013 -0.500000 -0.250000
v 0.433013 0.500000 -0.250000
v 0.433013 -0.500000 0.250000
v 0.433013 0.500000 0.250000
v 0.000000 -0.500000 0.500000
v 0.000000 0.500000 0.500000
v -0.433013 -0.500000 0.250000
v -0.433013 0.500000 0.250000
vn -0.5000 -0.0000 -0.8660
vn 0.5000 -0.0000 -0.8660
vn 1.0000 -0.0000 -0.0000
vn 0.5000 -0.0000 0.8660
vn -0.0000 1.0000 -0.0000
vn -0.5000 -0.0000 0.8660
vn -1.0000 -0.0000 -0.0000
vn -0.0000 -1.0000 -0.0000
vt 0.333373 0.333373
vt 0.000120 0.500000
vt 0.000120 0.333373
vt 0.333373 0.500000
vt 0.000120 0.666627
vt 0.333373 0.666627
vt 0.000120 0.833254
vt 0.333373 0.833254
vt 0.000120 0.999880
vt 0.333613 0.250060
vt 0.477916 0.000120
vt 0.622219 0.250060
vt 0.333373 0.000120
vt 0.000120 0.166747
vt 0.000120 0.000120
vt 0.333373 0.166746
vt 0.477916 0.333613
vt 0.622219 0.583553
vt 0.333613 0.583553
vt 0.333373 0.999880
vt 0.477916 0.333373
vt 0.333613 0.083433
vt 0.622219 0.083433
vt 0.333613 0.416926
vt 0.622219 0.416926
vt 0.477916 0.666866
s 0
usemtl マテリアル
f 2/1/1 3/2/1 1/3/1
f 4/4/2 5/5/2 3/2/2
f 6/6/3 7/7/3 5/5/3
f 8/8/4 9/9/4 7/7/4
f 2/10/5 10/11/5 6/12/5
f 10/13/6 11/14/6 9/15/6
f 12/16/7 1/3/7 11/14/7
f 3/17/8 7/18/8 11/19/8
f 2/1/1 4/4/1 3/2/1
f 4/4/2 6/6/2 5/5/2
f 6/6/3 8/8/3 7/7/3
f 8/8/4 10/20/4 9/9/4
f 6/12/5 4/21/5 2/10/5
f 2/10/5 12/22/5 10/11/5
f 10/11/5 8/23/5 6/12/5
f 10/13/6 12/16/6 11/14/6
f 12/16/7 2/1/7 1/3/7
f 11/19/8 1/24/8 3/17/8
f 3/17/8 5/25/8 7/18/8
f 7/18/8 9/26/8 11/19/8
