{
	"asset":{
		"generator":"Khronos glTF Blender I/O v4.5.48",
		"version":"2.0"
	},
	"scene":0,
	"scenes":[
		{
			"name":"Scene",
			"nodes":[
				0
			]
		}
	],
	"nodes":[
		{
			"mesh":0,
			"name":"\u7acb\u65b9\u4f53.001"
		}
	],
	"animations":[
		{
			"channels":[
				{
					"sampler":0,
					"target":{
						"node":0,
						"path":"translation"
					}
				},
				{
					"sampler":1,
					"target":{
						"node":0,
						"path":"rotation"
					}
				},
				{
					"sampler":2,
					"target":{
						"node":0,
						"path":"scale"
					}
				}
			],
			"name":"\u7acb\u65b9\u4f53.001\u30a2\u30af\u30b7\u30e7\u30f3",
			"samplers":[
				{
					"input":4,
					"interpolation":"STEP",
					"output":5
				},
				{
					"input":6,
					"interpolation":"LINEAR",
					"output":7
				},
				{
					"input":4,
					"interpolation":"STEP",
					"output":8
				}
			]
		}
	],
	"materials":[
		{
			"doubleSided":true,
			"name":"\u30de\u30c6\u30ea\u30a2\u30eb.002",
			"pbrMetallicRoughness":{
				"baseColorTexture":{
					"index":0
				},
				"metallicFactor":0,
				"roughnessFactor":0.5
			}
		}
	],
	"meshes":[
		{
			"name":"\u7acb\u65b9\u4f53.009",
			"primitives":[
				{
					"attributes":{
						"POSITION":0,
						"NORMAL":1,
						"TEXCOORD_0":2
					},
					"indices":3,
					"material":0
				}
			]
		}
	],
	"textures":[
		{
			"sampler":0,
			"source":0
		}
	],
	"images":[
		{
			"mimeType":"image/png",
			"name":"BadgeUvTexture",
			"uri":"BadgeUvTexture.png"
		}
	],
	"accessors":[
		{
			"bufferView":0,
			"componentType":5126,
			"count":1536,
			"max":[
				0.4189482629299164,
				0.4189482033252716,
				0.041566912084817886
			],
			"min":[
				-0.4136699140071869,
				-0.4347834885120392,
				-0.041566912084817886
			],
			"type":"VEC3"
		},
		{
			"bufferView":1,
			"componentType":5126,
			"count":1536,
			"type":"VEC3"
		},
		{
			"bufferView":2,
			"componentType":5126,
			"count":1536,
			"type":"VEC2"
		},
		{
			"bufferView":3,
			"componentType":5123,
			"count":1716,
			"type":"SCALAR"
		},
		{
			"bufferView":4,
			"componentType":5126,
			"count":2,
			"max":[
				3.3333333333333335
			],
			"min":[
				0.041666666666666664
			],
			"type":"SCALAR"
		},
		{
			"bufferView":5,
			"componentType":5126,
			"count":2,
			"type":"VEC3"
		},
		{
			"bufferView":6,
			"componentType":5126,
			"count":80,
			"max":[
				3.3333333333333335
			],
			"min":[
				0.041666666666666664
			],
			"type":"SCALAR"
		},
		{
			"bufferView":7,
			"componentType":5126,
			"count":80,
			"type":"VEC4"
		},
		{
			"bufferView":8,
			"componentType":5126,
			"count":2,
			"type":"VEC3"
		}
	],
	"bufferViews":[
		{
			"buffer":0,
			"byteLength":18432,
			"byteOffset":0,
			"target":34962
		},
		{
			"buffer":0,
			"byteLength":18432,
			"byteOffset":18432,
			"target":34962
		},
		{
			"buffer":0,
			"byteLength":12288,
			"byteOffset":36864,
			"target":34962
		},
		{
			"buffer":0,
			"byteLength":3432,
			"byteOffset":49152,
			"target":34963
		},
		{
			"buffer":0,
			"byteLength":8,
			"byteOffset":52584
		},
		{
			"buffer":0,
			"byteLength":24,
			"byteOffset":52592
		},
		{
			"buffer":0,
			"byteLength":320,
			"byteOffset":52616
		},
		{
			"buffer":0,
			"byteLength":1280,
			"byteOffset":52936
		},
		{
			"buffer":0,
			"byteLength":24,
			"byteOffset":54216
		}
	],
	"samplers":[
		{
			"magFilter":9729,
			"minFilter":9987
		}
	],
	"buffers":[
		{
			"byteLength":54240,
			"uri":"badge.bin"
		}
	]
}
