{
	"asset":{
		"generator":"Khronos glTF Blender I/O v5.1.20",
		"version":"2.0"
	},
	"scene":0,
	"scenes":[
		{
			"name":"Scene",
			"nodes":[
				34
			]
		}
	],
	"nodes":[
		{
			"name":"mixamorig:HeadTop_End",
			"translation":[
				0,
				0.42223551869392395,
				-0.01884310506284237
			]
		},
		{
			"children":[
				0
			],
			"name":"mixamorig:Head",
			"rotation":[
				-4.26928465913079e-08,
				0,
				0,
				1
			],
			"translation":[
				0,
				0.03454137220978737,
				-0.0015414832159876823
			]
		},
		{
			"children":[
				1
			],
			"name":"mixamorig:Neck",
			"rotation":[
				0.07961105555295944,
				0,
				0,
				0.9968259930610657
			],
			"translation":[
				0,
				0.1035303995013237,
				0
			]
		},
		{
			"name":"mixamorig:LeftHandIndex4",
			"rotation":[
				-8.42846930027008e-08,
				2.7939677238464355e-09,
				-3.725290298461914e-09,
				1
			],
			"translation":[
				-0.002466438338160515,
				0.011767663061618805,
				-0.017882749438285828
			]
		},
		{
			"children":[
				3
			],
			"name":"mixamorig:LeftHandIndex3",
			"rotation":[
				2.123415470123291e-07,
				1.4435499906539917e-08,
				-8.409842848777771e-07,
				1
			],
			"translation":[
				0.0018167644739151,
				0.027587756514549255,
				-0.02797187864780426
			]
		},
		{
			"children":[
				4
			],
			"name":"mixamorig:LeftHandIndex2",
			"rotation":[
				-2.654269337654114e-07,
				2.528540790081024e-07,
				2.0954756507762795e-07,
				1
			],
			"scale":[
				1,
				1.0000001192092896,
				0.9999999403953552
			],
			"translation":[
				-3.166496753692627e-08,
				0.037533238530159,
				-1.4901161193847656e-08
			]
		},
		{
			"children":[
				5
			],
			"name":"mixamorig:LeftHandIndex1",
			"rotation":[
				0.13388299942016602,
				0.8142561912536621,
				-0.20750530064105988,
				0.5253605842590332
			],
			"scale":[
				0.9999999403953552,
				1.0000001192092896,
				1.0000001192092896
			],
			"translation":[
				6.984919309616089e-10,
				0.05413290113210678,
				1.2293457984924316e-07
			]
		},
		{
			"children":[
				6
			],
			"name":"mixamorig:LeftHand",
			"rotation":[
				0.06699202209711075,
				-0.0006389367044903338,
				-0.009514659643173218,
				0.9977079629898071
			],
			"scale":[
				1,
				0.9999999403953552,
				0.9999998807907104
			],
			"translation":[
				2.3283064365386963e-09,
				0.18323960900306702,
				-4.0978193283081055e-08
			]
		},
		{
			"children":[
				7
			],
			"name":"mixamorig:LeftForeArm",
			"rotation":[
				-0.04721781983971596,
				-0.0022117181215435266,
				0.046737562865018845,
				0.9977881908416748
			],
			"scale":[
				1,
				1,
				0.9999999403953552
			],
			"translation":[
				4.656612873077393e-10,
				0.1960977166891098,
				-1.6763806343078613e-07
			]
		},
		{
			"children":[
				8
			],
			"name":"mixamorig:LeftArm",
			"rotation":[
				-0.1429690718650818,
				-0.002050492912530899,
				0.014193524606525898,
				0.9896232485771179
			],
			"scale":[
				1,
				0.9999999403953552,
				1
			],
			"translation":[
				1.6298145055770874e-08,
				0.09008091688156128,
				0
			]
		},
		{
			"children":[
				9
			],
			"name":"mixamorig:LeftShoulder",
			"rotation":[
				0.5609078407287598,
				0.4217599928379059,
				-0.5870263576507568,
				0.4036099910736084
			],
			"scale":[
				1,
				0.9999999403953552,
				0.9999999403953552
			],
			"translation":[
				0.0426771342754364,
				0.08871759474277496,
				-0.00198499858379364
			]
		},
		{
			"name":"mixamorig:RightHandIndex4",
			"rotation":[
				-7.275958502361846e-09,
				-9.31322685637781e-10,
				1.909211455597415e-08,
				1
			],
			"scale":[
				0.9999999403953552,
				0.9999998807907104,
				0.9999998807907104
			],
			"translation":[
				-0.011547794565558434,
				0.013250244781374931,
				-0.015375073999166489
			]
		},
		{
			"children":[
				11
			],
			"name":"mixamorig:RightHandIndex3",
			"rotation":[
				-1.2048984388002282e-07,
				1.792795956134796e-08,
				-1.4263205230236053e-06,
				1
			],
			"scale":[
				1,
				1.0000001192092896,
				1.0000001192092896
			],
			"translation":[
				-0.005333557724952698,
				0.03696402162313461,
				-0.026945635676383972
			]
		},
		{
			"children":[
				12
			],
			"name":"mixamorig:RightHandIndex2",
			"rotation":[
				-1.7910500105244864e-07,
				-2.807937846682762e-07,
				5.965121658846329e-07,
				1
			],
			"scale":[
				0.9999999403953552,
				0.9999998807907104,
				0.9999999403953552
			],
			"translation":[
				1.471489667892456e-07,
				0.034325309097766876,
				-1.1175870895385742e-08
			]
		},
		{
			"children":[
				13
			],
			"name":"mixamorig:RightHandIndex1",
			"rotation":[
				0.1473645716905594,
				-0.7781224250793457,
				0.19860050082206726,
				0.5773794054985046
			],
			"scale":[
				1.0000001192092896,
				1.0000003576278687,
				1.0000001192092896
			],
			"translation":[
				-2.7008354663848877e-08,
				0.050174180418252945,
				-1.862645149230957e-09
			]
		},
		{
			"children":[
				14
			],
			"name":"mixamorig:RightHand",
			"rotation":[
				0.05465751513838768,
				0.0002414890332147479,
				0.004412059672176838,
				0.9984953999519348
			],
			"scale":[
				1,
				1,
				0.9999999403953552
			],
			"translation":[
				-2.3283064365386963e-09,
				0.18317952752113342,
				-7.450580596923828e-08
			]
		},
		{
			"children":[
				15
			],
			"name":"mixamorig:RightForeArm",
			"rotation":[
				-0.048690490424633026,
				0.0017871720483526587,
				-0.036636240780353546,
				0.9981402158737183
			],
			"scale":[
				1,
				0.9999999403953552,
				0.9999998807907104
			],
			"translation":[
				-1.909211277961731e-08,
				0.19608764350414276,
				2.421438694000244e-08
			]
		},
		{
			"children":[
				16
			],
			"name":"mixamorig:RightArm",
			"rotation":[
				-0.13993202149868011,
				0.004489866551011801,
				-0.0317535325884819,
				0.9896416664123535
			],
			"translation":[
				-5.587935447692871e-09,
				0.09008096158504486,
				2.2351741790771484e-08
			]
		},
		{
			"children":[
				17
			],
			"name":"mixamorig:RightShoulder",
			"rotation":[
				0.5550052523612976,
				-0.42624789476394653,
				0.5914458632469177,
				0.4005918800830841
			],
			"scale":[
				0.9999999403953552,
				0.9999998807907104,
				0.9999999403953552
			],
			"translation":[
				-0.0426771342754364,
				0.08884177356958389,
				-0.0027575045824050903
			]
		},
		{
			"children":[
				2,
				10,
				18
			],
			"name":"mixamorig:Spine2",
			"rotation":[
				-8.940698137394065e-08,
				0,
				0,
				1
			],
			"scale":[
				1,
				0.9999999403953552,
				0.9999999403953552
			],
			"translation":[
				0,
				0.09202694147825241,
				-1.30385160446167e-08
			]
		},
		{
			"children":[
				19
			],
			"name":"mixamorig:Spine1",
			"rotation":[
				1.564621925354004e-07,
				0,
				0,
				1
			],
			"translation":[
				0,
				0.08052365481853485,
				1.862645149230957e-09
			]
		},
		{
			"children":[
				20
			],
			"name":"mixamorig:Spine",
			"rotation":[
				-0.07961106300354004,
				0,
				0,
				0.9968259930610657
			],
			"translation":[
				0,
				0.06814540922641754,
				-0.010954662226140499
			]
		},
		{
			"name":"mixamorig:LeftToe_End",
			"rotation":[
				2.9394864320408942e-09,
				4.260800423594446e-08,
				-9.606081619040197e-08,
				1
			],
			"scale":[
				1.0000001192092896,
				1.0000001192092896,
				1.0000001192092896
			],
			"translation":[
				1.280568540096283e-08,
				0.07379437983036041,
				0
			]
		},
		{
			"children":[
				22
			],
			"name":"mixamorig:LeftToeBase",
			"rotation":[
				0.22464875876903534,
				-0.0631028264760971,
				0.014579826034605503,
				0.9722851514816284
			],
			"scale":[
				1,
				0.9999999403953552,
				1
			],
			"translation":[
				-1.025910023599863e-08,
				0.1933138072490692,
				1.6298145055770874e-08
			]
		},
		{
			"children":[
				23
			],
			"name":"mixamorig:LeftFoot",
			"rotation":[
				0.5562668442726135,
				-0.09527464210987091,
				0.0643947497010231,
				0.8230087161064148
			],
			"translation":[
				-1.989974407479167e-09,
				0.3438122272491455,
				1.0631083569023758e-08
			]
		},
		{
			"children":[
				24
			],
			"name":"mixamorig:LeftLeg",
			"rotation":[
				-0.011589573696255684,
				0.0002548159973230213,
				-0.022008782252669334,
				0.999690592288971
			],
			"scale":[
				0.9999998807907104,
				0.9999999403953552,
				0.9999999403953552
			],
			"translation":[
				-6.83940015733242e-09,
				0.3334941267967224,
				1.105541969081969e-08
			]
		},
		{
			"children":[
				25
			],
			"name":"mixamorig:LeftUpLeg",
			"rotation":[
				0.00045629680971615016,
				0.023978110402822495,
				-0.9995312690734863,
				0.019029725342988968
			],
			"scale":[
				1.0000014305114746,
				1,
				1.000002145767212
			],
			"translation":[
				0.07374585419893265,
				-0.037907883524894714,
				-0.015265876427292824
			]
		},
		{
			"name":"mixamorig:RightToe_End",
			"rotation":[
				1.5046678569774485e-08,
				-5.820765203168321e-09,
				-1.0204528777535415e-08,
				1
			],
			"scale":[
				1.0000001192092896,
				1.0000001192092896,
				1.0000001192092896
			],
			"translation":[
				-2.9103830456733704e-09,
				0.07474096119403839,
				0
			]
		},
		{
			"children":[
				27
			],
			"name":"mixamorig:RightToeBase",
			"rotation":[
				0.22072720527648926,
				0.065579354763031,
				-0.014876331202685833,
				0.9730147123336792
			],
			"scale":[
				1,
				0.9999998211860657,
				1
			],
			"translation":[
				9.98261384665966e-09,
				0.19663482904434204,
				-2.153683453798294e-09
			]
		},
		{
			"children":[
				28
			],
			"name":"mixamorig:RightFoot",
			"rotation":[
				0.5606805682182312,
				0.09293676167726517,
				-0.06351877003908157,
				0.8203446865081787
			],
			"scale":[
				1,
				0.9999998807907104,
				0.9999998807907104
			],
			"translation":[
				1.0451913112774491e-08,
				0.343866229057312,
				-1.91730578080751e-08
			]
		},
		{
			"children":[
				29
			],
			"name":"mixamorig:RightLeg",
			"rotation":[
				-0.01495478954166174,
				-0.00032893996103666723,
				0.022011814638972282,
				0.9996458292007446
			],
			"scale":[
				0.9999998807907104,
				0.9999999403953552,
				0.9999998807907104
			],
			"translation":[
				-1.6589183360338211e-09,
				0.33342471718788147,
				1.2071645016931143e-08
			]
		},
		{
			"children":[
				30
			],
			"name":"mixamorig:RightUpLeg",
			"rotation":[
				0.00041316114948131144,
				-0.021700197830796242,
				0.9995832443237305,
				0.01903468370437622
			],
			"scale":[
				1.000001072883606,
				0.9999998211860657,
				1.0000015497207642
			],
			"translation":[
				-0.07374585419893265,
				-0.037907883524894714,
				-0.016067394986748695
			]
		},
		{
			"children":[
				21,
				26,
				31
			],
			"name":"mixamorig:Hips",
			"rotation":[
				-5.330147700988164e-08,
				0,
				0,
				1
			],
			"translation":[
				0,
				0.8088757991790771,
				-0.11791687458753586
			]
		},
		{
			"mesh":0,
			"name":"\u5e3d\u5b50.001",
			"skin":0
		},
		{
			"children":[
				33,
				32
			],
			"name":"Armature"
		}
	],
	"animations":[
		{
			"channels":[
				{
					"sampler":0,
					"target":{
						"node":32,
						"path":"translation"
					}
				},
				{
					"sampler":1,
					"target":{
						"node":32,
						"path":"rotation"
					}
				},
				{
					"sampler":2,
					"target":{
						"node":32,
						"path":"scale"
					}
				},
				{
					"sampler":3,
					"target":{
						"node":21,
						"path":"translation"
					}
				},
				{
					"sampler":4,
					"target":{
						"node":21,
						"path":"rotation"
					}
				},
				{
					"sampler":5,
					"target":{
						"node":21,
						"path":"scale"
					}
				},
				{
					"sampler":6,
					"target":{
						"node":20,
						"path":"translation"
					}
				},
				{
					"sampler":7,
					"target":{
						"node":20,
						"path":"rotation"
					}
				},
				{
					"sampler":8,
					"target":{
						"node":20,
						"path":"scale"
					}
				},
				{
					"sampler":9,
					"target":{
						"node":19,
						"path":"translation"
					}
				},
				{
					"sampler":10,
					"target":{
						"node":19,
						"path":"rotation"
					}
				},
				{
					"sampler":11,
					"target":{
						"node":19,
						"path":"scale"
					}
				},
				{
					"sampler":12,
					"target":{
						"node":2,
						"path":"translation"
					}
				},
				{
					"sampler":13,
					"target":{
						"node":2,
						"path":"rotation"
					}
				},
				{
					"sampler":14,
					"target":{
						"node":2,
						"path":"scale"
					}
				},
				{
					"sampler":15,
					"target":{
						"node":1,
						"path":"translation"
					}
				},
				{
					"sampler":16,
					"target":{
						"node":1,
						"path":"rotation"
					}
				},
				{
					"sampler":17,
					"target":{
						"node":1,
						"path":"scale"
					}
				},
				{
					"sampler":18,
					"target":{
						"node":0,
						"path":"translation"
					}
				},
				{
					"sampler":19,
					"target":{
						"node":0,
						"path":"rotation"
					}
				},
				{
					"sampler":20,
					"target":{
						"node":0,
						"path":"scale"
					}
				},
				{
					"sampler":21,
					"target":{
						"node":10,
						"path":"translation"
					}
				},
				{
					"sampler":22,
					"target":{
						"node":10,
						"path":"rotation"
					}
				},
				{
					"sampler":23,
					"target":{
						"node":10,
						"path":"scale"
					}
				},
				{
					"sampler":24,
					"target":{
						"node":9,
						"path":"translation"
					}
				},
				{
					"sampler":25,
					"target":{
						"node":9,
						"path":"rotation"
					}
				},
				{
					"sampler":26,
					"target":{
						"node":9,
						"path":"scale"
					}
				},
				{
					"sampler":27,
					"target":{
						"node":8,
						"path":"translation"
					}
				},
				{
					"sampler":28,
					"target":{
						"node":8,
						"path":"rotation"
					}
				},
				{
					"sampler":29,
					"target":{
						"node":8,
						"path":"scale"
					}
				},
				{
					"sampler":30,
					"target":{
						"node":7,
						"path":"translation"
					}
				},
				{
					"sampler":31,
					"target":{
						"node":7,
						"path":"rotation"
					}
				},
				{
					"sampler":32,
					"target":{
						"node":7,
						"path":"scale"
					}
				},
				{
					"sampler":33,
					"target":{
						"node":6,
						"path":"translation"
					}
				},
				{
					"sampler":34,
					"target":{
						"node":6,
						"path":"rotation"
					}
				},
				{
					"sampler":35,
					"target":{
						"node":6,
						"path":"scale"
					}
				},
				{
					"sampler":36,
					"target":{
						"node":5,
						"path":"translation"
					}
				},
				{
					"sampler":37,
					"target":{
						"node":5,
						"path":"rotation"
					}
				},
				{
					"sampler":38,
					"target":{
						"node":5,
						"path":"scale"
					}
				},
				{
					"sampler":39,
					"target":{
						"node":4,
						"path":"translation"
					}
				},
				{
					"sampler":40,
					"target":{
						"node":4,
						"path":"rotation"
					}
				},
				{
					"sampler":41,
					"target":{
						"node":4,
						"path":"scale"
					}
				},
				{
					"sampler":42,
					"target":{
						"node":3,
						"path":"translation"
					}
				},
				{
					"sampler":43,
					"target":{
						"node":3,
						"path":"rotation"
					}
				},
				{
					"sampler":44,
					"target":{
						"node":3,
						"path":"scale"
					}
				},
				{
					"sampler":45,
					"target":{
						"node":18,
						"path":"translation"
					}
				},
				{
					"sampler":46,
					"target":{
						"node":18,
						"path":"rotation"
					}
				},
				{
					"sampler":47,
					"target":{
						"node":18,
						"path":"scale"
					}
				},
				{
					"sampler":48,
					"target":{
						"node":17,
						"path":"translation"
					}
				},
				{
					"sampler":49,
					"target":{
						"node":17,
						"path":"rotation"
					}
				},
				{
					"sampler":50,
					"target":{
						"node":17,
						"path":"scale"
					}
				},
				{
					"sampler":51,
					"target":{
						"node":16,
						"path":"translation"
					}
				},
				{
					"sampler":52,
					"target":{
						"node":16,
						"path":"rotation"
					}
				},
				{
					"sampler":53,
					"target":{
						"node":16,
						"path":"scale"
					}
				},
				{
					"sampler":54,
					"target":{
						"node":15,
						"path":"translation"
					}
				},
				{
					"sampler":55,
					"target":{
						"node":15,
						"path":"rotation"
					}
				},
				{
					"sampler":56,
					"target":{
						"node":15,
						"path":"scale"
					}
				},
				{
					"sampler":57,
					"target":{
						"node":14,
						"path":"translation"
					}
				},
				{
					"sampler":58,
					"target":{
						"node":14,
						"path":"rotation"
					}
				},
				{
					"sampler":59,
					"target":{
						"node":14,
						"path":"scale"
					}
				},
				{
					"sampler":60,
					"target":{
						"node":13,
						"path":"translation"
					}
				},
				{
					"sampler":61,
					"target":{
						"node":13,
						"path":"rotation"
					}
				},
				{
					"sampler":62,
					"target":{
						"node":13,
						"path":"scale"
					}
				},
				{
					"sampler":63,
					"target":{
						"node":12,
						"path":"translation"
					}
				},
				{
					"sampler":64,
					"target":{
						"node":12,
						"path":"rotation"
					}
				},
				{
					"sampler":65,
					"target":{
						"node":12,
						"path":"scale"
					}
				},
				{
					"sampler":66,
					"target":{
						"node":11,
						"path":"translation"
					}
				},
				{
					"sampler":67,
					"target":{
						"node":11,
						"path":"rotation"
					}
				},
				{
					"sampler":68,
					"target":{
						"node":11,
						"path":"scale"
					}
				},
				{
					"sampler":69,
					"target":{
						"node":26,
						"path":"translation"
					}
				},
				{
					"sampler":70,
					"target":{
						"node":26,
						"path":"rotation"
					}
				},
				{
					"sampler":71,
					"target":{
						"node":26,
						"path":"scale"
					}
				},
				{
					"sampler":72,
					"target":{
						"node":25,
						"path":"translation"
					}
				},
				{
					"sampler":73,
					"target":{
						"node":25,
						"path":"rotation"
					}
				},
				{
					"sampler":74,
					"target":{
						"node":25,
						"path":"scale"
					}
				},
				{
					"sampler":75,
					"target":{
						"node":24,
						"path":"translation"
					}
				},
				{
					"sampler":76,
					"target":{
						"node":24,
						"path":"rotation"
					}
				},
				{
					"sampler":77,
					"target":{
						"node":24,
						"path":"scale"
					}
				},
				{
					"sampler":78,
					"target":{
						"node":23,
						"path":"translation"
					}
				},
				{
					"sampler":79,
					"target":{
						"node":23,
						"path":"rotation"
					}
				},
				{
					"sampler":80,
					"target":{
						"node":23,
						"path":"scale"
					}
				},
				{
					"sampler":81,
					"target":{
						"node":22,
						"path":"translation"
					}
				},
				{
					"sampler":82,
					"target":{
						"node":22,
						"path":"rotation"
					}
				},
				{
					"sampler":83,
					"target":{
						"node":22,
						"path":"scale"
					}
				},
				{
					"sampler":84,
					"target":{
						"node":31,
						"path":"translation"
					}
				},
				{
					"sampler":85,
					"target":{
						"node":31,
						"path":"rotation"
					}
				},
				{
					"sampler":86,
					"target":{
						"node":31,
						"path":"scale"
					}
				},
				{
					"sampler":87,
					"target":{
						"node":30,
						"path":"translation"
					}
				},
				{
					"sampler":88,
					"target":{
						"node":30,
						"path":"rotation"
					}
				},
				{
					"sampler":89,
					"target":{
						"node":30,
						"path":"scale"
					}
				},
				{
					"sampler":90,
					"target":{
						"node":29,
						"path":"translation"
					}
				},
				{
					"sampler":91,
					"target":{
						"node":29,
						"path":"rotation"
					}
				},
				{
					"sampler":92,
					"target":{
						"node":29,
						"path":"scale"
					}
				},
				{
					"sampler":93,
					"target":{
						"node":28,
						"path":"translation"
					}
				},
				{
					"sampler":94,
					"target":{
						"node":28,
						"path":"rotation"
					}
				},
				{
					"sampler":95,
					"target":{
						"node":28,
						"path":"scale"
					}
				},
				{
					"sampler":96,
					"target":{
						"node":27,
						"path":"translation"
					}
				},
				{
					"sampler":97,
					"target":{
						"node":27,
						"path":"rotation"
					}
				},
				{
					"sampler":98,
					"target":{
						"node":27,
						"path":"scale"
					}
				}
			],
			"name":"mixamo.com",
			"samplers":[
				{
					"input":7,
					"interpolation":"LINEAR",
					"output":8
				},
				{
					"input":7,
					"interpolation":"LINEAR",
					"output":9
				},
				{
					"input":10,
					"interpolation":"STEP",
					"output":11
				},
				{
					"input":10,
					"interpolation":"LINEAR",
					"output":12
				},
				{
					"input":7,
					"interpolation":"LINEAR",
					"output":13
				},
				{
					"input":10,
					"interpolation":"STEP",
					"output":14
				},
				{
					"input":10,
					"interpolation":"LINEAR",
					"output":15
				},
				{
					"input":7,
					"interpolation":"LINEAR",
					"output":16
				},
				{
					"input":10,
					"interpolation":"STEP",
					"output":17
				},
				{
					"input":10,
					"interpolation":"LINEAR",
					"output":18
				},
				{
					"input":7,
					"interpolation":"LINEAR",
					"output":19
				},
				{
					"input":10,
					"interpolation":"STEP",
					"output":20
				},
				{
					"input":10,
					"interpolation":"LINEAR",
					"output":21
				},
				{
					"input":7,
					"interpolation":"LINEAR",
					"output":22
				},
				{
					"input":10,
					"interpolation":"STEP",
					"output":23
				},
				{
					"input":10,
					"interpolation":"LINEAR",
					"output":24
				},
				{
					"input":7,
					"interpolation":"LINEAR",
					"output":25
				},
				{
					"input":10,
					"interpolation":"STEP",
					"output":26
				},
				{
					"input":10,
					"interpolation":"STEP",
					"output":27
				},
				{
					"input":10,
					"interpolation":"STEP",
					"output":28
				},
				{
					"input":10,
					"interpolation":"STEP",
					"output":11
				},
				{
					"input":10,
					"interpolation":"LINEAR",
					"output":29
				},
				{
					"input":7,
					"interpolation":"LINEAR",
					"output":30
				},
				{
					"input":10,
					"interpolation":"STEP",
					"output":31
				},
				{
					"input":10,
					"interpolation":"LINEAR",
					"output":32
				},
				{
					"input":7,
					"interpolation":"LINEAR",
					"output":33
				},
				{
					"input":10,
					"interpolation":"STEP",
					"output":34
				},
				{
					"input":10,
					"interpolation":"LINEAR",
					"output":35
				},
				{
					"input":7,
					"interpolation":"LINEAR",
					"output":36
				},
				{
					"input":10,
					"interpolation":"LINEAR",
					"output":37
				},
				{
					"input":10,
					"interpolation":"LINEAR",
					"output":38
				},
				{
					"input":7,
					"interpolation":"LINEAR",
					"output":39
				},
				{
					"input":10,
					"interpolation":"STEP",
					"output":40
				},
				{
					"input":10,
					"interpolation":"LINEAR",
					"output":41
				},
				{
					"input":7,
					"interpolation":"LINEAR",
					"output":42
				},
				{
					"input":10,
					"interpolation":"LINEAR",
					"output":43
				},
				{
					"input":10,
					"interpolation":"LINEAR",
					"output":44
				},
				{
					"input":7,
					"interpolation":"LINEAR",
					"output":45
				},
				{
					"input":10,
					"interpolation":"STEP",
					"output":46
				},
				{
					"input":10,
					"interpolation":"LINEAR",
					"output":47
				},
				{
					"input":7,
					"interpolation":"LINEAR",
					"output":48
				},
				{
					"input":10,
					"interpolation":"LINEAR",
					"output":49
				},
				{
					"input":10,
					"interpolation":"STEP",
					"output":50
				},
				{
					"input":10,
					"interpolation":"STEP",
					"output":51
				},
				{
					"input":10,
					"interpolation":"STEP",
					"output":52
				},
				{
					"input":10,
					"interpolation":"LINEAR",
					"output":53
				},
				{
					"input":7,
					"interpolation":"LINEAR",
					"output":54
				},
				{
					"input":10,
					"interpolation":"STEP",
					"output":55
				},
				{
					"input":10,
					"interpolation":"LINEAR",
					"output":56
				},
				{
					"input":7,
					"interpolation":"LINEAR",
					"output":57
				},
				{
					"input":10,
					"interpolation":"STEP",
					"output":58
				},
				{
					"input":10,
					"interpolation":"LINEAR",
					"output":59
				},
				{
					"input":7,
					"interpolation":"LINEAR",
					"output":60
				},
				{
					"input":10,
					"interpolation":"LINEAR",
					"output":61
				},
				{
					"input":10,
					"interpolation":"LINEAR",
					"output":62
				},
				{
					"input":7,
					"interpolation":"LINEAR",
					"output":63
				},
				{
					"input":10,
					"interpolation":"STEP",
					"output":64
				},
				{
					"input":10,
					"interpolation":"LINEAR",
					"output":65
				},
				{
					"input":7,
					"interpolation":"LINEAR",
					"output":66
				},
				{
					"input":10,
					"interpolation":"LINEAR",
					"output":67
				},
				{
					"input":10,
					"interpolation":"LINEAR",
					"output":68
				},
				{
					"input":7,
					"interpolation":"LINEAR",
					"output":69
				},
				{
					"input":10,
					"interpolation":"LINEAR",
					"output":70
				},
				{
					"input":10,
					"interpolation":"LINEAR",
					"output":71
				},
				{
					"input":7,
					"interpolation":"LINEAR",
					"output":72
				},
				{
					"input":10,
					"interpolation":"LINEAR",
					"output":73
				},
				{
					"input":10,
					"interpolation":"STEP",
					"output":74
				},
				{
					"input":10,
					"interpolation":"STEP",
					"output":75
				},
				{
					"input":10,
					"interpolation":"STEP",
					"output":76
				},
				{
					"input":10,
					"interpolation":"LINEAR",
					"output":77
				},
				{
					"input":7,
					"interpolation":"LINEAR",
					"output":78
				},
				{
					"input":10,
					"interpolation":"STEP",
					"output":79
				},
				{
					"input":10,
					"interpolation":"LINEAR",
					"output":80
				},
				{
					"input":7,
					"interpolation":"LINEAR",
					"output":81
				},
				{
					"input":10,
					"interpolation":"LINEAR",
					"output":82
				},
				{
					"input":10,
					"interpolation":"LINEAR",
					"output":83
				},
				{
					"input":7,
					"interpolation":"LINEAR",
					"output":84
				},
				{
					"input":10,
					"interpolation":"LINEAR",
					"output":85
				},
				{
					"input":10,
					"interpolation":"LINEAR",
					"output":86
				},
				{
					"input":7,
					"interpolation":"LINEAR",
					"output":87
				},
				{
					"input":10,
					"interpolation":"STEP",
					"output":88
				},
				{
					"input":10,
					"interpolation":"STEP",
					"output":89
				},
				{
					"input":10,
					"interpolation":"STEP",
					"output":90
				},
				{
					"input":10,
					"interpolation":"STEP",
					"output":91
				},
				{
					"input":10,
					"interpolation":"LINEAR",
					"output":92
				},
				{
					"input":7,
					"interpolation":"LINEAR",
					"output":93
				},
				{
					"input":10,
					"interpolation":"STEP",
					"output":94
				},
				{
					"input":10,
					"interpolation":"LINEAR",
					"output":95
				},
				{
					"input":7,
					"interpolation":"LINEAR",
					"output":96
				},
				{
					"input":10,
					"interpolation":"LINEAR",
					"output":97
				},
				{
					"input":10,
					"interpolation":"LINEAR",
					"output":98
				},
				{
					"input":7,
					"interpolation":"LINEAR",
					"output":99
				},
				{
					"input":10,
					"interpolation":"STEP",
					"output":100
				},
				{
					"input":10,
					"interpolation":"LINEAR",
					"output":101
				},
				{
					"input":7,
					"interpolation":"LINEAR",
					"output":102
				},
				{
					"input":10,
					"interpolation":"STEP",
					"output":103
				},
				{
					"input":10,
					"interpolation":"STEP",
					"output":104
				},
				{
					"input":10,
					"interpolation":"STEP",
					"output":105
				},
				{
					"input":10,
					"interpolation":"STEP",
					"output":106
				}
			]
		}
	],
	"materials":[
		{
			"alphaMode":"BLEND",
			"doubleSided":true,
			"name":"Materialmat",
			"pbrMetallicRoughness":{
				"baseColorTexture":{
					"index":0
				},
				"metallicFactor":0,
				"roughnessFactor":0.5527864098548889
			}
		}
	],
	"meshes":[
		{
			"name":"\u5e3d\u5b50mesh",
			"primitives":[
				{
					"attributes":{
						"POSITION":0,
						"NORMAL":1,
						"TEXCOORD_0":2,
						"JOINTS_0":3,
						"WEIGHTS_0":4
					},
					"indices":5,
					"material":0
				}
			]
		}
	],
	"textures":[
		{
			"sampler":0,
			"source":0
		}
	],
	"images":[
		{
			"mimeType":"image/png",
			"name":"magiclashUV",
			"uri":"magiclashUV.png"
		}
	],
	"skins":[
		{
			"inverseBindMatrices":6,
			"joints":[
				32,
				21,
				20,
				19,
				2,
				1,
				0,
				10,
				9,
				8,
				7,
				6,
				5,
				4,
				3,
				18,
				17,
				16,
				15,
				14,
				13,
				12,
				11,
				26,
				25,
				24,
				23,
				22,
				31,
				30,
				29,
				28,
				27
			],
			"name":"Armature"
		}
	],
	"accessors":[
		{
			"bufferView":0,
			"componentType":5126,
			"count":1270,
			"max":[
				0.6503999829292297,
				1.7347029447555542,
				0.20686088502407074
			],
			"min":[
				-0.6503999829292297,
				0.0009319840464740992,
				-0.6082941293716431
			],
			"type":"VEC3"
		},
		{
			"bufferView":1,
			"componentType":5126,
			"count":1270,
			"type":"VEC3"
		},
		{
			"bufferView":2,
			"componentType":5126,
			"count":1270,
			"type":"VEC2"
		},
		{
			"bufferView":3,
			"componentType":5121,
			"count":1270,
			"type":"VEC4"
		},
		{
			"bufferView":4,
			"componentType":5126,
			"count":1270,
			"type":"VEC4"
		},
		{
			"bufferView":5,
			"componentType":5123,
			"count":4746,
			"type":"SCALAR"
		},
		{
			"bufferView":6,
			"componentType":5126,
			"count":33,
			"type":"MAT4"
		},
		{
			"bufferView":7,
			"componentType":5126,
			"count":78,
			"max":[
				2.6
			],
			"min":[
				0.03333333333333333
			],
			"type":"SCALAR"
		},
		{
			"bufferView":8,
			"componentType":5126,
			"count":78,
			"type":"VEC3"
		},
		{
			"bufferView":9,
			"componentType":5126,
			"count":78,
			"type":"VEC4"
		},
		{
			"bufferView":10,
			"componentType":5126,
			"count":2,
			"max":[
				2.6
			],
			"min":[
				0.03333333333333333
			],
			"type":"SCALAR"
		},
		{
			"bufferView":11,
			"componentType":5126,
			"count":2,
			"type":"VEC3"
		},
		{
			"bufferView":12,
			"componentType":5126,
			"count":2,
			"type":"VEC3"
		},
		{
			"bufferView":13,
			"componentType":5126,
			"count":78,
			"type":"VEC4"
		},
		{
			"bufferView":14,
			"componentType":5126,
			"count":2,
			"type":"VEC3"
		},
		{
			"bufferView":15,
			"componentType":5126,
			"count":2,
			"type":"VEC3"
		},
		{
			"bufferView":16,
			"componentType":5126,
			"count":78,
			"type":"VEC4"
		},
		{
			"bufferView":17,
			"componentType":5126,
			"count":2,
			"type":"VEC3"
		},
		{
			"bufferView":18,
			"componentType":5126,
			"count":2,
			"type":"VEC3"
		},
		{
			"bufferView":19,
			"componentType":5126,
			"count":78,
			"type":"VEC4"
		},
		{
			"bufferView":20,
			"componentType":5126,
			"count":2,
			"type":"VEC3"
		},
		{
			"bufferView":21,
			"componentType":5126,
			"count":2,
			"type":"VEC3"
		},
		{
			"bufferView":22,
			"componentType":5126,
			"count":78,
			"type":"VEC4"
		},
		{
			"bufferView":23,
			"componentType":5126,
			"count":2,
			"type":"VEC3"
		},
		{
			"bufferView":24,
			"componentType":5126,
			"count":2,
			"type":"VEC3"
		},
		{
			"bufferView":25,
			"componentType":5126,
			"count":78,
			"type":"VEC4"
		},
		{
			"bufferView":26,
			"componentType":5126,
			"count":2,
			"type":"VEC3"
		},
		{
			"bufferView":27,
			"componentType":5126,
			"count":2,
			"type":"VEC3"
		},
		{
			"bufferView":28,
			"componentType":5126,
			"count":2,
			"type":"VEC4"
		},
		{
			"bufferView":29,
			"componentType":5126,
			"count":2,
			"type":"VEC3"
		},
		{
			"bufferView":30,
			"componentType":5126,
			"count":78,
			"type":"VEC4"
		},
		{
			"bufferView":31,
			"componentType":5126,
			"count":2,
			"type":"VEC3"
		},
		{
			"bufferView":32,
			"componentType":5126,
			"count":2,
			"type":"VEC3"
		},
		{
			"bufferView":33,
			"componentType":5126,
			"count":78,
			"type":"VEC4"
		},
		{
			"bufferView":34,
			"componentType":5126,
			"count":2,
			"type":"VEC3"
		},
		{
			"bufferView":35,
			"componentType":5126,
			"count":2,
			"type":"VEC3"
		},
		{
			"bufferView":36,
			"componentType":5126,
			"count":78,
			"type":"VEC4"
		},
		{
			"bufferView":37,
			"componentType":5126,
			"count":2,
			"type":"VEC3"
		},
		{
			"bufferView":38,
			"componentType":5126,
			"count":2,
			"type":"VEC3"
		},
		{
			"bufferView":39,
			"componentType":5126,
			"count":78,
			"type":"VEC4"
		},
		{
			"bufferView":40,
			"componentType":5126,
			"count":2,
			"type":"VEC3"
		},
		{
			"bufferView":41,
			"componentType":5126,
			"count":2,
			"type":"VEC3"
		},
		{
			"bufferView":42,
			"componentType":5126,
			"count":78,
			"type":"VEC4"
		},
		{
			"bufferView":43,
			"componentType":5126,
			"count":2,
			"type":"VEC3"
		},
		{
			"bufferView":44,
			"componentType":5126,
			"count":2,
			"type":"VEC3"
		},
		{
			"bufferView":45,
			"componentType":5126,
			"count":78,
			"type":"VEC4"
		},
		{
			"bufferView":46,
			"componentType":5126,
			"count":2,
			"type":"VEC3"
		},
		{
			"bufferView":47,
			"componentType":5126,
			"count":2,
			"type":"VEC3"
		},
		{
			"bufferView":48,
			"componentType":5126,
			"count":78,
			"type":"VEC4"
		},
		{
			"bufferView":49,
			"componentType":5126,
			"count":2,
			"type":"VEC3"
		},
		{
			"bufferView":50,
			"componentType":5126,
			"count":2,
			"type":"VEC3"
		},
		{
			"bufferView":51,
			"componentType":5126,
			"count":2,
			"type":"VEC4"
		},
		{
			"bufferView":52,
			"componentType":5126,
			"count":2,
			"type":"VEC3"
		},
		{
			"bufferView":53,
			"componentType":5126,
			"count":2,
			"type":"VEC3"
		},
		{
			"bufferView":54,
			"componentType":5126,
			"count":78,
			"type":"VEC4"
		},
		{
			"bufferView":55,
			"componentType":5126,
			"count":2,
			"type":"VEC3"
		},
		{
			"bufferView":56,
			"componentType":5126,
			"count":2,
			"type":"VEC3"
		},
		{
			"bufferView":57,
			"componentType":5126,
			"count":78,
			"type":"VEC4"
		},
		{
			"bufferView":58,
			"componentType":5126,
			"count":2,
			"type":"VEC3"
		},
		{
			"bufferView":59,
			"componentType":5126,
			"count":2,
			"type":"VEC3"
		},
		{
			"bufferView":60,
			"componentType":5126,
			"count":78,
			"type":"VEC4"
		},
		{
			"bufferView":61,
			"componentType":5126,
			"count":2,
			"type":"VEC3"
		},
		{
			"bufferView":62,
			"componentType":5126,
			"count":2,
			"type":"VEC3"
		},
		{
			"bufferView":63,
			"componentType":5126,
			"count":78,
			"type":"VEC4"
		},
		{
			"bufferView":64,
			"componentType":5126,
			"count":2,
			"type":"VEC3"
		},
		{
			"bufferView":65,
			"componentType":5126,
			"count":2,
			"type":"VEC3"
		},
		{
			"bufferView":66,
			"componentType":5126,
			"count":78,
			"type":"VEC4"
		},
		{
			"bufferView":67,
			"componentType":5126,
			"count":2,
			"type":"VEC3"
		},
		{
			"bufferView":68,
			"componentType":5126,
			"count":2,
			"type":"VEC3"
		},
		{
			"bufferView":69,
			"componentType":5126,
			"count":78,
			"type":"VEC4"
		},
		{
			"bufferView":70,
			"componentType":5126,
			"count":2,
			"type":"VEC3"
		},
		{
			"bufferView":71,
			"componentType":5126,
			"count":2,
			"type":"VEC3"
		},
		{
			"bufferView":72,
			"componentType":5126,
			"count":78,
			"type":"VEC4"
		},
		{
			"bufferView":73,
			"componentType":5126,
			"count":2,
			"type":"VEC3"
		},
		{
			"bufferView":74,
			"componentType":5126,
			"count":2,
			"type":"VEC3"
		},
		{
			"bufferView":75,
			"componentType":5126,
			"count":2,
			"type":"VEC4"
		},
		{
			"bufferView":76,
			"componentType":5126,
			"count":2,
			"type":"VEC3"
		},
		{
			"bufferView":77,
			"componentType":5126,
			"count":2,
			"type":"VEC3"
		},
		{
			"bufferView":78,
			"componentType":5126,
			"count":78,
			"type":"VEC4"
		},
		{
			"bufferView":79,
			"componentType":5126,
			"count":2,
			"type":"VEC3"
		},
		{
			"bufferView":80,
			"componentType":5126,
			"count":2,
			"type":"VEC3"
		},
		{
			"bufferView":81,
			"componentType":5126,
			"count":78,
			"type":"VEC4"
		},
		{
			"bufferView":82,
			"componentType":5126,
			"count":2,
			"type":"VEC3"
		},
		{
			"bufferView":83,
			"componentType":5126,
			"count":2,
			"type":"VEC3"
		},
		{
			"bufferView":84,
			"componentType":5126,
			"count":78,
			"type":"VEC4"
		},
		{
			"bufferView":85,
			"componentType":5126,
			"count":2,
			"type":"VEC3"
		},
		{
			"bufferView":86,
			"componentType":5126,
			"count":2,
			"type":"VEC3"
		},
		{
			"bufferView":87,
			"componentType":5126,
			"count":78,
			"type":"VEC4"
		},
		{
			"bufferView":88,
			"componentType":5126,
			"count":2,
			"type":"VEC3"
		},
		{
			"bufferView":89,
			"componentType":5126,
			"count":2,
			"type":"VEC3"
		},
		{
			"bufferView":90,
			"componentType":5126,
			"count":2,
			"type":"VEC4"
		},
		{
			"bufferView":91,
			"componentType":5126,
			"count":2,
			"type":"VEC3"
		},
		{
			"bufferView":92,
			"componentType":5126,
			"count":2,
			"type":"VEC3"
		},
		{
			"bufferView":93,
			"componentType":5126,
			"count":78,
			"type":"VEC4"
		},
		{
			"bufferView":94,
			"componentType":5126,
			"count":2,
			"type":"VEC3"
		},
		{
			"bufferView":95,
			"componentType":5126,
			"count":2,
			"type":"VEC3"
		},
		{
			"bufferView":96,
			"componentType":5126,
			"count":78,
			"type":"VEC4"
		},
		{
			"bufferView":97,
			"componentType":5126,
			"count":2,
			"type":"VEC3"
		},
		{
			"bufferView":98,
			"componentType":5126,
			"count":2,
			"type":"VEC3"
		},
		{
			"bufferView":99,
			"componentType":5126,
			"count":78,
			"type":"VEC4"
		},
		{
			"bufferView":100,
			"componentType":5126,
			"count":2,
			"type":"VEC3"
		},
		{
			"bufferView":101,
			"componentType":5126,
			"count":2,
			"type":"VEC3"
		},
		{
			"bufferView":102,
			"componentType":5126,
			"count":78,
			"type":"VEC4"
		},
		{
			"bufferView":103,
			"componentType":5126,
			"count":2,
			"type":"VEC3"
		},
		{
			"bufferView":104,
			"componentType":5126,
			"count":2,
			"type":"VEC3"
		},
		{
			"bufferView":105,
			"componentType":5126,
			"count":2,
			"type":"VEC4"
		},
		{
			"bufferView":106,
			"componentType":5126,
			"count":2,
			"type":"VEC3"
		}
	],
	"bufferViews":[
		{
			"buffer":0,
			"byteLength":15240,
			"byteOffset":0,
			"target":34962
		},
		{
			"buffer":0,
			"byteLength":15240,
			"byteOffset":15240,
			"target":34962
		},
		{
			"buffer":0,
			"byteLength":10160,
			"byteOffset":30480,
			"target":34962
		},
		{
			"buffer":0,
			"byteLength":5080,
			"byteOffset":40640,
			"target":34962
		},
		{
			"buffer":0,
			"byteLength":20320,
			"byteOffset":45720,
			"target":34962
		},
		{
			"buffer":0,
			"byteLength":9492,
			"byteOffset":66040,
			"target":34963
		},
		{
			"buffer":0,
			"byteLength":2112,
			"byteOffset":75532
		},
		{
			"buffer":0,
			"byteLength":312,
			"byteOffset":77644
		},
		{
			"buffer":0,
			"byteLength":936,
			"byteOffset":77956
		},
		{
			"buffer":0,
			"byteLength":1248,
			"byteOffset":78892
		},
		{
			"buffer":0,
			"byteLength":8,
			"byteOffset":80140
		},
		{
			"buffer":0,
			"byteLength":24,
			"byteOffset":80148
		},
		{
			"buffer":0,
			"byteLength":24,
			"byteOffset":80172
		},
		{
			"buffer":0,
			"byteLength":1248,
			"byteOffset":80196
		},
		{
			"buffer":0,
			"byteLength":24,
			"byteOffset":81444
		},
		{
			"buffer":0,
			"byteLength":24,
			"byteOffset":81468
		},
		{
			"buffer":0,
			"byteLength":1248,
			"byteOffset":81492
		},
		{
			"buffer":0,
			"byteLength":24,
			"byteOffset":82740
		},
		{
			"buffer":0,
			"byteLength":24,
			"byteOffset":82764
		},
		{
			"buffer":0,
			"byteLength":1248,
			"byteOffset":82788
		},
		{
			"buffer":0,
			"byteLength":24,
			"byteOffset":84036
		},
		{
			"buffer":0,
			"byteLength":24,
			"byteOffset":84060
		},
		{
			"buffer":0,
			"byteLength":1248,
			"byteOffset":84084
		},
		{
			"buffer":0,
			"byteLength":24,
			"byteOffset":85332
		},
		{
			"buffer":0,
			"byteLength":24,
			"byteOffset":85356
		},
		{
			"buffer":0,
			"byteLength":1248,
			"byteOffset":85380
		},
		{
			"buffer":0,
			"byteLength":24,
			"byteOffset":86628
		},
		{
			"buffer":0,
			"byteLength":24,
			"byteOffset":86652
		},
		{
			"buffer":0,
			"byteLength":32,
			"byteOffset":86676
		},
		{
			"buffer":0,
			"byteLength":24,
			"byteOffset":86708
		},
		{
			"buffer":0,
			"byteLength":1248,
			"byteOffset":86732
		},
		{
			"buffer":0,
			"byteLength":24,
			"byteOffset":87980
		},
		{
			"buffer":0,
			"byteLength":24,
			"byteOffset":88004
		},
		{
			"buffer":0,
			"byteLength":1248,
			"byteOffset":88028
		},
		{
			"buffer":0,
			"byteLength":24,
			"byteOffset":89276
		},
		{
			"buffer":0,
			"byteLength":24,
			"byteOffset":89300
		},
		{
			"buffer":0,
			"byteLength":1248,
			"byteOffset":89324
		},
		{
			"buffer":0,
			"byteLength":24,
			"byteOffset":90572
		},
		{
			"buffer":0,
			"byteLength":24,
			"byteOffset":90596
		},
		{
			"buffer":0,
			"byteLength":1248,
			"byteOffset":90620
		},
		{
			"buffer":0,
			"byteLength":24,
			"byteOffset":91868
		},
		{
			"buffer":0,
			"byteLength":24,
			"byteOffset":91892
		},
		{
			"buffer":0,
			"byteLength":1248,
			"byteOffset":91916
		},
		{
			"buffer":0,
			"byteLength":24,
			"byteOffset":93164
		},
		{
			"buffer":0,
			"byteLength":24,
			"byteOffset":93188
		},
		{
			"buffer":0,
			"byteLength":1248,
			"byteOffset":93212
		},
		{
			"buffer":0,
			"byteLength":24,
			"byteOffset":94460
		},
		{
			"buffer":0,
			"byteLength":24,
			"byteOffset":94484
		},
		{
			"buffer":0,
			"byteLength":1248,
			"byteOffset":94508
		},
		{
			"buffer":0,
			"byteLength":24,
			"byteOffset":95756
		},
		{
			"buffer":0,
			"byteLength":24,
			"byteOffset":95780
		},
		{
			"buffer":0,
			"byteLength":32,
			"byteOffset":95804
		},
		{
			"buffer":0,
			"byteLength":24,
			"byteOffset":95836
		},
		{
			"buffer":0,
			"byteLength":24,
			"byteOffset":95860
		},
		{
			"buffer":0,
			"byteLength":1248,
			"byteOffset":95884
		},
		{
			"buffer":0,
			"byteLength":24,
			"byteOffset":97132
		},
		{
			"buffer":0,
			"byteLength":24,
			"byteOffset":97156
		},
		{
			"buffer":0,
			"byteLength":1248,
			"byteOffset":97180
		},
		{
			"buffer":0,
			"byteLength":24,
			"byteOffset":98428
		},
		{
			"buffer":0,
			"byteLength":24,
			"byteOffset":98452
		},
		{
			"buffer":0,
			"byteLength":1248,
			"byteOffset":98476
		},
		{
			"buffer":0,
			"byteLength":24,
			"byteOffset":99724
		},
		{
			"buffer":0,
			"byteLength":24,
			"byteOffset":99748
		},
		{
			"buffer":0,
			"byteLength":1248,
			"byteOffset":99772
		},
		{
			"buffer":0,
			"byteLength":24,
			"byteOffset":101020
		},
		{
			"buffer":0,
			"byteLength":24,
			"byteOffset":101044
		},
		{
			"buffer":0,
			"byteLength":1248,
			"byteOffset":101068
		},
		{
			"buffer":0,
			"byteLength":24,
			"byteOffset":102316
		},
		{
			"buffer":0,
			"byteLength":24,
			"byteOffset":102340
		},
		{
			"buffer":0,
			"byteLength":1248,
			"byteOffset":102364
		},
		{
			"buffer":0,
			"byteLength":24,
			"byteOffset":103612
		},
		{
			"buffer":0,
			"byteLength":24,
			"byteOffset":103636
		},
		{
			"buffer":0,
			"byteLength":1248,
			"byteOffset":103660
		},
		{
			"buffer":0,
			"byteLength":24,
			"byteOffset":104908
		},
		{
			"buffer":0,
			"byteLength":24,
			"byteOffset":104932
		},
		{
			"buffer":0,
			"byteLength":32,
			"byteOffset":104956
		},
		{
			"buffer":0,
			"byteLength":24,
			"byteOffset":104988
		},
		{
			"buffer":0,
			"byteLength":24,
			"byteOffset":105012
		},
		{
			"buffer":0,
			"byteLength":1248,
			"byteOffset":105036
		},
		{
			"buffer":0,
			"byteLength":24,
			"byteOffset":106284
		},
		{
			"buffer":0,
			"byteLength":24,
			"byteOffset":106308
		},
		{
			"buffer":0,
			"byteLength":1248,
			"byteOffset":106332
		},
		{
			"buffer":0,
			"byteLength":24,
			"byteOffset":107580
		},
		{
			"buffer":0,
			"byteLength":24,
			"byteOffset":107604
		},
		{
			"buffer":0,
			"byteLength":1248,
			"byteOffset":107628
		},
		{
			"buffer":0,
			"byteLength":24,
			"byteOffset":108876
		},
		{
			"buffer":0,
			"byteLength":24,
			"byteOffset":108900
		},
		{
			"buffer":0,
			"byteLength":1248,
			"byteOffset":108924
		},
		{
			"buffer":0,
			"byteLength":24,
			"byteOffset":110172
		},
		{
			"buffer":0,
			"byteLength":24,
			"byteOffset":110196
		},
		{
			"buffer":0,
			"byteLength":32,
			"byteOffset":110220
		},
		{
			"buffer":0,
			"byteLength":24,
			"byteOffset":110252
		},
		{
			"buffer":0,
			"byteLength":24,
			"byteOffset":110276
		},
		{
			"buffer":0,
			"byteLength":1248,
			"byteOffset":110300
		},
		{
			"buffer":0,
			"byteLength":24,
			"byteOffset":111548
		},
		{
			"buffer":0,
			"byteLength":24,
			"byteOffset":111572
		},
		{
			"buffer":0,
			"byteLength":1248,
			"byteOffset":111596
		},
		{
			"buffer":0,
			"byteLength":24,
			"byteOffset":112844
		},
		{
			"buffer":0,
			"byteLength":24,
			"byteOffset":112868
		},
		{
			"buffer":0,
			"byteLength":1248,
			"byteOffset":112892
		},
		{
			"buffer":0,
			"byteLength":24,
			"byteOffset":114140
		},
		{
			"buffer":0,
			"byteLength":24,
			"byteOffset":114164
		},
		{
			"buffer":0,
			"byteLength":1248,
			"byteOffset":114188
		},
		{
			"buffer":0,
			"byteLength":24,
			"byteOffset":115436
		},
		{
			"buffer":0,
			"byteLength":24,
			"byteOffset":115460
		},
		{
			"buffer":0,
			"byteLength":32,
			"byteOffset":115484
		},
		{
			"buffer":0,
			"byteLength":24,
			"byteOffset":115516
		}
	],
	"samplers":[
		{
			"magFilter":9729,
			"minFilter":9987
		}
	],
	"buffers":[
		{
			"byteLength":115540,
			"uri":"jogging.bin"
		}
	]
}
