# Blender 4.4.1
# www.blender.org
mtllib long.mtl
o long
v 2.339806 0.802275 0.301812
v 2.674393 0.225983 0.301812
v 2.339806 0.802275 -0.301812
v 2.674393 0.225983 -0.301812
v -2.339806 0.802276 0.301812
v -2.674393 0.225985 0.301812
v -2.339806 0.802276 -0.301812
v -2.674393 0.225985 -0.301812
v -1.901875 0.582786 -0.301812
v -1.444089 0.410746 -0.301812
v -0.971865 0.285149 -0.301812
v -0.489286 0.206063 -0.301812
v 0.000001 0.172597 -0.301812
v 0.489289 0.206064 -0.301812
v 0.971867 0.285149 -0.301812
v 1.444090 0.410747 -0.301812
v 1.901874 0.582784 -0.301812
v 2.173896 -0.025545 -0.301812
v 1.650325 -0.222916 -0.301812
v 1.110063 -0.366742 -0.301812
v 0.558342 -0.456728 -0.301812
v 0.000001 -0.493782 -0.301812
v -0.558340 -0.456728 -0.301812
v -1.110062 -0.366743 -0.301812
v -1.650324 -0.222916 -0.301812
v -2.173898 -0.025544 -0.301812
v 1.901874 0.582784 0.301812
v 1.444090 0.410747 0.301812
v 0.971867 0.285149 0.301812
v 0.489289 0.206064 0.301812
v 0.000001 0.172597 0.301812
v -0.489287 0.206063 0.301812
v -0.971865 0.285149 0.301812
v -1.444089 0.410746 0.301812
v -1.901875 0.582786 0.301812
v -2.173898 -0.025544 0.301812
v -1.650324 -0.222916 0.301812
v -1.110062 -0.366743 0.301812
v -0.558340 -0.456728 0.301812
v 0.000001 -0.493782 0.301812
v 0.558342 -0.456728 0.301812
v 1.110063 -0.366742 0.301812
v 1.650325 -0.222916 0.301812
v 2.173896 -0.025545 0.301812
vn 0.8648 0.5021 -0.0000
vn -0.0000 -0.0000 -1.0000
vn -0.8648 0.5021 -0.0000
vn -0.0000 -0.0000 1.0000
vn 0.4481 0.8940 -0.0000
vn 0.4490 -0.8935 -0.0000
vn -0.4490 -0.8935 -0.0000
vn -0.3527 -0.9357 -0.0000
vn -0.2573 -0.9663 -0.0000
vn -0.1610 -0.9870 -0.0000
vn -0.0662 -0.9978 -0.0000
vn 0.0662 -0.9978 -0.0000
vn 0.1610 -0.9870 -0.0000
vn 0.2573 -0.9663 -0.0000
vn 0.3527 -0.9357 -0.0000
vn -0.4481 0.8940 -0.0000
vn -0.3518 0.9361 -0.0000
vn -0.2570 0.9664 -0.0000
vn -0.1617 0.9868 -0.0000
vn -0.0682 0.9977 -0.0000
vn 0.0682 0.9977 -0.0000
vn 0.1617 0.9868 -0.0000
vn 0.2570 0.9664 -0.0000
vn 0.3518 0.9361 -0.0000
vt 0.906520 0.237871
vt 1.000000 0.500224
vt 0.906520 0.500224
vt 0.174784 0.000224
vt 0.093480 -0.262129
vt 0.174784 -0.262129
vt 0.000000 0.500224
vt 0.093480 0.237871
vt 0.093480 0.500224
vt 0.825216 0.237871
vt 0.825216 0.500224
vt 0.093480 0.737871
vt 0.174784 0.500224
vt 0.174784 0.737871
vt 0.906520 0.000224
vt 0.825216 0.000224
vt 0.093480 0.000224
vt 0.256088 0.000224
vt 0.174784 0.237871
vt 0.337392 0.237871
vt 0.256088 0.237871
vt 0.418696 0.000224
vt 0.337392 0.000224
vt 0.500000 0.000224
vt 0.418696 0.237871
vt 0.581304 0.000224
vt 0.500000 0.237871
vt 0.662608 0.000224
vt 0.581304 0.237871
vt 0.743912 0.000224
vt 0.662608 0.237871
vt 0.743912 0.237871
vt 0.825216 0.737871
vt 0.906520 0.737871
vt 0.743912 0.737871
vt 0.662608 0.737871
vt 0.743912 0.500224
vt 0.581304 0.737871
vt 0.662608 0.500224
vt 0.500000 0.737871
vt 0.581304 0.500224
vt 0.418696 0.737871
vt 0.500000 0.500224
vt 0.337392 0.737871
vt 0.418696 0.500224
vt 0.256088 0.737871
vt 0.337392 0.500224
vt 0.256088 0.500224
vt 0.906520 -0.262129
vt 0.825216 -0.262129
vt 0.743912 -0.262129
vt 0.662608 -0.262129
vt 0.581304 -0.262129
vt 0.500000 -0.262129
vt 0.418696 -0.262129
vt 0.337392 -0.262129
vt 0.256088 -0.262129
vt 1.000000 0.237871
vt 0.000000 0.237871
s 0
usemtl Material.007
f 2/1/1 3/2/1 1/3/1
f 26/4/2 7/5/2 9/6/2
f 7/7/3 6/8/3 5/9/3
f 44/10/4 1/3/4 27/11/4
f 7/12/5 35/13/5 9/14/5
f 4/15/6 44/10/6 18/16/6
f 26/4/7 6/8/7 8/17/7
f 25/18/8 36/19/8 26/4/8
f 25/18/9 38/20/9 37/21/9
f 23/22/10 38/20/10 24/23/10
f 22/24/11 39/25/11 23/22/11
f 21/26/12 40/27/12 22/24/12
f 20/28/13 41/29/13 21/26/13
f 19/30/14 42/31/14 20/28/14
f 18/16/15 43/32/15 19/30/15
f 17/33/16 1/3/16 3/34/16
f 16/35/17 27/11/17 17/33/17
f 15/36/18 28/37/18 16/35/18
f 14/38/19 29/39/19 15/36/19
f 13/40/20 30/41/20 14/38/20
f 12/42/21 31/43/21 13/40/21
f 11/44/22 32/45/22 12/42/22
f 10/46/23 33/47/23 11/44/23
f 9/14/24 34/48/24 10/46/24
f 5/9/4 36/19/4 35/13/4
f 35/13/4 37/21/4 34/48/4
f 34/48/4 38/20/4 33/47/4
f 38/20/4 32/45/4 33/47/4
f 39/25/4 31/43/4 32/45/4
f 31/43/4 41/29/4 30/41/4
f 30/41/4 42/31/4 29/39/4
f 42/31/4 28/37/4 29/39/4
f 43/32/4 27/11/4 28/37/4
f 3/49/2 18/16/2 17/50/2
f 17/50/2 19/30/2 16/51/2
f 16/51/2 20/28/2 15/52/2
f 20/28/2 14/53/2 15/52/2
f 21/26/2 13/54/2 14/53/2
f 13/54/2 23/22/2 12/55/2
f 12/55/2 24/23/2 11/56/2
f 24/23/2 10/57/2 11/56/2
f 25/18/2 9/6/2 10/57/2
f 2/1/1 4/58/1 3/2/1
f 26/4/2 8/17/2 7/5/2
f 7/7/3 8/59/3 6/8/3
f 44/10/4 2/1/4 1/3/4
f 7/12/5 5/9/5 35/13/5
f 4/15/6 2/1/6 44/10/6
f 26/4/7 36/19/7 6/8/7
f 25/18/8 37/21/8 36/19/8
f 25/18/9 24/23/9 38/20/9
f 23/22/10 39/25/10 38/20/10
f 22/24/11 40/27/11 39/25/11
f 21/26/12 41/29/12 40/27/12
f 20/28/13 42/31/13 41/29/13
f 19/30/14 43/32/14 42/31/14
f 18/16/15 44/10/15 43/32/15
f 17/33/16 27/11/16 1/3/16
f 16/35/17 28/37/17 27/11/17
f 15/36/18 29/39/18 28/37/18
f 14/38/19 30/41/19 29/39/19
f 13/40/20 31/43/20 30/41/20
f 12/42/21 32/45/21 31/43/21
f 11/44/22 33/47/22 32/45/22
f 10/46/23 34/48/23 33/47/23
f 9/14/24 35/13/24 34/48/24
f 5/9/4 6/8/4 36/19/4
f 35/13/4 36/19/4 37/21/4
f 34/48/4 37/21/4 38/20/4
f 38/20/4 39/25/4 32/45/4
f 39/25/4 40/27/4 31/43/4
f 31/43/4 40/27/4 41/29/4
f 30/41/4 41/29/4 42/31/4
f 42/31/4 43/32/4 28/37/4
f 43/32/4 44/10/4 27/11/4
f 3/49/2 4/15/2 18/16/2
f 17/50/2 18/16/2 19/30/2
f 16/51/2 19/30/2 20/28/2
f 20/28/2 21/26/2 14/53/2
f 21/26/2 22/24/2 13/54/2
f 13/54/2 22/24/2 23/22/2
f 12/55/2 23/22/2 24/23/2
f 24/23/2 25/18/2 10/57/2
f 25/18/2 26/4/2 9/6/2
