# Blender 4.4.1
# www.blender.org
mtllib middle2.mtl
o middle.002
v 1.923235 0.593587 0.301812
v 1.923235 0.593587 -0.301812
v 2.198391 -0.013332 0.301812
v 1.554669 0.449234 0.301812
v 1.177987 0.326823 0.301812
v 1.554669 0.449234 -0.301812
v 1.776883 -0.179004 0.301812
v 1.345592 -0.318134 0.301812
v 1.776883 -0.179004 -0.301812
v 2.198391 -0.013332 -0.301812
v 1.345592 -0.318134 -0.301812
v 0.901220 -0.409259 -0.301812
v 1.177987 0.326823 -0.301812
v 0.789325 0.247658 -0.301812
v 0.396194 0.199974 -0.301812
v 0.789325 0.247658 0.301812
v 0.396194 0.199973 0.301812
v 0.901220 -0.409259 0.301812
v 0.452146 -0.464052 0.301812
v 0.000001 -0.493782 0.301812
v 0.452146 -0.464052 -0.301812
v 0.000001 -0.493782 -0.301812
v -0.452145 -0.464052 -0.301812
v 0.000001 0.172597 -0.301812
v -0.396193 0.199973 -0.301812
v 0.000001 0.172597 0.301812
v -0.396193 0.199973 0.301812
v -0.789324 0.247657 0.301812
v -0.452145 -0.464052 0.301812
v -0.901219 -0.409259 0.301812
v -1.345590 -0.318134 0.301812
v -0.901219 -0.409259 -0.301812
v -1.345590 -0.318134 -0.301812
v -0.789323 0.247657 -0.301812
v -1.177986 0.326823 -0.301812
v -1.554667 0.449233 -0.301812
v -1.177986 0.326823 0.301812
v -1.554667 0.449233 0.301812
v -1.923235 0.593587 0.301812
v -1.776881 -0.179005 0.301812
v -2.198391 -0.013331 0.301812
v -1.776881 -0.179005 -0.301812
v -2.198391 -0.013331 -0.301812
v -1.923235 0.593587 -0.301812
vn -0.3647 0.9311 -0.0000
vn 0.9108 0.4129 -0.0000
vn -0.0000 -0.0000 1.0000
vn -0.3091 0.9510 -0.0000
vn 0.3658 -0.9307 -0.0000
vn 0.3070 -0.9517 -0.0000
vn -0.0000 -0.0000 -1.0000
vn 0.2009 -0.9796 -0.0000
vn -0.1996 0.9799 -0.0000
vn -0.1204 0.9927 -0.0000
vn 0.1211 -0.9926 -0.0000
vn 0.0656 -0.9978 -0.0000
vn -0.0656 -0.9978 -0.0000
vn 0.0689 0.9976 -0.0000
vn -0.0689 0.9976 -0.0000
vn 0.1204 0.9927 -0.0000
vn -0.1211 -0.9926 -0.0000
vn -0.2009 -0.9796 -0.0000
vn 0.1996 0.9799 -0.0000
vn 0.3091 0.9510 -0.0000
vn 0.3647 0.9311 -0.0000
vn -0.3658 -0.9307 -0.0000
vn -0.3070 -0.9517 -0.0000
vn -0.9108 0.4129 -0.0000
vt 0.825216 0.737871
vt 0.906520 0.500224
vt 0.906520 0.737871
vt 0.906520 0.237871
vt 1.000000 0.500224
vt 0.825216 0.237871
vt 0.825216 0.500224
vt 0.743912 0.500224
vt 0.743912 0.737871
vt 0.906520 0.000224
vt 0.825216 0.000224
vt 0.743912 0.000224
vt 0.743912 0.237871
vt 0.906520 -0.262129
vt 0.825216 -0.262129
vt 0.743912 -0.262129
vt 0.662608 0.000224
vt 0.662608 -0.262129
vt 0.662608 0.237871
vt 0.662608 0.737871
vt 0.581304 0.000224
vt 0.581304 -0.262129
vt 0.581304 0.737871
vt 0.662608 0.500224
vt 0.581304 0.237871
vt 0.581304 0.500224
vt 0.500000 0.500224
vt 0.500000 0.237871
vt 0.500000 0.000224
vt 0.500000 -0.262129
vt 0.418696 0.000224
vt 0.418696 -0.262129
vt 0.418696 0.237871
vt 0.418696 0.737871
vt 0.500000 0.737871
vt 0.418696 0.500224
vt 0.337392 0.500224
vt 0.337392 0.737871
vt 0.337392 0.237871
vt 0.337392 0.000224
vt 0.256088 0.500224
vt 0.256088 0.237871
vt 0.256088 0.000224
vt 0.337392 -0.262129
vt 0.256088 -0.262129
vt 0.256088 0.737871
vt 0.174784 0.000224
vt 0.174784 -0.262129
vt 0.174784 0.737871
vt 0.174784 0.237871
vt 0.174784 0.500224
vt 0.093480 0.500224
vt 0.093480 0.737871
vt 0.093480 0.000224
vt 0.093480 0.237871
vt 0.093480 -0.262129
vt 0.000000 0.237871
vt 0.000000 0.500224
vt 1.000000 0.237871
s 0
usemtl Material.007
f 6/1/1 1/2/1 2/3/1
f 3/4/2 2/5/2 1/2/2
f 7/6/3 1/2/3 4/7/3
f 5/8/3 7/6/3 4/7/3
f 13/9/4 4/7/4 6/1/4
f 10/10/5 7/6/5 9/11/5
f 11/12/6 7/6/6 8/13/6
f 2/14/7 9/11/7 6/15/7
f 9/11/7 13/16/7 6/15/7
f 13/16/7 12/17/7 14/18/7
f 11/12/8 18/19/8 12/17/8
f 14/20/9 5/8/9 13/9/9
f 14/18/7 21/21/7 15/22/7
f 15/23/10 16/24/10 14/20/10
f 18/19/3 5/8/3 16/24/3
f 19/25/3 16/24/3 17/26/3
f 12/17/11 19/25/11 21/21/11
f 26/27/3 19/25/3 17/26/3
f 21/21/12 20/28/12 22/29/12
f 21/21/7 24/30/7 15/22/7
f 24/30/7 23/31/7 25/32/7
f 22/29/13 29/33/13 23/31/13
f 25/34/14 26/27/14 24/35/14
f 24/35/15 17/26/15 15/23/15
f 29/33/3 26/27/3 27/36/3
f 28/37/3 29/33/3 27/36/3
f 34/38/16 27/36/16 25/34/16
f 23/31/17 30/39/17 32/40/17
f 37/41/3 30/39/3 28/37/3
f 32/40/18 31/42/18 33/43/18
f 23/31/7 34/44/7 25/32/7
f 32/40/7 35/45/7 34/44/7
f 35/46/19 28/37/19 34/38/19
f 35/45/7 42/47/7 36/48/7
f 36/49/20 37/41/20 35/46/20
f 40/50/3 37/41/3 38/51/3
f 39/52/3 40/50/3 38/51/3
f 44/53/21 38/51/21 36/49/21
f 43/54/22 40/50/22 41/55/22
f 33/43/23 40/50/23 42/47/23
f 42/47/7 44/56/7 36/48/7
f 43/57/24 39/52/24 44/58/24
f 6/1/1 4/7/1 1/2/1
f 3/4/2 10/59/2 2/5/2
f 7/6/3 3/4/3 1/2/3
f 5/8/3 8/13/3 7/6/3
f 13/9/4 5/8/4 4/7/4
f 10/10/5 3/4/5 7/6/5
f 11/12/6 9/11/6 7/6/6
f 2/14/7 10/10/7 9/11/7
f 9/11/7 11/12/7 13/16/7
f 13/16/7 11/12/7 12/17/7
f 11/12/8 8/13/8 18/19/8
f 14/20/9 16/24/9 5/8/9
f 14/18/7 12/17/7 21/21/7
f 15/23/10 17/26/10 16/24/10
f 18/19/3 8/13/3 5/8/3
f 19/25/3 18/19/3 16/24/3
f 12/17/11 18/19/11 19/25/11
f 26/27/3 20/28/3 19/25/3
f 21/21/12 19/25/12 20/28/12
f 21/21/7 22/29/7 24/30/7
f 24/30/7 22/29/7 23/31/7
f 22/29/13 20/28/13 29/33/13
f 25/34/14 27/36/14 26/27/14
f 24/35/15 26/27/15 17/26/15
f 29/33/3 20/28/3 26/27/3
f 28/37/3 30/39/3 29/33/3
f 34/38/16 28/37/16 27/36/16
f 23/31/17 29/33/17 30/39/17
f 37/41/3 31/42/3 30/39/3
f 32/40/18 30/39/18 31/42/18
f 23/31/7 32/40/7 34/44/7
f 32/40/7 33/43/7 35/45/7
f 35/46/19 37/41/19 28/37/19
f 35/45/7 33/43/7 42/47/7
f 36/49/20 38/51/20 37/41/20
f 40/50/3 31/42/3 37/41/3
f 39/52/3 41/55/3 40/50/3
f 44/53/21 39/52/21 38/51/21
f 43/54/22 42/47/22 40/50/22
f 33/43/23 31/42/23 40/50/23
f 42/47/7 43/54/7 44/56/7
f 43/57/24 41/55/24 39/52/24
