# Blender 4.4.3
# www.blender.org
mtllib enemy.mtl
o Icosphere
v 0.000000 -0.500000 0.000000
v -0.361804 -0.223610 -0.262863
v 0.138194 -0.223610 -0.425325
v 0.447213 -0.223608 0.000000
v 0.139241 -0.240840 0.444956
v -0.359208 -0.242601 0.286782
v -0.138194 0.223610 -0.425325
v 0.361804 0.223610 -0.262863
v 0.361804 0.223610 0.262863
v -0.138194 0.223610 0.425325
v -0.447213 0.223608 0.000000
v 0.000000 0.500000 0.000000
v 0.081228 -0.425327 -0.249998
v -0.212661 -0.425327 -0.154506
v -0.131434 -0.262869 -0.404506
v -0.425324 -0.262868 0.000000
v -0.212661 -0.425327 0.154506
v 0.262865 -0.425326 0.000000
v 0.344095 -0.262868 -0.249998
v 0.081228 -0.425327 0.249998
v 0.343124 -0.280237 0.274284
v -0.132798 -0.280850 0.425110
v -0.475529 0.000000 -0.154506
v -0.460498 -0.041784 0.188962
v 0.000000 0.000000 -0.500000
v -0.293893 0.000000 -0.404508
v 0.475529 0.000000 -0.154506
v 0.293893 0.000000 -0.404508
v 0.293893 -0.042659 0.522642
v 0.461083 -0.041663 0.186856
v -0.293893 -0.042659 0.522642
v 0.000119 -0.041763 0.514562
v -0.344095 0.262868 -0.249998
v 0.131434 0.262869 -0.404506
v 0.425324 0.262868 0.000000
v 0.131434 0.262869 0.404506
v -0.344095 0.262868 0.249998
v -0.081228 0.425327 -0.249998
v -0.262865 0.425326 0.000000
v 0.212661 0.425327 -0.154506
v 0.212661 0.425327 0.154506
v -0.081228 0.425327 0.249998
v 0.344095 -0.305528 0.368132
v 0.138194 -0.266269 0.543458
v -0.131434 -0.305528 0.522640
v -0.361804 -0.266269 0.380996
v -0.475529 -0.042659 0.272640
v -0.292904 -0.041763 0.419353
v 0.000000 -0.042659 0.618134
v 0.292712 -0.041763 0.419493
v 0.475529 -0.042659 0.272640
v -0.255962 0.082946 0.380881
v -0.347811 0.153112 0.314149
v -0.220879 0.153112 0.272906
v -0.142430 0.153112 0.380881
v -0.220879 0.153112 0.488856
v -0.347811 0.153112 0.447612
v -0.291044 0.266645 0.272906
v -0.164112 0.266645 0.314149
v -0.164112 0.266645 0.447612
v -0.291044 0.266645 0.488856
v -0.369493 0.266644 0.380881
v -0.255962 0.336811 0.380881
v -0.235341 0.101903 0.317415
v -0.309949 0.101903 0.341657
v -0.289328 0.143145 0.278191
v -0.363936 0.143145 0.380881
v -0.309949 0.101903 0.420104
v -0.189230 0.101903 0.380881
v -0.168608 0.143145 0.317415
v -0.235341 0.101903 0.444346
v -0.168608 0.143145 0.444346
v -0.289328 0.143145 0.483570
v -0.376682 0.209878 0.341657
v -0.376682 0.209878 0.420104
v -0.255962 0.209878 0.253948
v -0.330571 0.209878 0.278190
v -0.135242 0.209878 0.341657
v -0.181353 0.209878 0.278190
v -0.181353 0.209878 0.483571
v -0.135242 0.209878 0.420104
v -0.330571 0.209878 0.483571
v -0.255962 0.209878 0.507813
v -0.343315 0.276611 0.317415
v -0.222595 0.276611 0.278191
v -0.147987 0.276611 0.380881
v -0.222595 0.276611 0.483570
v -0.343315 0.276611 0.444346
v -0.276583 0.317854 0.317415
v -0.322694 0.317854 0.380881
v -0.201974 0.317854 0.341657
v -0.201974 0.317854 0.420104
v -0.276583 0.317854 0.444346
v 0.217424 0.089630 0.380881
v 0.125574 0.159796 0.314149
v 0.252506 0.159796 0.272906
v 0.330955 0.159797 0.380881
v 0.252506 0.159796 0.488856
v 0.125574 0.159796 0.447612
v 0.182341 0.273329 0.272906
v 0.309273 0.273329 0.314149
v 0.309273 0.273329 0.447612
v 0.182341 0.273329 0.488856
v 0.103892 0.273329 0.380881
v 0.217424 0.343495 0.380881
v 0.238045 0.108587 0.317415
v 0.163436 0.108587 0.341657
v 0.184057 0.149830 0.278191
v 0.109449 0.149830 0.380881
v 0.163436 0.108587 0.420104
v 0.284156 0.108588 0.380881
v 0.304777 0.149830 0.317415
v 0.238045 0.108587 0.444346
v 0.304777 0.149830 0.444346
v 0.184057 0.149830 0.483570
v 0.096704 0.216563 0.341657
v 0.096704 0.216563 0.420104
v 0.217424 0.216563 0.253948
v 0.142815 0.216563 0.278190
v 0.338144 0.216563 0.341657
v 0.292033 0.216563 0.278190
v 0.292033 0.216563 0.483571
v 0.338144 0.216563 0.420104
v 0.142815 0.216563 0.483571
v 0.217424 0.216563 0.507813
v 0.130070 0.283296 0.317415
v 0.250790 0.283296 0.278191
v 0.325398 0.283296 0.380881
v 0.250790 0.283296 0.483570
v 0.130070 0.283296 0.444346
v 0.196803 0.324538 0.317415
v 0.150692 0.324538 0.380881
v 0.271411 0.324538 0.341657
v 0.271411 0.324538 0.420104
v 0.196803 0.324538 0.444346
vn -0.0000 -1.0000 -0.0000
vn -0.7236 -0.4472 -0.5257
vn 0.2764 -0.4472 -0.8506
vn 0.8938 -0.4427 -0.0721
vn 0.3136 0.5042 0.8046
vn 0.0955 0.5732 0.8138
vn -0.2764 0.4472 -0.8506
vn 0.7236 0.4472 -0.5257
vn 0.7030 0.5355 0.4681
vn -0.2583 0.5986 0.7583
vn -0.8933 0.4492 -0.0106
vn -0.0000 1.0000 -0.0000
vn 0.1625 -0.8507 -0.5000
vn -0.4253 -0.8507 -0.3090
vn -0.2629 -0.5257 -0.8090
vn -0.8443 -0.5326 -0.0599
vn -0.3927 -0.9018 0.1805
vn 0.5067 -0.8606 -0.0508
vn 0.6882 -0.5257 -0.5000
vn 0.1172 -0.9395 0.3220
vn -0.0355 0.5939 0.8038
vn -0.2320 0.5897 0.7736
vn -0.9507 0.0021 -0.3100
vn 0.3263 -0.3483 0.8788
vn -0.0000 -0.0000 -1.0000
vn -0.5878 -0.0000 -0.8090
vn 0.9515 0.0020 -0.3077
vn 0.5878 -0.0000 -0.8090
vn 0.4985 -0.4563 0.7371
vn -0.3417 -0.3767 0.8610
vn -0.5023 -0.4553 0.7351
vn -0.0084 -0.8471 0.5314
vn -0.6882 0.5257 -0.5000
vn 0.2629 0.5257 -0.8090
vn 0.8505 0.5260 -0.0049
vn 0.2450 0.6400 0.7283
vn -0.6638 0.5925 0.4565
vn -0.1625 0.8507 -0.5000
vn -0.5257 0.8507 -0.0000
vn 0.4253 0.8507 -0.3090
vn 0.4253 0.8507 0.3090
vn -0.1625 0.8507 0.5000
vn 0.7494 -0.1129 0.6524
vn 0.2535 0.1610 0.9538
vn -0.3096 -0.0037 0.9509
vn -0.6549 0.0914 0.7502
vn -0.8256 -0.3496 0.4430
vn -0.3038 -0.8477 0.4350
vn 0.0002 -0.4334 0.9012
vn 0.3175 -0.8481 0.4241
vn 0.8230 -0.3660 0.4344
vn 0.8944 -0.4472 -0.0000
vn 0.2764 -0.4472 0.8506
vn -0.7236 -0.4472 0.5257
vn 0.7236 0.4472 0.5257
vn -0.2764 0.4472 0.8506
vn -0.8944 0.4472 -0.0000
vn -0.8506 -0.5257 -0.0000
vn -0.4253 -0.8507 0.3090
vn 0.5257 -0.8507 -0.0000
vn 0.1625 -0.8507 0.5000
vn 0.6882 -0.5257 0.5000
vn -0.2629 -0.5257 0.8090
vn -0.9511 -0.0000 -0.3090
vn -0.9511 -0.0000 0.3090
vn 0.9511 -0.0000 -0.3090
vn 0.5878 -0.0000 0.8090
vn 0.9511 -0.0000 0.3090
vn -0.5878 -0.0000 0.8090
vn -0.0000 -0.0000 1.0000
vn 0.8506 0.5257 -0.0000
vn 0.2629 0.5257 0.8090
vn -0.6882 0.5257 0.5000
vt 0.338776 0.159046
vt 0.404933 0.182960
vt 0.330860 0.229739
vt 0.134149 0.319044
vt 0.198658 0.348671
vt 0.141450 0.394250
vt 0.264442 0.174708
vt 0.297467 0.093918
vt 0.384295 0.099018
vt 0.065569 0.350430
vt 0.999722 0.077539
vt 1.000000 0.154305
vt 0.943055 0.111516
vt 0.246232 0.406709
vt 0.207558 0.349201
vt 0.276166 0.337704
vt 0.891513 0.579329
vt 0.900195 0.634774
vt 0.844271 0.576980
vt 0.937046 0.604029
vt 0.900195 0.627763
vt 0.900195 0.552248
vt 0.075881 0.277768
vt 0.943055 0.027278
vt 0.326311 0.448550
vt 0.835872 0.542302
vt 0.963741 0.542302
vt 0.872392 0.143313
vt 0.839255 0.197729
vt 0.804061 0.119223
vt 0.872392 -0.000000
vt 0.868212 0.065940
vt 0.804061 0.034986
vt 0.395166 0.406707
vt 0.363707 0.337703
vt 0.436743 0.349198
vt 0.144591 0.193007
vt 0.067673 0.202187
vt 0.108429 0.132902
vt 0.207558 0.061617
vt 0.189672 0.129982
vt 0.145440 0.055674
vt 0.069339 0.066586
vt 0.023441 0.127878
vt -0.000000 0.184460
vt 0.007926 0.047546
vt 0.393095 0.273364
vt 0.320907 0.277689
vt 0.083325 0.002921
vt 0.164568 -0.000000
vt 0.077420 0.471563
vt 0.000000 0.463208
vt 0.005053 0.393474
vt 0.087733 0.540592
vt 0.207558 0.232056
vt 0.132158 0.276681
vt 0.047169 0.271658
vt 0.925158 0.192966
vt 0.000000 0.321518
vt 0.900421 0.491241
vt 0.890986 0.450941
vt 0.927236 0.408771
vt 0.898574 0.373267
vt 0.372221 0.506916
vt 0.835872 0.645550
vt 0.284680 0.506917
vt 0.251450 0.273364
vt 1.000000 0.018005
vt 0.158135 0.276681
vt 0.146001 0.501588
vt 0.333660 0.000000
vt 0.404933 0.020576
vt 0.257212 0.011899
vt 0.213807 0.075691
vt 0.207558 0.179739
vt 0.253732 0.241903
vt 0.320556 0.273364
vt 0.198658 0.436239
vt 0.394224 0.250154
vt 0.864488 0.748959
vt 0.878329 0.694730
vt 0.905733 0.695468
vt 0.865419 0.827094
vt 0.878396 0.891584
vt 0.837105 0.826172
vt 0.835838 0.748727
vt 0.406231 0.574160
vt 0.428421 0.515872
vt 0.428239 0.590728
vt 0.859227 0.542302
vt 0.835872 0.537691
vt 0.929641 0.325749
vt 0.956164 0.409246
vt 0.929269 0.491962
vt 0.900830 0.325643
vt 0.859829 0.273364
vt 0.427876 0.655917
vt 0.406231 0.601534
vt 0.427876 0.590728
vt 0.058547 0.668481
vt 0.134577 0.683429
vt 0.072855 0.739507
vt 0.200455 0.688502
vt 0.183316 0.614724
vt 0.000036 0.693692
vt 0.016754 0.609298
vt 0.099905 0.602956
vt 0.500861 0.692017
vt 0.436743 0.661291
vt 0.493305 0.617477
vt 0.693935 0.822620
vt 0.635417 0.847815
vt 0.652157 0.763424
vt 0.835838 0.842679
vt 0.769962 0.837589
vt 0.818720 0.768895
vt 0.598158 0.114705
vt 0.537382 0.158518
vt 0.537382 0.070891
vt 0.576465 0.931871
vt 0.500494 0.942891
vt 0.534890 0.880518
vt 0.569192 0.661290
vt 0.735311 0.757104
vt 0.469051 0.189244
vt 0.404933 0.158517
vt 0.461495 0.114705
vt 0.603607 0.043814
vt 0.618299 0.868727
vt 0.629968 0.617476
vt 0.569193 0.573663
vt 0.635417 0.546585
vt 0.776883 0.473047
vt 0.700909 0.484047
vt 0.735322 0.421683
vt 0.835872 0.336137
vt 0.818733 0.409915
vt 0.769994 0.341210
vt 0.493514 0.815001
vt 0.434996 0.789807
vt 0.507803 0.743971
vt 0.635417 0.794943
vt 0.569541 0.800033
vt 0.591212 0.732181
vt 0.635453 0.330947
vt 0.708272 0.285132
vt 0.693964 0.356158
vt 0.791684 0.273364
vt 0.652171 0.415341
vt 0.635417 0.462257
vt 0.559530 0.502773
vt 0.500862 0.542938
vt 0.451736 0.874197
vt 0.527719 0.000000
vt 0.469050 0.040165
vt 0.404933 0.070891
vt 0.835872 0.465006
vt 0.700915 0.694730
vt 0.776886 0.705751
vt 0.635417 0.716503
vt 0.434996 0.921119
vt 0.635417 0.688368
vt 0.559529 0.732181
vt 0.436744 0.573664
vt 0.141466 0.551592
vt 0.200455 0.559633
vt 0.065492 0.540592
vt -0.000000 0.562382
vt 0.603607 0.185596
vt 0.527720 0.229409
vt 0.791633 0.905440
vt 0.708224 0.893650
vt 0.156267 0.751275
vt 0.662154 0.127890
vt 0.738184 0.142837
vt 0.676462 0.198915
vt 0.804062 0.147910
vt 0.786923 0.074132
vt 0.603642 0.153100
vt 0.620360 0.068706
vt 0.703511 0.062364
vt 0.271675 0.696161
vt 0.207558 0.665435
vt 0.264120 0.621621
vt 0.266075 0.864215
vt 0.207558 0.889410
vt 0.224298 0.805019
vt 0.407979 0.884274
vt 0.342103 0.879184
vt 0.390860 0.810490
vt 0.629968 0.388069
vt 0.569193 0.431882
vt 0.569192 0.344255
vt 0.141469 0.950965
vt 0.065498 0.961985
vt 0.099894 0.899611
vt 0.340007 0.665434
vt 0.307451 0.798699
vt 0.500862 0.462608
vt 0.436744 0.431881
vt 0.493305 0.388068
vt 0.635417 0.317177
vt 0.183303 0.887821
vt 0.400783 0.621620
vt 0.340007 0.577807
vt 0.406231 0.550729
vt 0.776883 0.683730
vt 0.700909 0.694730
vt 0.735322 0.632366
vt 0.835872 0.546820
vt 0.818733 0.620599
vt 0.769994 0.551893
vt 0.058518 0.834095
vt 0.000000 0.808900
vt 0.072807 0.763065
vt 0.200421 0.814037
vt 0.134545 0.819127
vt 0.156216 0.751275
vt 0.635453 0.541631
vt 0.708272 0.495815
vt 0.693964 0.566841
vt 0.791684 0.484047
vt 0.652171 0.626024
vt 0.635417 0.672941
vt 0.330345 0.506917
vt 0.271676 0.547081
vt 0.016740 0.893291
vt 0.559529 0.273364
vt 0.500861 0.313529
vt 0.436743 0.344254
vt 0.835872 0.675689
vt 0.273056 0.736325
vt 0.349027 0.747346
vt 0.207558 0.758098
vt 0.000000 0.940213
vt 0.406231 0.692512
vt 0.330344 0.736325
vt 0.207558 0.577808
vt 0.745073 0.011000
vt 0.804062 0.019041
vt 0.669099 -0.000000
vt 0.603607 0.021790
vt 0.635417 0.458960
vt 0.559530 0.502773
vt 0.363774 0.947035
vt 0.280365 0.935245
vt 0.759873 0.210683
vt 0.905733 0.891380
vt 0.406231 0.506917
vt 0.835872 0.277077
vt 0.406402 0.673194
s 1
usemtl Material
f 1/1/1 14/2/14 13/3/13
f 2/4/2 14/5/14 16/6/16
f 1/1/1 13/3/13 18/7/18
f 1/1/1 18/7/18 20/8/20
f 1/1/1 20/8/20 17/9/17
f 2/4/2 16/6/16 23/10/23
f 3/11/3 15/12/15 25/13/25
f 4/14/4 19/15/19 27/16/27
f 5/17/5 21/18/21 50/19/50
f 6/20/6 22/21/22 48/22/48
f 2/4/2 23/10/23 26/23/26
f 3/11/3 25/13/25 28/24/28
f 4/14/4 27/16/27 51/25/51
f 5/17/5 50/19/50 32/26/32
f 6/20/6 48/22/48 24/27/24
f 7/28/7 33/29/33 38/30/38
f 8/31/8 34/32/34 40/33/40
f 9/34/9 35/35/35 41/36/41
f 10/37/10 36/38/36 42/39/42
f 11/40/11 37/41/37 39/42/39
f 39/42/39 42/39/42 12/43/12
f 39/42/39 37/41/37 42/39/42
f 37/41/37 10/37/10 42/39/42
f 42/39/42 41/44/41 12/43/12
f 42/39/42 36/38/36 41/44/41
f 36/38/36 9/45/9 41/44/41
f 41/44/41 40/46/40 12/43/12
f 41/36/41 35/35/35 40/47/40
f 35/35/35 8/48/8 40/47/40
f 40/46/40 38/49/38 12/43/12
f 40/33/40 34/32/34 38/30/38
f 34/32/34 7/28/7 38/30/38
f 38/49/38 39/42/39 12/43/12
f 38/49/38 33/50/33 39/42/39
f 33/50/33 11/40/11 39/42/39
f 47/51/47 37/52/37 11/53/11
f 47/51/47 31/54/31 37/52/37
f 31/55/31 10/37/10 37/41/37
f 49/56/49 36/38/36 10/37/10
f 49/56/49 29/57/29 36/38/36
f 29/57/29 9/45/9 36/38/36
f 51/25/51 35/35/35 9/34/9
f 51/25/51 27/16/27 35/35/35
f 27/16/27 8/48/8 35/35/35
f 28/24/28 34/32/34 8/31/8
f 28/24/28 25/13/25 34/32/34
f 25/13/25 7/28/7 34/32/34
f 26/58/26 33/29/33 7/28/7
f 26/23/26 23/10/23 33/59/33
f 23/10/23 11/53/11 33/59/33
f 31/55/31 49/56/49 10/37/10
f 48/60/48 22/61/22 32/62/32
f 22/61/22 5/63/5 32/62/32
f 29/64/29 51/25/51 9/34/9
f 50/19/50 21/18/21 30/65/30
f 43/66/43 4/14/4 51/25/51
f 27/16/27 28/67/28 8/48/8
f 27/16/27 19/15/19 28/67/28
f 19/68/19 3/11/3 28/24/28
f 25/13/25 26/58/26 7/28/7
f 25/13/25 15/12/15 26/58/26
f 15/69/15 2/4/2 26/23/26
f 23/10/23 47/51/47 11/53/11
f 23/10/23 16/6/16 47/51/47
f 16/6/16 46/70/46 47/51/47
f 17/9/17 45/71/45 46/72/46
f 17/9/17 20/8/20 45/71/45
f 20/8/20 44/73/44 45/71/45
f 20/8/20 43/74/43 44/73/44
f 20/8/20 18/7/18 43/74/43
f 18/7/18 4/75/4 43/74/43
f 18/7/18 19/76/19 4/75/4
f 18/7/18 13/3/13 19/76/19
f 13/3/13 3/77/3 19/76/19
f 16/6/16 17/78/17 46/70/46
f 16/6/16 14/5/14 17/78/17
f 14/2/14 1/1/1 17/9/17
f 13/3/13 15/79/15 3/77/3
f 13/3/13 14/2/14 15/79/15
f 14/5/14 2/4/2 15/69/15
f 5/80/5 43/81/43 21/82/21
f 22/83/22 46/84/46 45/85/45
f 5/80/5 45/85/45 44/86/44
f 6/87/6 47/88/47 46/89/46
f 48/60/48 47/90/47 24/91/24
f 32/62/32 29/92/29 49/93/49
f 32/62/32 31/94/31 48/60/48
f 50/95/50 51/96/51 29/92/29
f 21/97/21 51/98/51 30/99/30
f 5/80/5 44/86/44 43/81/43
f 22/83/22 6/248/6 46/84/46
f 5/80/5 22/83/22 45/85/45
f 6/87/6 24/249/24 47/88/47
f 48/60/48 31/94/31 47/90/47
f 32/62/32 50/95/50 29/92/29
f 32/62/32 49/93/49 31/94/31
f 50/95/50 30/250/30 51/96/51
f 21/97/21 43/251/43 51/98/51
usemtl Material.004
f 52/100/1 65/101/14 64/102/13
f 53/103/2 65/101/14 67/104/58
f 52/100/1 64/102/13 69/105/60
f 52/100/1 69/105/60 71/106/61
f 52/100/1 71/106/61 68/107/59
f 53/108/2 67/109/58 74/110/64
f 54/111/3 66/112/15 76/113/25
f 55/114/52 70/115/19 78/116/66
f 56/117/53 72/118/62 80/119/67
f 57/120/54 73/121/63 82/122/69
f 53/108/2 74/110/64 77/123/26
f 54/111/3 76/113/25 79/124/28
f 55/125/52 78/126/66 81/127/68
f 56/117/53 80/119/67 83/128/70
f 57/120/54 82/122/69 75/129/65
f 58/130/7 84/131/33 89/132/38
f 59/133/8 85/134/34 91/135/40
f 60/136/55 86/137/71 92/138/41
f 61/139/56 87/140/72 93/141/42
f 62/142/57 88/143/73 90/144/39
f 90/145/39 93/146/42 63/147/12
f 90/144/39 88/143/73 93/141/42
f 88/143/73 61/139/56 93/141/42
f 93/146/42 92/138/41 63/147/12
f 93/146/42 87/148/72 92/138/41
f 87/148/72 60/136/55 92/138/41
f 92/138/41 91/135/40 63/147/12
f 92/138/41 86/137/71 91/135/40
f 86/137/71 59/133/8 91/135/40
f 91/135/40 89/149/38 63/147/12
f 91/135/40 85/134/34 89/149/38
f 85/134/34 58/150/7 89/149/38
f 89/149/38 90/145/39 63/147/12
f 89/132/38 84/131/33 90/151/39
f 84/131/33 62/152/57 90/151/39
f 75/129/65 88/143/73 62/142/57
f 75/129/65 82/122/69 88/143/73
f 82/122/69 61/139/56 88/143/73
f 83/153/70 87/140/72 61/139/56
f 83/128/70 80/119/67 87/154/72
f 80/119/67 60/155/55 87/154/72
f 81/127/68 86/156/71 60/155/55
f 81/127/68 78/126/66 86/156/71
f 78/157/66 59/133/8 86/137/71
f 79/124/28 85/158/34 59/159/8
f 79/124/28 76/113/25 85/158/34
f 76/113/25 58/160/7 85/158/34
f 77/123/26 84/131/33 58/130/7
f 77/123/26 74/110/64 84/131/33
f 74/110/64 62/152/57 84/131/33
f 82/122/69 83/153/70 61/139/56
f 82/122/69 73/121/63 83/153/70
f 73/121/63 56/161/53 83/153/70
f 80/119/67 81/127/68 60/155/55
f 80/119/67 72/118/62 81/127/68
f 72/118/62 55/125/52 81/127/68
f 78/116/66 79/124/28 59/159/8
f 78/116/66 70/115/19 79/124/28
f 70/115/19 54/111/3 79/124/28
f 76/162/25 77/123/26 58/130/7
f 76/162/25 66/163/15 77/123/26
f 66/163/15 53/108/2 77/123/26
f 74/110/64 75/164/65 62/152/57
f 74/110/64 67/109/58 75/164/65
f 67/104/58 57/165/54 75/166/65
f 68/107/59 73/167/63 57/165/54
f 68/107/59 71/106/61 73/167/63
f 71/106/61 56/168/53 73/167/63
f 71/169/61 72/118/62 56/117/53
f 71/169/61 69/170/60 72/118/62
f 69/170/60 55/125/52 72/118/62
f 69/171/60 70/115/19 55/114/52
f 69/171/60 64/172/13 70/115/19
f 64/172/13 54/111/3 70/115/19
f 67/104/58 68/107/59 57/165/54
f 67/104/58 65/101/14 68/107/59
f 65/101/14 52/100/1 68/107/59
f 64/172/13 66/112/15 54/111/3
f 64/102/13 65/101/14 66/173/15
f 65/101/14 53/103/2 66/173/15
usemtl Material.003
f 94/174/1 107/175/14 106/176/13
f 95/177/2 107/175/14 109/178/58
f 94/174/1 106/176/13 111/179/60
f 94/174/1 111/179/60 113/180/61
f 94/174/1 113/180/61 110/181/59
f 95/182/2 109/183/58 116/184/64
f 96/185/3 108/186/15 118/187/25
f 97/188/52 112/189/19 120/190/66
f 98/191/53 114/192/62 122/193/67
f 99/194/54 115/195/63 124/196/69
f 95/182/2 116/184/64 119/197/26
f 96/185/3 118/187/25 121/198/28
f 97/199/52 120/200/66 123/201/68
f 98/191/53 122/193/67 125/202/70
f 99/194/54 124/196/69 117/203/65
f 100/204/7 126/205/33 131/206/38
f 101/207/8 127/208/34 133/209/40
f 102/210/55 128/211/71 134/212/41
f 103/213/56 129/214/72 135/215/42
f 104/216/57 130/217/73 132/218/39
f 132/219/39 135/220/42 105/221/12
f 132/218/39 130/217/73 135/215/42
f 130/217/73 103/213/56 135/215/42
f 135/220/42 134/212/41 105/221/12
f 135/220/42 129/222/72 134/212/41
f 129/222/72 102/210/55 134/212/41
f 134/212/41 133/209/40 105/221/12
f 134/212/41 128/211/71 133/209/40
f 128/211/71 101/207/8 133/209/40
f 133/209/40 131/223/38 105/221/12
f 133/209/40 127/208/34 131/223/38
f 127/208/34 100/224/7 131/223/38
f 131/223/38 132/219/39 105/221/12
f 131/206/38 126/205/33 132/225/39
f 126/205/33 104/226/57 132/225/39
f 117/203/65 130/217/73 104/216/57
f 117/203/65 124/196/69 130/217/73
f 124/196/69 103/213/56 130/217/73
f 125/227/70 129/214/72 103/213/56
f 125/202/70 122/193/67 129/228/72
f 122/193/67 102/229/55 129/228/72
f 123/201/68 128/230/71 102/229/55
f 123/201/68 120/200/66 128/230/71
f 120/231/66 101/207/8 128/211/71
f 121/198/28 127/232/34 101/233/8
f 121/198/28 118/187/25 127/232/34
f 118/187/25 100/234/7 127/232/34
f 119/197/26 126/205/33 100/204/7
f 119/197/26 116/184/64 126/205/33
f 116/184/64 104/226/57 126/205/33
f 124/196/69 125/227/70 103/213/56
f 124/196/69 115/195/63 125/227/70
f 115/195/63 98/235/53 125/227/70
f 122/193/67 123/201/68 102/229/55
f 122/193/67 114/192/62 123/201/68
f 114/192/62 97/199/52 123/201/68
f 120/190/66 121/198/28 101/233/8
f 120/190/66 112/189/19 121/198/28
f 112/189/19 96/185/3 121/198/28
f 118/236/25 119/197/26 100/204/7
f 118/236/25 108/237/15 119/197/26
f 108/237/15 95/182/2 119/197/26
f 116/184/64 117/238/65 104/226/57
f 116/184/64 109/183/58 117/238/65
f 109/178/58 99/239/54 117/240/65
f 110/181/59 115/241/63 99/239/54
f 110/181/59 113/180/61 115/241/63
f 113/180/61 98/242/53 115/241/63
f 113/243/61 114/192/62 98/191/53
f 113/243/61 111/244/60 114/192/62
f 111/244/60 97/199/52 114/192/62
f 111/245/60 112/189/19 97/188/52
f 111/245/60 106/246/13 112/189/19
f 106/246/13 96/185/3 112/189/19
f 109/178/58 110/181/59 99/239/54
f 109/178/58 107/175/14 110/181/59
f 107/175/14 94/174/1 110/181/59
f 106/246/13 108/186/15 96/185/3
f 106/176/13 107/175/14 108/247/15
f 107/175/14 95/177/2 108/247/15
