# Blender 4.5.1 LTS
# www.blender.org
mtllib hammer.mtl
o 円柱
v 0.000000 1.892850 0.109744
v 0.000000 3.063448 0.109744
v -0.014273 1.892850 0.107635
v -0.014273 3.063448 0.107635
v -0.027998 1.892850 0.101390
v -0.027998 3.063448 0.101390
v -0.040647 1.892850 0.091248
v -0.040647 3.063448 0.091248
v -0.051734 1.892850 0.077600
v -0.051734 3.063448 0.077600
v -0.060832 1.892850 0.060970
v -0.060832 3.063448 0.060970
v -0.067593 1.892850 0.041997
v -0.067593 3.063448 0.041997
v -0.071757 1.892850 0.021410
v -0.071757 3.063448 0.021410
v -0.073162 1.892850 0.000000
v -0.073162 3.063448 0.000000
v -0.071757 1.892850 -0.021410
v -0.071757 3.063448 -0.021410
v -0.067593 1.892850 -0.041997
v -0.067593 3.063448 -0.041997
v -0.060832 1.892850 -0.060970
v -0.060832 3.063448 -0.060970
v -0.051734 1.892850 -0.077600
v -0.051734 3.063448 -0.077600
v -0.040647 1.892850 -0.091248
v -0.040647 3.063448 -0.091248
v -0.027998 1.892850 -0.101390
v -0.027998 3.063448 -0.101390
v -0.014273 1.892850 -0.107635
v -0.014273 3.063448 -0.107635
v 0.000000 1.892850 -0.109744
v 0.000000 3.063448 -0.109744
v 0.014273 1.892850 -0.107635
v 0.014273 3.063448 -0.107635
v 0.027998 1.892850 -0.101390
v 0.027998 3.063448 -0.101390
v 0.040647 1.892850 -0.091248
v 0.040647 3.063448 -0.091248
v 0.051734 1.892850 -0.077600
v 0.051734 3.063448 -0.077600
v 0.060832 1.892850 -0.060970
v 0.060832 3.063448 -0.060970
v 0.067593 1.892850 -0.041997
v 0.067593 3.063448 -0.041997
v 0.071757 1.892850 -0.021410
v 0.071757 3.063448 -0.021410
v 0.073162 1.892850 0.000000
v 0.073162 3.063448 0.000000
v 0.071757 1.892850 0.021410
v 0.071757 3.063448 0.021410
v 0.067593 1.892850 0.041997
v 0.067593 3.063448 0.041997
v 0.060832 1.892850 0.060970
v 0.060832 3.063448 0.060970
v 0.051734 1.892850 0.077600
v 0.051734 3.063448 0.077600
v 0.040647 1.892850 0.091248
v 0.040647 3.063448 0.091248
v 0.027998 1.892850 0.101390
v 0.027998 3.063448 0.101390
v 0.014273 1.892850 0.107635
v 0.014273 3.063448 0.107635
v 0.130916 2.990286 0.278687
v -0.130916 2.990286 0.241946
v 0.130916 2.935917 0.273332
v -0.130916 2.943085 0.237297
v 0.130916 2.883637 0.257473
v -0.130916 2.897697 0.223529
v 0.130916 2.835456 0.231719
v -0.130916 2.855868 0.201170
v 0.130916 2.793225 0.197061
v -0.130916 2.819205 0.171081
v 0.130916 2.758567 0.154830
v -0.130916 2.789115 0.134418
v 0.130916 2.732813 0.106649
v -0.130916 2.766757 0.092589
v 0.130916 2.716954 0.054369
v -0.130916 2.752989 0.047201
v 0.130916 2.711599 0.000000
v -0.130916 2.748340 0.000000
v 0.130916 2.716954 -0.054369
v -0.130916 2.752989 -0.047201
v 0.130916 2.732813 -0.106649
v -0.130916 2.766757 -0.092589
v 0.130916 2.758567 -0.154830
v -0.130916 2.789115 -0.134418
v 0.130916 2.793225 -0.197061
v -0.130916 2.819205 -0.171081
v 0.130916 2.835456 -0.231719
v -0.130916 2.855868 -0.201170
v 0.130916 2.883637 -0.257473
v -0.130916 2.897697 -0.223529
v 0.130916 2.935917 -0.273332
v -0.130916 2.943085 -0.237297
v 0.130916 2.990286 -0.278687
v -0.130916 2.990286 -0.241946
v 0.130916 3.044655 -0.273332
v -0.130916 3.037487 -0.237297
v 0.130916 3.096935 -0.257473
v -0.130916 3.082874 -0.223529
v 0.130916 3.145116 -0.231719
v -0.130916 3.124704 -0.201170
v 0.130916 3.187347 -0.197061
v -0.130916 3.161367 -0.171081
v 0.130916 3.222005 -0.154830
v -0.130916 3.191456 -0.134418
v 0.130916 3.247759 -0.106649
v -0.130916 3.213814 -0.092589
v 0.130916 3.263618 -0.054369
v -0.130916 3.227582 -0.047201
v 0.130916 3.268972 0.000000
v -0.130916 3.232232 0.000000
v 0.130916 3.263618 0.054369
v -0.130916 3.227582 0.047201
v 0.130916 3.247759 0.106649
v -0.130916 3.213814 0.092589
v 0.130916 3.222005 0.154830
v -0.130916 3.191456 0.134418
v 0.130916 3.187347 0.197061
v -0.130916 3.161367 0.171081
v 0.130916 3.145116 0.231719
v -0.130916 3.124704 0.201170
v 0.130916 3.096935 0.257473
v -0.130916 3.082874 0.223529
v 0.130916 3.044655 0.273332
v -0.130916 3.037487 0.237297
v -0.130916 2.935917 0.273332
v -0.130916 2.990286 0.278687
v -0.130916 2.883637 0.257473
v -0.130916 2.835456 0.231719
v -0.130916 2.793225 0.197061
v -0.130916 2.758567 0.154830
v -0.130916 2.732813 0.106649
v -0.130916 2.716954 0.054369
v -0.130916 2.711599 0.000000
v -0.130916 2.716954 -0.054369
v -0.130916 2.732813 -0.106649
v -0.130916 2.758567 -0.154830
v -0.130916 2.793225 -0.197061
v -0.130916 2.835456 -0.231719
v -0.130916 2.883637 -0.257473
v -0.130916 2.935917 -0.273332
v -0.130916 2.990286 -0.278687
v -0.130916 3.044655 -0.273332
v -0.130916 3.096935 -0.257473
v -0.130916 3.145116 -0.231719
v -0.130916 3.187347 -0.197061
v -0.130916 3.222005 -0.154830
v -0.130916 3.247759 -0.106649
v -0.130916 3.263618 -0.054369
v -0.130916 3.268972 0.000000
v -0.130916 3.263618 0.054369
v -0.130916 3.247759 0.106649
v -0.130916 3.222005 0.154830
v -0.130916 3.187347 0.197061
v -0.130916 3.145116 0.231719
v -0.130916 3.096935 0.257473
v -0.130916 3.044655 0.273332
v -0.109252 2.937703 0.219196
v -0.109252 2.984904 0.223845
v -0.109252 2.892315 0.205428
v -0.109252 2.850486 0.183069
v -0.109252 2.813823 0.152980
v -0.109252 2.783734 0.116317
v -0.109252 2.761375 0.074488
v -0.109252 2.747607 0.029100
v -0.109252 2.742959 -0.018101
v -0.109252 2.747607 -0.065302
v -0.109252 2.761375 -0.110690
v -0.109252 2.783734 -0.152519
v -0.109252 2.813823 -0.189182
v -0.109252 2.850486 -0.219271
v -0.109252 2.892315 -0.241629
v -0.109252 2.937703 -0.255398
v -0.109252 2.984904 -0.260046
v -0.109252 3.032105 -0.255398
v -0.109252 3.077492 -0.241629
v -0.109252 3.119322 -0.219271
v -0.109252 3.155985 -0.189182
v -0.109252 3.186074 -0.152519
v -0.109252 3.208432 -0.110690
v -0.109252 3.222200 -0.065302
v -0.109252 3.226850 -0.018101
v -0.109252 3.222200 0.029100
v -0.109252 3.208432 0.074488
v -0.109252 3.186074 0.116317
v -0.109252 3.155985 0.152980
v -0.109252 3.119322 0.183069
v -0.109252 3.077492 0.205428
v -0.109252 3.032105 0.219196
v 0.082904 2.807941 -0.635891
v 0.082904 2.831719 -0.731624
v 0.095385 2.831719 -0.635891
v 0.082904 3.147595 -0.731624
v 0.082904 3.171373 -0.635891
v 0.095385 3.147595 -0.635891
v 0.082904 2.807941 0.635891
v 0.095385 2.831719 0.635891
v 0.082904 2.831719 0.731624
v 0.082904 3.171373 0.635891
v 0.082904 3.147595 0.731624
v 0.095385 3.147595 0.635891
v -0.082904 2.807941 -0.635891
v -0.095385 2.831719 -0.635891
v -0.082904 2.831719 -0.731624
v -0.082904 3.171373 -0.635891
v -0.082904 3.147595 -0.731624
v -0.095385 3.147595 -0.635891
v -0.082904 2.807941 0.635891
v -0.082904 2.831719 0.731624
v -0.095385 2.831719 0.635891
v -0.082904 3.171373 0.635891
v -0.095385 3.147595 0.635891
v -0.082904 3.147595 0.731624
v 0.065252 3.134433 -0.373899
v 0.000000 7.235884 -0.373899
v 0.065252 3.130431 0.129816
v 0.065252 6.095707 0.129816
v -0.065252 3.134433 -0.373899
v -0.065252 3.130431 0.129816
v -0.065252 6.095707 0.129816
v 0.000000 3.134433 0.373899
v 0.000000 6.095015 0.373899
v 0.000000 3.134433 -0.373899
v 0.065252 6.099708 -0.373899
v 0.000000 6.099708 -0.373899
v -0.065252 6.099708 -0.373899
v 0.065252 6.096124 0.077280
v 0.065252 6.097352 -0.077280
v 0.065252 3.132077 -0.077280
v 0.065252 3.130848 0.077280
v -0.065252 6.097352 -0.077280
v -0.065252 6.096124 0.077280
v -0.065252 3.132077 -0.077280
v -0.065252 3.130848 0.077280
v 0.000000 3.134433 -0.077280
v 0.000000 3.134433 0.077280
v 0.000000 6.783352 -0.077280
v 0.038425 6.564477 -0.077280
v 0.000000 6.547548 0.077280
v 0.058447 6.214623 0.077280
v -0.058447 6.214623 0.077280
v -0.038425 6.564477 -0.077280
v 0.034592 5.809834 -0.223355
v 0.034592 5.968209 -0.223355
v 0.034592 5.809834 0.223355
v 0.034592 5.968209 0.223355
v -0.034592 5.809834 -0.223355
v -0.034592 5.968209 -0.223355
v -0.034592 5.809834 0.223355
v -0.034592 5.968209 0.223355
v 0.034592 5.422034 -0.223355
v 0.034592 5.580409 -0.223355
v 0.034592 5.422034 0.223355
v 0.034592 5.580409 0.223355
v -0.034592 5.422034 -0.223355
v -0.034592 5.580409 -0.223355
v -0.034592 5.422034 0.223355
v -0.034592 5.580409 0.223355
v 0.034592 3.970715 -0.223355
v 0.034592 4.129089 -0.223355
v 0.034592 3.970715 0.223355
v 0.034592 4.129089 0.223355
v -0.034592 3.970715 -0.223355
v -0.034592 4.129089 -0.223355
v -0.034592 3.970715 0.223355
v -0.034592 4.129089 0.223355
v 0.034592 3.582915 -0.223355
v 0.034592 3.741290 -0.223355
v 0.034592 3.582915 0.223355
v 0.034592 3.741290 0.223355
v -0.034592 3.582915 -0.223355
v -0.034592 3.741290 -0.223355
v -0.034592 3.582915 0.223355
v -0.034592 3.741290 0.223355
vn -0.1462 -0.0000 0.9893
vn -0.4142 -0.0000 0.9102
vn -0.6255 -0.0000 0.7802
vn -0.7762 -0.0000 0.6305
vn -0.8773 -0.0000 0.4800
vn -0.9420 -0.0000 0.3357
vn -0.9802 -0.0000 0.1982
vn -0.9979 -0.0000 0.0655
vn -0.9979 -0.0000 -0.0655
vn -0.9802 -0.0000 -0.1982
vn -0.9420 -0.0000 -0.3357
vn -0.8773 -0.0000 -0.4800
vn -0.7762 -0.0000 -0.6305
vn -0.6255 -0.0000 -0.7802
vn -0.4142 -0.0000 -0.9102
vn -0.1462 -0.0000 -0.9893
vn 0.1462 -0.0000 -0.9893
vn 0.4142 -0.0000 -0.9102
vn 0.6255 -0.0000 -0.7802
vn 0.7762 -0.0000 -0.6305
vn 0.8773 -0.0000 -0.4800
vn 0.9420 -0.0000 -0.3357
vn 0.9802 -0.0000 -0.1982
vn 0.9979 -0.0000 -0.0655
vn 0.9979 -0.0000 0.0655
vn 0.9802 -0.0000 0.1982
vn 0.9420 -0.0000 0.3357
vn 0.8773 -0.0000 0.4800
vn 0.7762 -0.0000 0.6305
vn 0.6255 -0.0000 0.7802
vn -0.0000 1.0000 -0.0000
vn 0.4142 -0.0000 0.9102
vn 0.1462 -0.0000 0.9893
vn -0.0000 -1.0000 -0.0000
vn -0.0000 -0.0980 0.9952
vn -0.0000 -0.2903 0.9569
vn -0.0000 -0.4714 0.8819
vn -0.0000 -0.6344 0.7730
vn -0.0000 -0.7730 0.6344
vn -0.0000 -0.8819 0.4714
vn -0.0000 -0.9569 0.2903
vn -0.0000 -0.9952 0.0980
vn -0.0000 -0.9952 -0.0980
vn -0.0000 -0.9569 -0.2903
vn -0.0000 -0.8819 -0.4714
vn -0.0000 -0.7730 -0.6344
vn -0.0000 -0.6344 -0.7730
vn -0.0000 -0.4714 -0.8819
vn -0.0000 -0.2903 -0.9569
vn -0.0000 -0.0980 -0.9952
vn -0.0000 0.0980 -0.9952
vn -0.0000 0.2903 -0.9569
vn -0.0000 0.4714 -0.8819
vn -0.0000 0.6344 -0.7730
vn -0.0000 0.7730 -0.6344
vn -0.0000 0.8819 -0.4714
vn -0.0000 0.9569 -0.2903
vn -0.0000 0.9952 -0.0980
vn -0.0000 0.9952 0.0980
vn -0.0000 0.9569 0.2903
vn -0.0000 0.8819 0.4714
vn -0.0000 0.7730 0.6344
vn -0.0000 0.6344 0.7730
vn -0.0000 0.4714 0.8819
vn -0.5883 0.2347 -0.7739
vn -0.0000 0.2903 0.9569
vn -0.0000 0.0980 0.9952
vn 1.0000 -0.0000 -0.0000
vn -1.0000 -0.0000 -0.0000
vn -0.6263 -0.4945 -0.6026
vn 0.6502 0.0745 0.7561
vn -0.5268 0.4007 -0.7496
vn -0.6494 -0.3585 -0.6707
vn 0.6281 -0.0763 0.7744
vn -0.4388 0.5701 -0.6946
vn -0.6571 -0.2188 -0.7214
vn 0.5883 -0.2347 0.7738
vn -0.3202 0.7323 -0.6010
vn -0.6502 -0.0745 -0.7561
vn 0.5268 -0.4007 0.7496
vn -0.1722 0.8688 -0.4644
vn 0.4388 -0.5701 0.6946
vn -0.0048 0.9569 -0.2903
vn 0.3202 -0.7323 0.6010
vn 0.1631 0.9819 -0.0967
vn 0.1722 -0.8688 0.4644
vn 0.3126 0.9453 0.0931
vn 0.0048 -0.9569 0.2903
vn 0.4329 0.8626 0.2617
vn -0.1631 -0.9819 0.0967
vn 0.5226 0.7519 0.4019
vn -0.3126 -0.9453 -0.0931
vn 0.5854 0.6267 0.5143
vn -0.4329 -0.8626 -0.2617
vn 0.6263 0.4945 0.6026
vn -0.5226 -0.7519 -0.4019
vn 0.6494 0.3585 0.6706
vn -0.6281 0.0763 -0.7744
vn -0.5854 -0.6267 -0.5143
vn 0.6571 0.2188 0.7214
vn -0.0000 -0.0000 -1.0000
vn -0.0000 -0.0000 1.0000
vn 0.8796 -0.4617 -0.1147
vn 0.8796 0.4617 -0.1147
vn 0.8796 -0.4617 0.1147
vn 0.8796 0.4617 0.1147
vn -0.8796 -0.4617 -0.1147
vn -0.8796 0.4617 -0.1147
vn -0.8796 -0.4617 0.1147
vn -0.8796 0.4617 0.1147
vn 0.8854 -0.4648 -0.0000
vn 0.9916 -0.0000 -0.1293
vn 0.8854 0.4648 -0.0000
vn 0.9916 -0.0000 0.1293
vn -0.0000 -0.9705 0.2410
vn -0.0000 0.9705 0.2410
vn -0.9916 -0.0000 0.1293
vn -0.8854 -0.4648 -0.0000
vn -0.8854 0.4648 -0.0000
vn -0.9916 -0.0000 -0.1293
vn -0.0000 -0.9705 -0.2410
vn -0.0000 0.9705 -0.2410
vn -0.9661 -0.0000 0.2583
vn 0.9524 0.1672 0.2551
vn -0.9524 0.1672 0.2551
vn 0.9661 -0.0000 0.2583
vn -0.9984 0.0573 0.0005
vn 0.9984 0.0573 0.0005
vn 0.1721 -0.8688 0.4644
vn -0.4330 -0.8626 -0.2617
vt 0.800147 0.279455
vt 0.796991 0.023405
vt 0.800147 0.023405
vt 0.796991 0.279455
vt 0.793693 0.023405
vt 0.793693 0.279455
vt 0.790147 0.023405
vt 0.790147 0.279455
vt 0.786301 0.023405
vt 0.786301 0.279455
vt 0.782154 0.023405
vt 0.782154 0.279455
vt 0.777749 0.023405
vt 0.777749 0.279455
vt 0.773154 0.023405
vt 0.773154 0.279455
vt 0.768461 0.023405
vt 0.768461 0.279455
vt 0.763768 0.023405
vt 0.763768 0.279455
vt 0.759174 0.023405
vt 0.759174 0.279455
vt 0.754768 0.023405
vt 0.754768 0.279455
vt 0.750621 0.023405
vt 0.750621 0.279455
vt 0.746775 0.023405
vt 0.746775 0.279455
vt 0.743229 0.023405
vt 0.743229 0.279455
vt 0.739931 0.023405
vt 0.739931 0.279455
vt 0.736775 0.023405
vt 0.736775 0.279455
vt 0.733619 0.023405
vt 0.733619 0.279455
vt 0.730321 0.023405
vt 0.730321 0.279455
vt 0.726775 0.023405
vt 0.726775 0.279455
vt 0.722928 0.023405
vt 0.722928 0.279455
vt 0.718782 0.023405
vt 0.718782 0.279455
vt 0.714376 0.023405
vt 0.714376 0.279455
vt 0.709782 0.023405
vt 0.709782 0.279455
vt 0.705089 0.023405
vt 0.705089 0.279455
vt 0.700396 0.023405
vt 0.700396 0.279455
vt 0.695801 0.023405
vt 0.695801 0.279455
vt 0.691396 0.023405
vt 0.691396 0.279455
vt 0.687249 0.023405
vt 0.687249 0.279455
vt 0.683403 0.023405
vt 0.683403 0.279455
vt 0.679857 0.023405
vt 0.679192 0.761747
vt 0.681808 0.758927
vt 0.701775 0.763230
vt 0.679857 0.279455
vt 0.676559 0.023405
vt 0.676559 0.279455
vt 0.673403 0.023405
vt 0.681807 0.853643
vt 0.684714 0.851611
vt 0.699551 0.854808
vt 0.673403 0.708662
vt 0.730674 0.696712
vt 0.730674 0.708662
vt 0.673403 0.696712
vt 0.730674 0.684762
vt 0.673403 0.684762
vt 0.730674 0.672812
vt 0.673403 0.672812
vt 0.730674 0.660863
vt 0.673403 0.660863
vt 0.730674 0.648913
vt 0.673403 0.648913
vt 0.730674 0.636963
vt 0.673403 0.636963
vt 0.730674 0.625013
vt 0.673403 0.625013
vt 0.730674 0.613063
vt 0.673403 0.613063
vt 0.730674 0.601113
vt 0.673403 0.601113
vt 0.730674 0.589163
vt 0.673403 0.589163
vt 0.730674 0.577213
vt 0.673403 0.577213
vt 0.730674 0.565263
vt 0.673403 0.565263
vt 0.730674 0.553313
vt 0.673403 0.553313
vt 0.730674 0.541363
vt 0.673403 0.541363
vt 0.730674 0.529414
vt 0.673403 0.529414
vt 0.730674 0.517464
vt 0.673403 0.517464
vt 0.730674 0.505514
vt 0.673403 0.505514
vt 0.730674 0.493564
vt 0.673403 0.493564
vt 0.730674 0.481614
vt 0.673403 0.481614
vt 0.730674 0.469664
vt 0.673403 0.469664
vt 0.730674 0.457714
vt 0.673403 0.457714
vt 0.730674 0.445764
vt 0.673403 0.445764
vt 0.730674 0.433814
vt 0.673403 0.433814
vt 0.730674 0.421864
vt 0.673403 0.421864
vt 0.730674 0.409914
vt 0.673403 0.409914
vt 0.730674 0.397965
vt 0.673403 0.397965
vt 0.730674 0.386015
vt 0.673403 0.386015
vt 0.730674 0.374065
vt 0.673403 0.374065
vt 0.730674 0.362115
vt 0.673403 0.362115
vt 0.730674 0.350165
vt 0.574763 0.813922
vt 0.574304 0.803479
vt 0.581043 0.811981
vt 0.673403 0.350165
vt 0.730674 0.338215
vt 0.673403 0.338215
vt 0.730674 0.326265
vt 0.371493 0.850995
vt 0.376066 0.897426
vt 0.259399 0.862035
vt 0.559895 0.798321
vt 0.562749 0.810464
vt 0.555488 0.804359
vt 0.568024 0.805420
vt 0.579724 0.823842
vt 0.568344 0.817960
vt 0.582687 0.834698
vt 0.572482 0.826599
vt 0.583595 0.846080
vt 0.574918 0.836044
vt 0.582519 0.857713
vt 0.575528 0.845982
vt 0.571987 0.865723
vt 0.574233 0.856157
vt 0.574723 0.878557
vt 0.578997 0.868320
vt 0.562063 0.881955
vt 0.567870 0.874339
vt 0.559508 0.895003
vt 0.567536 0.887055
vt 0.546289 0.892878
vt 0.554776 0.888174
vt 0.549134 0.900150
vt 0.537275 0.895582
vt 0.538469 0.902861
vt 0.528130 0.896392
vt 0.517627 0.902545
vt 0.528029 0.903285
vt 0.506983 0.899648
vt 0.519014 0.895261
vt 0.496600 0.894442
vt 0.509916 0.892368
vt 0.493831 0.881414
vt 0.501372 0.887591
vt 0.481672 0.877980
vt 0.488467 0.886411
vt 0.476434 0.868146
vt 0.488055 0.873826
vt 0.473098 0.857305
vt 0.483650 0.865169
vt 0.471834 0.845820
vt 0.480902 0.855713
vt 0.472792 0.833905
vt 0.480023 0.845779
vt 0.484088 0.826130
vt 0.481239 0.835722
vt 0.482324 0.812773
vt 0.477059 0.822998
vt 0.495417 0.809899
vt 0.489167 0.817557
vt 0.498729 0.796899
vt 0.490136 0.804439
vt 0.511811 0.799181
vt 0.503350 0.803885
vt 0.509025 0.791958
vt 0.520739 0.796437
vt 0.519542 0.789259
vt 0.529739 0.795620
vt 0.540101 0.789513
vt 0.529824 0.788817
vt 0.550639 0.792530
vt 0.538684 0.796683
vt 0.547463 0.799595
vt 0.779508 0.908566
vt 0.845514 0.873285
vt 0.880794 0.939291
vt 0.527978 0.782860
vt 0.494254 0.901077
vt 0.581482 0.814034
vt 0.586443 0.823954
vt 0.539699 0.783284
vt 0.484976 0.892392
vt 0.586219 0.825917
vt 0.589182 0.836773
vt 0.552445 0.786138
vt 0.478400 0.883667
vt 0.588508 0.838437
vt 0.589417 0.849819
vt 0.555242 0.787168
vt 0.564803 0.793927
vt 0.472617 0.873714
vt 0.588569 0.851117
vt 0.587492 0.862749
vt 0.468688 0.862577
vt 0.585962 0.863544
vt 0.582440 0.874152
vt 0.466761 0.850645
vt 0.582066 0.874300
vt 0.577791 0.884538
vt 0.466893 0.838108
vt 0.576160 0.885146
vt 0.568972 0.893644
vt 0.470379 0.825391
vt 0.568896 0.893764
vt 0.560868 0.901712
vt 0.475532 0.814333
vt 0.559328 0.902018
vt 0.548955 0.907164
vt 0.483248 0.803755
vt 0.548283 0.906763
vt 0.537618 0.909474
vt 0.492053 0.795050
vt 0.537106 0.909043
vt 0.526666 0.909468
vt 0.503463 0.787841
vt 0.526754 0.909474
vt 0.516352 0.908734
vt 0.573695 0.801311
vt 0.515676 0.783936
vt 0.515848 0.908988
vt 0.505204 0.906091
vt 0.508148 0.059734
vt 0.577358 0.023405
vt 0.577358 0.059734
vt 0.508148 0.359538
vt 0.577358 0.080887
vt 0.577358 0.359538
vt 0.465935 0.359538
vt 0.502264 0.080887
vt 0.502264 0.359538
vt 0.508612 0.713742
vt 0.577358 0.438173
vt 0.576952 0.714813
vt 0.508148 0.417020
vt 0.577358 0.380691
vt 0.577358 0.417020
vt 0.619155 0.082895
vt 0.621247 0.061520
vt 0.624969 0.082520
vt 0.508011 0.734649
vt 0.502791 0.713845
vt 0.620574 0.357592
vt 0.626593 0.357880
vt 0.623190 0.379618
vt 0.502272 0.438183
vt 0.506842 0.417089
vt 0.508148 0.438173
vt 0.583242 0.080887
vt 0.577536 0.079244
vt 0.584667 0.059125
vt 0.486535 0.059734
vt 0.487791 0.065482
vt 0.583242 0.359538
vt 0.584825 0.382687
vt 0.577177 0.361304
vt 0.486535 0.380691
vt 0.487791 0.374943
vt 0.508148 0.380691
vt 0.576607 0.735778
vt 0.486535 0.417020
vt 0.508148 0.080887
vt 0.486535 0.023405
vt 0.312332 0.672012
vt 0.323824 0.023496
vt 0.323824 0.672103
vt 0.102559 0.023920
vt 0.037678 0.672012
vt 0.037678 0.023405
vt 0.419125 0.024280
vt 0.363861 0.672012
vt 0.363861 0.023405
vt 0.131104 0.023920
vt 0.195985 0.672012
vt 0.131104 0.672527
vt 0.352370 0.023496
vt 0.116832 0.672527
vt 0.116832 0.023920
vt 0.072637 0.929691
vt 0.023405 0.822064
vt 0.031810 0.774188
vt 0.257068 0.671861
vt 0.323048 0.698394
vt 0.319744 0.772256
vt 0.353145 0.698394
vt 0.419125 0.671861
vt 0.356449 0.772256
vt 0.210258 0.822063
vt 0.161027 0.929689
vt 0.201853 0.774188
vt 0.257068 0.024280
vt 0.312332 0.023405
vt 0.195986 0.774357
vt 0.352370 0.672103
vt 0.352370 0.698066
vt 0.102559 0.672527
vt 0.037677 0.774357
vt 0.323823 0.698066
vt 0.116832 0.921048
vt 0.350881 0.698023
vt 0.325312 0.698023
vt 0.023405 0.023920
vt 0.938978 0.326265
vt 0.904336 0.423976
vt 0.904336 0.326265
vt 0.938977 0.423976
vt 0.904336 0.439109
vt 0.938978 0.439109
vt 0.904336 0.536820
vt 0.938978 0.536820
vt 0.904336 0.551953
vt 0.889203 0.536820
vt 0.889203 0.439109
vt 0.954111 0.439109
vt 0.896732 0.023405
vt 0.862090 0.121116
vt 0.862090 0.023405
vt 0.896732 0.121116
vt 0.862090 0.136249
vt 0.896732 0.136249
vt 0.862090 0.233960
vt 0.896732 0.233960
vt 0.862090 0.249093
vt 0.846957 0.233960
vt 0.846957 0.136249
vt 0.911865 0.136249
vt 0.827259 0.598763
vt 0.792617 0.696474
vt 0.792617 0.598763
vt 0.827259 0.696474
vt 0.792617 0.711607
vt 0.827259 0.711607
vt 0.792617 0.809318
vt 0.827259 0.809318
vt 0.792617 0.824451
vt 0.777484 0.809318
vt 0.777484 0.711607
vt 0.842392 0.711607
vt 0.827259 0.326265
vt 0.792617 0.423976
vt 0.792617 0.326265
vt 0.827259 0.423976
vt 0.792617 0.439109
vt 0.827259 0.439109
vt 0.792617 0.536820
vt 0.827259 0.536820
vt 0.792617 0.551953
vt 0.777484 0.536820
vt 0.777484 0.439109
vt 0.842393 0.439109
vt 0.684714 0.756895
vt 0.687799 0.755728
vt 0.696936 0.757697
vt 0.690944 0.755472
vt 0.694029 0.756137
vt 0.699551 0.760092
vt 0.703523 0.766990
vt 0.704727 0.771228
vt 0.676968 0.765246
vt 0.705340 0.775781
vt 0.674016 0.773724
vt 0.705340 0.780474
vt 0.673403 0.778377
vt 0.704726 0.785127
vt 0.673403 0.783070
vt 0.703523 0.789561
vt 0.674016 0.787623
vt 0.701775 0.793605
vt 0.699551 0.797104
vt 0.675220 0.791861
vt 0.696936 0.799924
vt 0.676968 0.795622
vt 0.694029 0.801957
vt 0.679192 0.798759
vt 0.690944 0.803123
vt 0.684713 0.802714
vt 0.687799 0.803379
vt 0.681807 0.801154
vt 0.675220 0.769290
vt 0.673403 0.279455
vt 0.687799 0.850445
vt 0.690944 0.850189
vt 0.694029 0.850854
vt 0.696936 0.852413
vt 0.701775 0.857946
vt 0.679192 0.856463
vt 0.703523 0.861706
vt 0.676968 0.859963
vt 0.704727 0.865944
vt 0.705340 0.870497
vt 0.675220 0.864007
vt 0.705340 0.875190
vt 0.673403 0.873093
vt 0.704727 0.879843
vt 0.673403 0.877787
vt 0.703523 0.884277
vt 0.701775 0.888321
vt 0.674017 0.882340
vt 0.699551 0.891821
vt 0.676968 0.890338
vt 0.696936 0.894641
vt 0.679192 0.893476
vt 0.694029 0.896673
vt 0.690944 0.897839
vt 0.681807 0.895870
vt 0.687799 0.898095
vt 0.684714 0.897430
vt 0.675220 0.886578
vt 0.674016 0.868441
vt 0.673403 0.326265
vt 0.371493 0.908466
vt 0.364854 0.918402
vt 0.356404 0.926852
vt 0.346468 0.933491
vt 0.335428 0.938064
vt 0.323708 0.940395
vt 0.311758 0.940395
vt 0.300038 0.938064
vt 0.288997 0.933491
vt 0.279061 0.926852
vt 0.270611 0.918402
vt 0.263972 0.908466
vt 0.259399 0.897426
vt 0.257068 0.885706
vt 0.257068 0.873756
vt 0.263973 0.850995
vt 0.270611 0.841059
vt 0.279061 0.832609
vt 0.288997 0.825970
vt 0.300038 0.821397
vt 0.311758 0.819066
vt 0.323708 0.819066
vt 0.335428 0.821397
vt 0.346468 0.825970
vt 0.356404 0.832609
vt 0.364854 0.841059
vt 0.376066 0.862035
vt 0.378398 0.873756
vt 0.378398 0.885706
vt 0.876824 0.948875
vt 0.871060 0.957501
vt 0.863724 0.964837
vt 0.855098 0.970601
vt 0.845514 0.974571
vt 0.835338 0.976595
vt 0.824964 0.976595
vt 0.814789 0.974571
vt 0.805204 0.970601
vt 0.796578 0.964837
vt 0.789242 0.957501
vt 0.783478 0.948875
vt 0.779508 0.939290
vt 0.777484 0.929115
vt 0.777484 0.918741
vt 0.783478 0.898981
vt 0.789242 0.890355
vt 0.796578 0.883019
vt 0.805204 0.877255
vt 0.814789 0.873285
vt 0.824964 0.871261
vt 0.835339 0.871261
vt 0.855098 0.877255
vt 0.863724 0.883019
vt 0.871060 0.890355
vt 0.876824 0.898981
vt 0.880794 0.908566
vt 0.882818 0.918741
vt 0.882818 0.929115
vt 0.517695 0.783302
vt 0.504637 0.906283
vt 0.529422 0.782588
vt 0.493109 0.900423
vt 0.541907 0.783121
vt 0.485196 0.892099
vt 0.477854 0.883547
vt 0.472024 0.873418
vt 0.468025 0.862129
vt 0.465935 0.850024
vt 0.466111 0.836298
vt 0.470268 0.824558
vt 0.475436 0.812089
vt 0.483460 0.802591
vt 0.493167 0.792782
vt 0.505159 0.786635
vt 0.508148 0.023405
vt 0.465935 0.080887
vt 0.195985 0.023405
vt 0.131108 0.921457
vt 0.102555 0.921457
vt 0.338097 0.024280
vt 0.338097 0.770845
vt 0.210258 0.023920
vt 0.938978 0.551953
vt 0.954111 0.536820
vt 0.896732 0.249093
vt 0.911865 0.233960
vt 0.827259 0.824451
vt 0.842393 0.809318
vt 0.827259 0.551953
vt 0.842393 0.536820
s 0
usemtl マテリアル
f 2/1/1 3/2/1 1/3/1
f 4/4/2 5/5/2 3/2/2
f 6/6/3 7/7/3 5/5/3
f 8/8/4 9/9/4 7/7/4
f 10/10/5 11/11/5 9/9/5
f 12/12/6 13/13/6 11/11/6
f 14/14/7 15/15/7 13/13/7
f 16/16/8 17/17/8 15/15/8
f 18/18/9 19/19/9 17/17/9
f 20/20/10 21/21/10 19/19/10
f 22/22/11 23/23/11 21/21/11
f 24/24/12 25/25/12 23/23/12
f 26/26/13 27/27/13 25/25/13
f 28/28/14 29/29/14 27/27/14
f 30/30/15 31/31/15 29/29/15
f 32/32/16 33/33/16 31/31/16
f 34/34/17 35/35/17 33/33/17
f 36/36/18 37/37/18 35/35/18
f 38/38/19 39/39/19 37/37/19
f 40/40/20 41/41/20 39/39/20
f 42/42/21 43/43/21 41/41/21
f 44/44/22 45/45/22 43/43/22
f 46/46/23 47/47/23 45/45/23
f 48/48/24 49/49/24 47/47/24
f 50/50/25 51/51/25 49/49/25
f 52/52/26 53/53/26 51/51/26
f 54/54/27 55/55/27 53/53/27
f 56/56/28 57/57/28 55/55/28
f 58/58/29 59/59/29 57/57/29
f 60/60/30 61/61/30 59/59/30
f 10/62/31 8/63/31 58/64/31
f 62/65/32 63/66/32 61/61/32
f 64/67/33 1/68/33 63/66/33
f 59/69/34 61/70/34 7/71/34
f 130/72/35 67/73/35 65/74/35
f 129/75/36 69/76/36 67/73/36
f 131/77/37 71/78/37 69/76/37
f 132/79/38 73/80/38 71/78/38
f 133/81/39 75/82/39 73/80/39
f 134/83/40 77/84/40 75/82/40
f 135/85/41 79/86/41 77/84/41
f 136/87/42 81/88/42 79/86/42
f 137/89/43 83/90/43 81/88/43
f 138/91/44 85/92/44 83/90/44
f 139/93/45 87/94/45 85/92/45
f 140/95/46 89/96/46 87/94/46
f 141/97/47 91/98/47 89/96/47
f 142/99/48 93/100/48 91/98/48
f 143/101/49 95/102/49 93/100/49
f 144/103/50 97/104/50 95/102/50
f 145/105/51 99/106/51 97/104/51
f 146/107/52 101/108/52 99/106/52
f 147/109/53 103/110/53 101/108/53
f 148/111/54 105/112/54 103/110/54
f 149/113/55 107/114/55 105/112/55
f 150/115/56 109/116/56 107/114/56
f 151/117/57 111/118/57 109/116/57
f 152/119/58 113/120/58 111/118/58
f 153/121/59 115/122/59 113/120/59
f 154/123/60 117/124/60 115/122/60
f 155/125/61 119/126/61 117/124/61
f 156/127/62 121/128/62 119/126/62
f 157/129/63 123/130/63 121/128/63
f 158/131/64 125/132/64 123/130/64
f 70/133/65 161/134/65 163/135/65
f 159/136/66 127/137/66 125/132/66
f 160/138/67 65/139/67 127/137/67
f 119/140/68 127/141/68 95/142/68
f 66/143/69 129/144/69 130/145/69
f 70/133/69 129/144/69 68/146/69
f 72/147/69 131/148/69 70/133/69
f 74/149/69 132/150/69 72/147/69
f 76/151/69 133/152/69 74/149/69
f 78/153/69 134/154/69 76/151/69
f 78/153/69 136/155/69 135/156/69
f 82/157/69 136/155/69 80/158/69
f 82/157/69 138/159/69 137/160/69
f 86/161/69 138/159/69 84/162/69
f 86/161/69 140/163/69 139/164/69
f 88/165/69 141/166/69 140/163/69
f 90/167/69 142/168/69 141/166/69
f 94/169/69 142/168/69 92/170/69
f 96/171/69 143/172/69 94/169/69
f 98/173/69 144/174/69 96/171/69
f 98/173/69 146/175/69 145/176/69
f 102/177/69 146/175/69 100/178/69
f 104/179/69 147/180/69 102/177/69
f 106/181/69 148/182/69 104/179/69
f 108/183/69 149/184/69 106/181/69
f 110/185/69 150/186/69 108/183/69
f 110/185/69 152/187/69 151/188/69
f 114/189/69 152/187/69 112/190/69
f 114/189/69 154/191/69 153/192/69
f 118/193/69 154/191/69 116/194/69
f 118/193/69 156/195/69 155/196/69
f 120/197/69 157/198/69 156/195/69
f 122/199/69 158/200/69 157/198/69
f 126/201/69 158/200/69 124/202/69
f 128/203/69 159/204/69 126/201/69
f 66/143/69 160/205/69 128/203/69
f 179/206/69 171/207/69 163/208/69
f 122/199/70 190/209/70 124/202/70
f 96/171/71 177/210/71 98/173/71
f 72/147/72 163/211/72 164/212/72
f 124/202/73 191/213/73 126/201/73
f 98/173/74 178/214/74 100/178/74
f 74/149/75 164/215/75 165/216/75
f 126/201/76 192/217/76 128/203/76
f 100/178/77 179/218/77 102/177/77
f 76/151/78 165/219/78 166/220/78
f 66/143/79 192/221/79 162/222/79
f 102/177/80 180/223/80 104/179/80
f 78/153/81 166/224/81 167/225/81
f 104/179/82 181/226/82 106/181/82
f 80/158/83 167/227/83 168/228/83
f 106/181/84 182/229/84 108/183/84
f 82/157/85 168/230/85 169/231/85
f 108/183/86 183/232/86 110/185/86
f 84/162/87 169/233/87 170/234/87
f 110/185/88 184/235/88 112/190/88
f 86/161/89 170/236/89 171/237/89
f 112/190/90 185/238/90 114/189/90
f 88/165/91 171/239/91 172/240/91
f 114/189/92 186/241/92 116/194/92
f 90/167/93 172/242/93 173/243/93
f 116/194/94 187/244/94 118/193/94
f 92/170/95 173/245/95 174/246/95
f 118/193/96 188/247/96 120/197/96
f 94/169/97 174/248/97 175/249/97
f 68/146/98 162/222/98 161/250/98
f 120/197/99 189/251/99 122/199/99
f 96/171/100 175/252/100 176/253/100
f 209/254/101 194/255/101 207/256/101
f 215/257/69 206/258/69 213/259/69
f 202/260/31 208/261/31 214/262/31
f 198/263/68 200/264/68 195/265/68
f 203/266/102 212/267/102 201/268/102
f 193/269/103 194/270/103 195/271/103
f 196/272/104 197/273/104 198/263/104
f 199/274/105 200/275/105 201/276/105
f 202/277/106 203/278/106 204/279/106
f 205/280/107 206/281/107 207/282/107
f 208/283/108 209/254/108 210/284/108
f 211/285/109 212/286/109 213/287/109
f 214/288/110 215/289/110 216/290/110
f 193/269/111 200/275/111 199/274/111
f 196/272/112 195/265/112 194/291/112
f 202/277/113 198/263/113 197/273/113
f 201/268/114 204/279/114 203/266/114
f 199/274/115 212/286/115 211/285/115
f 214/288/116 203/266/116 202/292/116
f 213/259/117 216/290/117 215/257/117
f 211/285/118 206/258/118 205/280/118
f 208/261/119 215/257/119 214/262/119
f 207/256/120 210/293/120 209/254/120
f 205/280/121 194/270/121 193/269/121
f 197/294/122 209/254/122 208/283/122
f 211/285/34 193/269/34 199/274/34
f 220/295/68 233/296/68 230/297/68
f 217/298/68 231/299/68 232/300/68
f 224/301/123 223/302/123 222/303/123
f 221/304/69 234/305/69 229/306/69
f 223/302/69 237/307/69 222/303/69
f 228/308/101 217/298/101 226/309/101
f 218/310/124 240/311/124 241/312/124
f 225/313/124 243/314/124 242/315/124
f 244/316/125 225/317/125 242/318/125
f 240/319/125 218/320/125 245/321/125
f 229/306/101 226/309/101 221/304/101
f 220/295/126 224/322/126 219/323/126
f 245/324/127 229/306/127 234/305/127
f 235/325/127 223/302/127 244/326/127
f 227/327/128 241/328/128 231/299/128
f 243/329/128 220/295/128 230/297/128
f 227/327/101 228/308/101 218/330/101
f 228/308/101 229/306/101 218/330/101
f 235/325/101 244/331/101 243/332/101
f 238/333/102 231/299/102 240/311/102
f 240/319/102 245/321/102 234/305/102
f 247/334/68 248/335/68 246/336/68
f 249/337/102 252/338/102 248/335/102
f 253/339/69 250/340/69 252/338/69
f 251/341/101 246/342/101 250/340/101
f 252/338/34 246/343/34 248/344/34
f 249/345/31 251/341/31 253/339/31
f 255/346/68 256/347/68 254/348/68
f 257/349/102 260/350/102 256/347/102
f 261/351/69 258/352/69 260/350/69
f 259/353/101 254/354/101 258/352/101
f 260/350/34 254/355/34 256/356/34
f 257/357/31 259/353/31 261/351/31
f 263/358/68 264/359/68 262/360/68
f 265/361/102 268/362/102 264/359/102
f 269/363/69 266/364/69 268/362/69
f 267/365/101 262/366/101 266/364/101
f 268/362/34 262/367/34 264/368/34
f 265/369/31 267/365/31 269/363/31
f 271/370/68 272/371/68 270/372/68
f 273/373/102 276/374/102 272/371/102
f 277/375/69 274/376/69 276/374/69
f 275/377/101 270/378/101 274/376/101
f 276/374/34 270/379/34 272/380/34
f 273/381/31 275/377/31 277/375/31
f 2/1/1 4/4/1 3/2/1
f 4/4/2 6/6/2 5/5/2
f 6/6/3 8/8/3 7/7/3
f 8/8/4 10/10/4 9/9/4
f 10/10/5 12/12/5 11/11/5
f 12/12/6 14/14/6 13/13/6
f 14/14/7 16/16/7 15/15/7
f 16/16/8 18/18/8 17/17/8
f 18/18/9 20/20/9 19/19/9
f 20/20/10 22/22/10 21/21/10
f 22/22/11 24/24/11 23/23/11
f 24/24/12 26/26/12 25/25/12
f 26/26/13 28/28/13 27/27/13
f 28/28/14 30/30/14 29/29/14
f 30/30/15 32/32/15 31/31/15
f 32/32/16 34/34/16 33/33/16
f 34/34/17 36/36/17 35/35/17
f 36/36/18 38/38/18 37/37/18
f 38/38/19 40/40/19 39/39/19
f 40/40/20 42/42/20 41/41/20
f 42/42/21 44/44/21 43/43/21
f 44/44/22 46/46/22 45/45/22
f 46/46/23 48/48/23 47/47/23
f 48/48/24 50/50/24 49/49/24
f 50/50/25 52/52/25 51/51/25
f 52/52/26 54/54/26 53/53/26
f 54/54/27 56/56/27 55/55/27
f 56/56/28 58/58/28 57/57/28
f 58/58/29 60/60/29 59/59/29
f 60/60/30 62/65/30 61/61/30
f 6/382/31 4/383/31 62/384/31
f 4/383/31 2/385/31 64/386/31
f 62/384/31 4/383/31 64/386/31
f 62/384/31 60/387/31 6/382/31
f 60/387/31 58/64/31 8/63/31
f 6/382/31 60/387/31 8/63/31
f 58/64/31 56/388/31 10/62/31
f 56/388/31 54/389/31 12/390/31
f 10/62/31 56/388/31 12/390/31
f 54/389/31 52/391/31 16/392/31
f 52/391/31 50/393/31 18/394/31
f 50/393/31 48/395/31 20/396/31
f 48/395/31 46/397/31 22/398/31
f 46/397/31 44/399/31 22/398/31
f 44/399/31 42/400/31 24/401/31
f 22/398/31 44/399/31 24/401/31
f 42/400/31 40/402/31 26/403/31
f 40/402/31 38/404/31 28/405/31
f 26/403/31 40/402/31 28/405/31
f 38/404/31 36/406/31 32/407/31
f 36/406/31 34/408/31 32/407/31
f 32/407/31 30/409/31 38/404/31
f 30/409/31 28/405/31 38/404/31
f 26/403/31 24/401/31 42/400/31
f 22/398/31 20/396/31 48/395/31
f 20/396/31 18/394/31 50/393/31
f 18/394/31 16/392/31 52/391/31
f 16/392/31 14/410/31 54/389/31
f 14/410/31 12/390/31 54/389/31
f 62/65/32 64/67/32 63/66/32
f 64/67/33 2/411/33 1/68/33
f 63/412/34 1/413/34 3/414/34
f 3/414/34 5/415/34 63/412/34
f 5/415/34 7/71/34 61/70/34
f 63/412/34 5/415/34 61/70/34
f 7/71/34 9/416/34 57/417/34
f 9/416/34 11/418/34 55/419/34
f 11/418/34 13/420/34 55/419/34
f 13/420/34 15/421/34 53/422/34
f 55/419/34 13/420/34 53/422/34
f 15/421/34 17/423/34 49/424/34
f 17/423/34 19/425/34 47/426/34
f 19/425/34 21/427/34 47/426/34
f 21/427/34 23/428/34 45/429/34
f 47/426/34 21/427/34 45/429/34
f 23/428/34 25/430/34 41/431/34
f 25/430/34 27/432/34 39/433/34
f 27/432/34 29/434/34 39/433/34
f 29/434/34 31/435/34 37/436/34
f 39/433/34 29/434/34 37/436/34
f 31/435/34 33/437/34 35/438/34
f 35/438/34 37/436/34 31/435/34
f 39/433/34 41/431/34 25/430/34
f 41/431/34 43/439/34 23/428/34
f 43/439/34 45/429/34 23/428/34
f 47/426/34 49/424/34 17/423/34
f 49/424/34 51/440/34 15/421/34
f 51/440/34 53/422/34 15/421/34
f 55/419/34 57/417/34 9/416/34
f 57/417/34 59/69/34 7/71/34
f 130/72/35 129/75/35 67/73/35
f 129/75/36 131/77/36 69/76/36
f 131/77/37 132/79/37 71/78/37
f 132/79/38 133/81/38 73/80/38
f 133/81/39 134/83/39 75/82/39
f 134/83/40 135/85/40 77/84/40
f 135/85/41 136/87/41 79/86/41
f 136/87/42 137/89/42 81/88/42
f 137/89/43 138/91/43 83/90/43
f 138/91/44 139/93/44 85/92/44
f 139/93/45 140/95/45 87/94/45
f 140/95/46 141/97/46 89/96/46
f 141/97/47 142/99/47 91/98/47
f 142/99/48 143/101/48 93/100/48
f 143/101/49 144/103/49 95/102/49
f 144/103/50 145/105/50 97/104/50
f 145/105/51 146/107/51 99/106/51
f 146/107/52 147/109/52 101/108/52
f 147/109/53 148/111/53 103/110/53
f 148/111/54 149/113/54 105/112/54
f 149/113/55 150/115/55 107/114/55
f 150/115/56 151/117/56 109/116/56
f 151/117/57 152/119/57 111/118/57
f 152/119/58 153/121/58 113/120/58
f 153/121/59 154/123/59 115/122/59
f 154/123/60 155/125/60 117/124/60
f 155/125/61 156/127/61 119/126/61
f 156/127/62 157/129/62 121/128/62
f 157/129/63 158/131/63 123/130/63
f 158/131/64 159/136/64 125/132/64
f 70/133/65 68/146/65 161/134/65
f 159/136/66 160/138/66 127/137/66
f 160/138/67 130/441/67 65/139/67
f 127/141/68 65/442/68 67/443/68
f 67/443/68 69/444/68 71/445/68
f 71/445/68 73/446/68 75/447/68
f 75/447/68 77/448/68 79/449/68
f 79/449/68 81/450/68 83/451/68
f 83/451/68 85/452/68 87/453/68
f 87/453/68 89/454/68 91/455/68
f 91/455/68 93/456/68 95/142/68
f 95/142/68 97/457/68 99/458/68
f 99/458/68 101/459/68 103/460/68
f 103/460/68 105/461/68 107/462/68
f 107/462/68 109/463/68 111/464/68
f 111/464/68 113/465/68 115/466/68
f 115/466/68 117/467/68 119/140/68
f 119/140/68 121/468/68 123/469/68
f 123/469/68 125/470/68 127/141/68
f 127/141/68 67/443/68 71/445/68
f 71/445/68 75/447/68 79/449/68
f 79/449/68 83/451/68 95/142/68
f 83/451/68 87/453/68 95/142/68
f 87/453/68 91/455/68 95/142/68
f 95/142/68 99/458/68 103/460/68
f 103/460/68 107/462/68 111/464/68
f 111/464/68 115/466/68 119/140/68
f 119/140/68 123/469/68 127/141/68
f 127/141/68 71/445/68 95/142/68
f 71/445/68 79/449/68 95/142/68
f 95/142/68 103/460/68 111/464/68
f 111/464/68 119/140/68 95/142/68
f 66/143/69 68/146/69 129/144/69
f 70/133/69 131/148/69 129/144/69
f 72/147/69 132/150/69 131/148/69
f 74/149/69 133/152/69 132/150/69
f 76/151/69 134/154/69 133/152/69
f 78/153/69 135/156/69 134/154/69
f 78/153/69 80/158/69 136/155/69
f 82/157/69 137/160/69 136/155/69
f 82/157/69 84/162/69 138/159/69
f 86/161/69 139/164/69 138/159/69
f 86/161/69 88/165/69 140/163/69
f 88/165/69 90/167/69 141/166/69
f 90/167/69 92/170/69 142/168/69
f 94/169/69 143/172/69 142/168/69
f 96/171/69 144/174/69 143/172/69
f 98/173/69 145/176/69 144/174/69
f 98/173/69 100/178/69 146/175/69
f 102/177/69 147/180/69 146/175/69
f 104/179/69 148/182/69 147/180/69
f 106/181/69 149/184/69 148/182/69
f 108/183/69 150/186/69 149/184/69
f 110/185/69 151/188/69 150/186/69
f 110/185/69 112/190/69 152/187/69
f 114/189/69 153/192/69 152/187/69
f 114/189/69 116/194/69 154/191/69
f 118/193/69 155/196/69 154/191/69
f 118/193/69 120/197/69 156/195/69
f 120/197/69 122/199/69 157/198/69
f 122/199/69 124/202/69 158/200/69
f 126/201/69 159/204/69 158/200/69
f 128/203/69 160/205/69 159/204/69
f 66/143/69 130/145/69 160/205/69
f 163/208/69 161/471/69 162/472/69
f 162/472/69 192/473/69 191/474/69
f 191/474/69 190/475/69 189/476/69
f 189/476/69 188/477/69 187/478/69
f 187/478/69 186/479/69 185/480/69
f 185/480/69 184/481/69 187/478/69
f 184/481/69 183/482/69 187/478/69
f 183/482/69 182/483/69 181/484/69
f 181/484/69 180/485/69 179/206/69
f 179/206/69 178/486/69 177/487/69
f 177/487/69 176/488/69 175/489/69
f 175/489/69 174/490/69 173/491/69
f 173/491/69 172/492/69 171/207/69
f 171/207/69 170/493/69 169/494/69
f 169/494/69 168/495/69 167/496/69
f 167/496/69 166/497/69 165/498/69
f 165/498/69 164/499/69 163/208/69
f 163/208/69 162/472/69 187/478/69
f 162/472/69 191/474/69 187/478/69
f 191/474/69 189/476/69 187/478/69
f 183/482/69 181/484/69 187/478/69
f 181/484/69 179/206/69 187/478/69
f 179/206/69 177/487/69 171/207/69
f 177/487/69 175/489/69 171/207/69
f 175/489/69 173/491/69 171/207/69
f 171/207/69 169/494/69 163/208/69
f 169/494/69 167/496/69 163/208/69
f 167/496/69 165/498/69 163/208/69
f 163/208/69 187/478/69 179/206/69
f 122/199/70 189/500/70 190/209/70
f 96/171/71 176/501/71 177/210/71
f 72/147/72 70/133/72 163/211/72
f 124/202/73 190/502/73 191/213/73
f 98/173/74 177/503/74 178/214/74
f 74/149/75 72/147/75 164/215/75
f 126/201/76 191/504/76 192/217/76
f 100/178/77 178/505/77 179/218/77
f 76/151/78 74/149/78 165/219/78
f 66/143/79 128/203/79 192/221/79
f 102/177/80 179/506/80 180/223/80
f 78/153/81 76/151/81 166/224/81
f 104/179/82 180/507/82 181/226/82
f 80/158/83 78/153/83 167/227/83
f 106/181/84 181/508/84 182/229/84
f 82/157/85 80/158/85 168/230/85
f 108/183/129 182/509/129 183/232/129
f 84/162/87 82/157/87 169/233/87
f 110/185/88 183/510/88 184/235/88
f 86/161/89 84/162/89 170/236/89
f 112/190/90 184/511/90 185/238/90
f 88/165/91 86/161/91 171/239/91
f 114/189/92 185/512/92 186/241/92
f 90/167/93 88/165/93 172/242/93
f 116/194/130 186/513/130 187/244/130
f 92/170/95 90/167/95 173/245/95
f 118/193/96 187/514/96 188/247/96
f 94/169/97 92/170/97 174/248/97
f 68/146/98 66/143/98 162/222/98
f 120/197/99 188/515/99 189/251/99
f 96/171/100 94/169/100 175/252/100
f 209/254/101 196/516/101 194/255/101
f 215/257/69 210/293/69 206/258/69
f 202/260/31 197/517/31 208/261/31
f 198/263/68 204/279/68 200/264/68
f 203/266/102 216/290/102 212/267/102
f 193/269/111 195/271/111 200/275/111
f 196/272/112 198/263/112 195/265/112
f 202/277/113 204/279/113 198/263/113
f 201/268/114 200/264/114 204/279/114
f 199/274/115 201/276/115 212/286/115
f 214/288/116 216/290/116 203/266/116
f 213/259/117 212/267/117 216/290/117
f 211/285/118 213/259/118 206/258/118
f 208/261/119 210/293/119 215/257/119
f 207/256/120 206/258/120 210/293/120
f 205/280/121 207/282/121 194/270/121
f 197/294/122 196/516/122 209/254/122
f 211/285/34 205/280/34 193/269/34
f 220/295/68 219/323/68 233/296/68
f 217/298/68 227/327/68 231/299/68
f 224/301/123 225/317/123 223/302/123
f 221/304/69 236/518/69 234/305/69
f 223/302/69 235/325/69 237/307/69
f 228/308/101 227/327/101 217/298/101
f 225/313/124 220/295/124 243/314/124
f 244/316/125 223/302/125 225/317/125
f 229/306/101 228/308/101 226/309/101
f 220/295/126 225/313/126 224/322/126
f 245/324/127 218/519/127 229/306/127
f 227/327/128 218/520/128 241/328/128
f 243/332/101 230/297/101 235/325/101
f 230/297/101 233/296/101 239/521/101
f 239/521/101 237/307/101 235/325/101
f 230/297/101 239/521/101 235/325/101
f 244/331/101 242/522/101 243/332/101
f 232/300/102 231/299/102 238/333/102
f 231/299/102 241/312/102 240/311/102
f 236/518/102 238/523/102 234/305/102
f 238/523/102 240/319/102 234/305/102
f 247/334/68 249/337/68 248/335/68
f 249/337/102 253/339/102 252/338/102
f 253/339/69 251/341/69 250/340/69
f 251/341/101 247/524/101 246/342/101
f 252/338/34 250/340/34 246/343/34
f 249/345/31 247/525/31 251/341/31
f 255/346/68 257/349/68 256/347/68
f 257/349/102 261/351/102 260/350/102
f 261/351/69 259/353/69 258/352/69
f 259/353/101 255/526/101 254/354/101
f 260/350/34 258/352/34 254/355/34
f 257/357/31 255/527/31 259/353/31
f 263/358/68 265/361/68 264/359/68
f 265/361/102 269/363/102 268/362/102
f 269/363/69 267/365/69 266/364/69
f 267/365/101 263/528/101 262/366/101
f 268/362/34 266/364/34 262/367/34
f 265/369/31 263/529/31 267/365/31
f 271/370/68 273/373/68 272/371/68
f 273/373/102 277/375/102 276/374/102
f 277/375/69 275/377/69 274/376/69
f 275/377/101 271/530/101 270/378/101
f 276/374/34 274/376/34 270/379/34
f 273/381/31 271/531/31 275/377/31
