# Blender 5.0.1
# www.blender.org
mtllib testVaus.mtl
o player
v -0.000000 -0.448163 -0.000000
v -0.000000 -0.406542 0.155332
v -0.000000 -0.292831 0.269042
v -0.000000 -0.137499 0.310663
v -0.000000 0.017832 0.269042
v -0.000000 0.131543 0.155332
v -0.000000 0.173164 0.000000
v -0.000000 0.207269 -0.155332
v -0.000000 0.093558 -0.269042
v -0.000000 -0.061773 -0.310663
v -0.000000 -0.217105 -0.269042
v -0.000000 -0.330816 -0.155332
v 0.851543 -0.392350 -0.000000
v 0.846111 -0.351085 0.155332
v 0.831269 -0.238347 0.269042
v 0.810994 -0.084344 0.310663
v 0.790719 0.069659 0.269042
v 0.775877 0.182397 0.155332
v 0.770444 0.223662 -0.000000
v 0.775877 0.258122 -0.155332
v 0.790719 0.145384 -0.269042
v 0.810994 -0.008618 -0.310663
v 0.831269 -0.162621 -0.269042
v 0.846111 -0.275359 -0.155332
v 1.688517 -0.225865 -0.000000
v 1.677745 -0.185662 0.155332
v 1.648314 -0.075826 0.269042
v 1.608111 0.074213 0.310663
v 1.567909 0.224251 0.269042
v 1.538478 0.334088 0.155332
v 1.527706 0.374291 -0.000000
v 1.538478 0.409814 -0.155332
v 1.567909 0.299977 -0.269042
v 1.608111 0.149939 -0.310663
v 1.648314 -0.000100 -0.269042
v 1.677745 -0.109937 -0.155332
v -1.688516 -0.225865 0.000000
v -1.677744 -0.185663 0.155332
v -1.648313 -0.075827 0.269042
v -1.608111 0.074212 0.310663
v -1.567908 0.224251 0.269042
v -1.538478 0.334088 0.155332
v -1.527705 0.374290 0.000000
v -1.538478 0.409814 -0.155332
v -1.567908 0.299977 -0.269042
v -1.608111 0.149938 -0.310663
v -1.648313 -0.000101 -0.269042
v -1.677744 -0.109937 -0.155332
v -0.851544 -0.392350 0.000000
v -0.846111 -0.351085 0.155332
v -0.831269 -0.238347 0.269042
v -0.810994 -0.084344 0.310663
v -0.790720 0.069659 0.269042
v -0.775877 0.182397 0.155332
v -0.770445 0.223662 0.000000
v -0.775877 0.258122 -0.155332
v -0.790720 0.145384 -0.269042
v -0.810994 -0.008618 -0.310663
v -0.831269 -0.162621 -0.269042
v -0.846111 -0.275359 -0.155332
vn 0.0632 -0.9640 0.2583
vn 0.0463 -0.7063 0.7063
vn 0.0170 -0.2588 0.9658
vn -0.0170 0.2588 0.9658
vn -0.0463 0.7063 0.7063
vn -0.0632 0.9640 0.2583
vn -0.0639 0.9747 0.2140
vn -0.0463 0.7063 -0.7063
vn -0.0170 0.2588 -0.9658
vn 0.0170 -0.2588 -0.9658
vn 0.0463 -0.7063 -0.7063
vn 0.0522 -0.7968 -0.6020
vn 0.1885 -0.9475 0.2583
vn 0.1381 -0.6943 0.7064
vn 0.0506 -0.2544 0.9658
vn -0.0506 0.2544 0.9658
vn -0.1381 0.6943 0.7063
vn -0.1885 0.9475 0.2583
vn -0.1909 0.9597 0.2062
vn -0.1381 0.6943 -0.7063
vn -0.0506 0.2544 -0.9658
vn 0.0506 -0.2544 -0.9658
vn 0.1381 -0.6943 -0.7064
vn 0.1564 -0.7863 -0.5977
vn -0.1885 -0.9475 0.2583
vn -0.1381 -0.6943 0.7063
vn -0.0506 -0.2544 0.9658
vn 0.0506 0.2544 0.9658
vn 0.1381 0.6943 0.7063
vn 0.1885 0.9475 0.2583
vn 0.1909 0.9597 0.2062
vn 0.1381 0.6943 -0.7063
vn 0.0506 0.2544 -0.9658
vn -0.0506 -0.2544 -0.9658
vn -0.1381 -0.6943 -0.7063
vn -0.1564 -0.7863 -0.5977
vn -0.0632 -0.9640 0.2583
vn -0.0463 -0.7063 0.7064
vn -0.0170 -0.2588 0.9658
vn 0.0170 0.2588 0.9658
vn 0.0463 0.7063 0.7063
vn 0.0632 0.9640 0.2583
vn 0.0639 0.9747 0.2140
vn 0.0463 0.7063 -0.7063
vn 0.0170 0.2588 -0.9658
vn -0.0170 -0.2588 -0.9658
vn -0.0463 -0.7063 -0.7064
vn -0.0522 -0.7968 -0.6020
vn 0.0463 -0.7063 0.7064
vn 0.0463 -0.7063 -0.7064
vn 0.1381 -0.6943 0.7063
vn 0.1381 -0.6943 -0.7063
vn -0.1381 -0.6943 0.7064
vn -0.1381 -0.6943 -0.7064
vn -0.0463 -0.7063 0.7063
vn -0.0463 -0.7063 -0.7063
vt 0.500000 0.500000
vt 0.520833 0.583333
vt 0.500000 0.583333
vt 0.500000 0.666667
vt 0.520833 0.750000
vt 0.500000 0.750000
vt 0.500000 0.833333
vt 0.520833 0.916667
vt 0.500000 0.916667
vt 0.500000 1.000000
vt 0.520833 0.000000
vt 0.500000 0.083333
vt 0.500000 0.000000
vt 0.520833 0.166667
vt 0.500000 0.166667
vt 0.500000 0.250000
vt 0.520833 0.250000
vt 0.500000 0.333333
vt 0.520833 0.416667
vt 0.500000 0.416667
vt 0.520833 0.500000
vt 0.541667 0.583333
vt 0.541667 0.666667
vt 0.520833 0.666667
vt 0.541667 0.750000
vt 0.520833 0.833333
vt 0.541667 0.833333
vt 0.541667 0.916667
vt 0.520833 1.000000
vt 0.541667 0.000000
vt 0.520833 0.083333
vt 0.541667 0.166667
vt 0.541667 0.250000
vt 0.541667 0.333333
vt 0.520833 0.333333
vt 0.541667 0.500000
vt 0.458333 0.500000
vt 0.479167 0.583333
vt 0.458333 0.583333
vt 0.458333 0.666667
vt 0.479167 0.750000
vt 0.458333 0.750000
vt 0.479167 0.833333
vt 0.458333 0.833333
vt 0.479167 0.916667
vt 0.458333 0.916667
vt 0.458333 1.000000
vt 0.458333 0.000000
vt 0.479167 0.083333
vt 0.458333 0.083333
vt 0.458333 0.166667
vt 0.479167 0.166667
vt 0.458333 0.250000
vt 0.479167 0.250000
vt 0.458333 0.333333
vt 0.479167 0.333333
vt 0.458333 0.416667
vt 0.479167 0.416667
vt 0.479167 0.500000
vt 0.479167 0.666667
vt 0.479167 1.000000
vt 0.479167 0.000000
vt 0.541667 1.000000
vt 0.541667 0.083333
vt 0.541667 0.416667
s 0
f 1/1/1 14/2/1 2/3/1
f 14/2/2 3/4/2 2/3/2
f 3/4/3 16/5/3 4/6/3
f 16/5/4 5/7/4 4/6/4
f 5/7/5 18/8/5 6/9/5
f 18/8/6 7/10/6 6/9/6
f 19/11/7 8/12/7 7/13/7
f 8/12/8 21/14/8 9/15/8
f 21/14/9 10/16/9 9/15/9
f 22/17/10 11/18/10 10/16/10
f 11/18/11 24/19/11 12/20/11
f 12/20/12 13/21/12 1/1/12
f 13/21/13 26/22/13 14/2/13
f 14/2/14 27/23/14 15/24/14
f 27/23/15 16/5/15 15/24/15
f 28/25/16 17/26/16 16/5/16
f 29/27/17 18/8/17 17/26/17
f 30/28/18 19/29/18 18/8/18
f 31/30/19 20/31/19 19/11/19
f 20/31/20 33/32/20 21/14/20
f 21/14/21 34/33/21 22/17/21
f 22/17/22 35/34/22 23/35/22
f 35/34/23 24/19/23 23/35/23
f 24/19/24 25/36/24 13/21/24
f 37/37/25 50/38/25 38/39/25
f 50/38/26 39/40/26 38/39/26
f 39/40/27 52/41/27 40/42/27
f 40/42/28 53/43/28 41/44/28
f 41/44/29 54/45/29 42/46/29
f 54/45/30 43/47/30 42/46/30
f 43/48/31 56/49/31 44/50/31
f 56/49/32 45/51/32 44/50/32
f 57/52/33 46/53/33 45/51/33
f 58/54/34 47/55/34 46/53/34
f 59/56/35 48/57/35 47/55/35
f 60/58/36 37/37/36 48/57/36
f 1/1/37 50/38/37 49/59/37
f 2/3/38 51/60/38 50/38/38
f 3/4/39 52/41/39 51/60/39
f 4/6/40 53/43/40 52/41/40
f 5/7/41 54/45/41 53/43/41
f 6/9/42 55/61/42 54/45/42
f 55/62/43 8/12/43 56/49/43
f 56/49/44 9/15/44 57/52/44
f 9/15/45 58/54/45 57/52/45
f 10/16/46 59/56/46 58/54/46
f 59/56/47 12/20/47 60/58/47
f 12/20/48 49/59/48 60/58/48
f 1/1/1 13/21/1 14/2/1
f 14/2/49 15/24/49 3/4/49
f 3/4/3 15/24/3 16/5/3
f 16/5/4 17/26/4 5/7/4
f 5/7/5 17/26/5 18/8/5
f 18/8/6 19/29/6 7/10/6
f 19/11/7 20/31/7 8/12/7
f 8/12/8 20/31/8 21/14/8
f 21/14/9 22/17/9 10/16/9
f 22/17/10 23/35/10 11/18/10
f 11/18/50 23/35/50 24/19/50
f 12/20/12 24/19/12 13/21/12
f 13/21/13 25/36/13 26/22/13
f 14/2/51 26/22/51 27/23/51
f 27/23/15 28/25/15 16/5/15
f 28/25/16 29/27/16 17/26/16
f 29/27/17 30/28/17 18/8/17
f 30/28/18 31/63/18 19/29/18
f 31/30/19 32/64/19 20/31/19
f 20/31/20 32/64/20 33/32/20
f 21/14/21 33/32/21 34/33/21
f 22/17/22 34/33/22 35/34/22
f 35/34/52 36/65/52 24/19/52
f 24/19/24 36/65/24 25/36/24
f 37/37/25 49/59/25 50/38/25
f 50/38/53 51/60/53 39/40/53
f 39/40/27 51/60/27 52/41/27
f 40/42/28 52/41/28 53/43/28
f 41/44/29 53/43/29 54/45/29
f 54/45/30 55/61/30 43/47/30
f 43/48/31 55/62/31 56/49/31
f 56/49/32 57/52/32 45/51/32
f 57/52/33 58/54/33 46/53/33
f 58/54/34 59/56/34 47/55/34
f 59/56/54 60/58/54 48/57/54
f 60/58/36 49/59/36 37/37/36
f 1/1/37 2/3/37 50/38/37
f 2/3/55 3/4/55 51/60/55
f 3/4/39 4/6/39 52/41/39
f 4/6/40 5/7/40 53/43/40
f 5/7/41 6/9/41 54/45/41
f 6/9/42 7/10/42 55/61/42
f 55/62/43 7/13/43 8/12/43
f 56/49/44 8/12/44 9/15/44
f 9/15/45 10/16/45 58/54/45
f 10/16/46 11/18/46 59/56/46
f 59/56/56 11/18/56 12/20/56
f 12/20/48 1/1/48 49/59/48
