# Blender 4.4.1
# www.blender.org
mtllib Shot.mtl
o 円錐
v -0.000000 0.282431 0.109209
v 0.199709 0.199709 0.109209
v 0.282431 0.000000 0.109209
v 0.199709 -0.199709 0.109209
v -0.000000 -0.282431 0.109209
v -0.199709 -0.199709 0.109209
v -0.282431 0.000000 0.109209
v -0.199709 0.199709 0.109209
v -0.000000 0.000000 0.674071
v -0.000000 0.282431 -0.325930
v 0.199709 0.199709 -0.325930
v 0.282431 0.000000 -0.325930
v 0.199709 -0.199709 -0.325930
v -0.000000 -0.282431 -0.325930
v -0.199709 -0.199709 -0.325930
v -0.282431 0.000000 -0.325930
v -0.199709 0.199709 -0.325930
vn 0.3474 0.8387 0.4194
vn 0.8387 0.3474 0.4194
vn 0.8387 -0.3474 0.4194
vn 0.3474 -0.8387 0.4194
vn -0.3474 -0.8387 0.4194
vn -0.8387 -0.3474 0.4194
vn -0.3827 0.9239 -0.0000
vn -0.8387 0.3474 0.4194
vn -0.3474 0.8387 0.4194
vn -0.0000 -0.0000 -1.0000
vn -0.9239 0.3827 -0.0000
vn -0.9239 -0.3827 -0.0000
vn 0.3827 0.9239 -0.0000
vn -0.3827 -0.9239 -0.0000
vn 0.3827 -0.9239 -0.0000
vn 0.9239 -0.3827 -0.0000
vn 0.9239 0.3827 -0.0000
vt 0.251943 0.329560
vt 0.484888 0.233072
vt 0.388399 0.466016
vt 0.581377 0.466016
vt 0.717833 0.329560
vt 0.717833 0.136583
vt 0.581377 0.000127
vt 0.388399 0.000127
vt 0.251689 0.999873
vt 0.000127 0.874905
vt 0.251689 0.874905
vt 0.251943 0.136583
vt 0.340309 0.767970
vt 0.251943 0.554636
vt 0.465277 0.466270
vt 0.000127 0.749937
vt 0.251689 0.749937
vt 0.000127 0.624968
vt 0.251689 0.624968
vt 0.251689 0.125095
vt 0.000127 0.000127
vt 0.251689 0.000127
vt 0.000127 0.500000
vt 0.251689 0.500000
vt 0.000127 0.375032
vt 0.251689 0.375032
vt 0.000127 0.250063
vt 0.251689 0.250063
vt 0.000127 0.125095
vt 0.000127 0.999873
vt 0.553643 0.554636
vt 0.553643 0.679604
vt 0.465277 0.767970
vt 0.251943 0.679604
vt 0.340309 0.466270
s 0
usemtl マテリアル
f 1/1/1 9/2/1 2/3/1
f 2/3/2 9/2/2 3/4/2
f 3/4/3 9/2/3 4/5/3
f 4/5/4 9/2/4 5/6/4
f 5/6/5 9/2/5 6/7/5
f 6/7/6 9/2/6 7/8/6
f 1/9/7 17/10/7 8/11/7
f 7/8/8 9/2/8 8/12/8
f 8/12/9 9/2/9 1/1/9
f 13/13/10 15/14/10 17/15/10
f 8/11/11 16/16/11 7/17/11
f 7/17/12 15/18/12 6/19/12
f 2/20/13 10/21/13 1/22/13
f 6/19/14 14/23/14 5/24/14
f 5/24/15 13/25/15 4/26/15
f 4/26/16 12/27/16 3/28/16
f 2/20/17 12/27/17 11/29/17
f 1/9/7 10/30/7 17/10/7
f 17/15/10 10/31/10 11/32/10
f 11/32/10 12/33/10 13/13/10
f 13/13/10 14/34/10 15/14/10
f 15/14/10 16/35/10 17/15/10
f 17/15/10 11/32/10 13/13/10
f 8/11/11 17/10/11 16/16/11
f 7/17/12 16/16/12 15/18/12
f 2/20/13 11/29/13 10/21/13
f 6/19/14 15/18/14 14/23/14
f 5/24/15 14/23/15 13/25/15
f 4/26/16 13/25/16 12/27/16
f 2/20/17 3/28/17 12/27/17
