# Blender 4.4.1
# www.blender.org
mtllib Build.mtl
o Cube
v 0.499999 0.166666 -0.331151
v 0.331151 0.166666 -0.499999
v 0.331151 -0.166666 -0.499999
v 0.499999 -0.166666 -0.331151
v 0.331151 0.166666 0.499999
v 0.499999 0.166666 0.331151
v 0.499999 -0.166666 0.331151
v 0.331151 -0.166666 0.499999
v -0.331151 0.166666 -0.499999
v -0.499999 0.166666 -0.331151
v -0.499999 -0.166666 -0.331151
v -0.331151 -0.166666 -0.499999
v -0.499999 0.166666 0.331151
v -0.331151 0.166666 0.499999
v -0.331151 -0.166666 0.499999
v -0.499999 -0.166666 0.331151
vn -0.0000 -1.0000 -0.0000
vn -1.0000 -0.0000 -0.0000
vn -0.0000 -0.0000 1.0000
vn -0.0000 1.0000 -0.0000
vn 1.0000 -0.0000 -0.0000
vn 0.7071 -0.0000 -0.7071
vn -0.7071 -0.0000 0.7071
vn 0.7071 -0.0000 0.7071
vn -0.7071 -0.0000 -0.7071
vn -0.0000 -0.0000 -1.0000
vt 0.545657 0.229978
vt 0.501008 0.454994
vt 0.275992 0.410344
vt 0.257692 0.546259
vt 0.078144 0.456913
vt 0.257283 0.456100
vt 0.501417 0.545153
vt 0.321869 0.455807
vt 0.277629 0.770982
vt 0.322279 0.545966
vt 0.547294 0.590616
vt 0.745142 0.544047
vt 0.565595 0.454701
vt 0.744733 0.453888
vt 0.809729 0.543754
vt 0.566004 0.544860
vt 0.013557 0.457206
vt 0.078553 0.547072
vt 0.013967 0.547366
vt 0.988868 0.542941
vt 0.809320 0.453595
vt 0.988459 0.452782
vt 0.275179 0.231206
vt 0.320642 0.185329
vt 0.499780 0.184516
vt 0.546470 0.409117
vt 0.548107 0.769754
vt 0.502645 0.815631
vt 0.323506 0.816444
vt 0.276816 0.591843
s 0
usemtl Material
f 4/1/1 8/2/1 16/3/1
f 13/4/2 11/5/2 16/6/2
f 5/7/3 15/8/3 8/2/3
f 10/9/4 14/10/4 6/11/4
f 1/12/5 7/13/5 4/14/5
f 4/14/6 2/15/6 1/12/6
f 14/10/7 16/6/7 15/8/7
f 8/2/8 6/16/8 5/7/8
f 12/17/9 10/18/9 9/19/9
f 9/20/10 3/21/10 12/22/10
f 16/3/1 11/23/1 12/24/1
f 12/24/1 3/25/1 4/1/1
f 4/1/1 7/26/1 8/2/1
f 8/2/1 15/8/1 16/3/1
f 16/3/1 12/24/1 4/1/1
f 13/4/2 10/18/2 11/5/2
f 5/7/3 14/10/3 15/8/3
f 6/11/4 1/27/4 2/28/4
f 2/28/4 9/29/4 10/9/4
f 10/9/4 13/30/4 14/10/4
f 14/10/4 5/7/4 6/11/4
f 6/11/4 2/28/4 10/9/4
f 1/12/5 6/16/5 7/13/5
f 4/14/6 3/21/6 2/15/6
f 14/10/7 13/4/7 16/6/7
f 8/2/8 7/13/8 6/16/8
f 12/17/9 11/5/9 10/18/9
f 9/20/10 2/15/10 3/21/10
