{
	"asset":{
		"generator":"Khronos glTF Blender I/O v5.0.21",
		"version":"2.0"
	},
	"scene":0,
	"scenes":[
		{
			"name":"Scene",
			"nodes":[
				25
			]
		}
	],
	"nodes":[
		{
			"name":"\u30dc\u30fc\u30f3.004",
			"rotation":[
				-3.5527083848445806e-15,
				3.552713678800501e-15,
				-1.7763568394002505e-15,
				1
			],
			"translation":[
				6.511332847956939e-16,
				0.10996641218662262,
				-7.450580596923828e-09
			]
		},
		{
			"children":[
				0
			],
			"name":"\u30dc\u30fc\u30f3.003",
			"rotation":[
				-0.07265712320804596,
				-3.3394954218836554e-16,
				-1.732280097144212e-08,
				0.9973569512367249
			],
			"scale":[
				1,
				0.9999999403953552,
				0.9999999403953552
			],
			"translation":[
				-4.4803900918640414e-15,
				0.09031219780445099,
				1.4901161193847656e-08
			]
		},
		{
			"name":"\u30dc\u30fc\u30f3.008",
			"rotation":[
				2.5871350824461722e-17,
				0,
				-4.563453199931342e-17,
				1
			],
			"translation":[
				-2.2838664293090005e-08,
				0.2688062787055969,
				-1.4250787216951721e-09
			]
		},
		{
			"children":[
				2
			],
			"name":"\u30dc\u30fc\u30f3.007",
			"rotation":[
				-1.7504855944549071e-15,
				1.4210854715202004e-14,
				-4.494591340378589e-16,
				1
			],
			"translation":[
				-2.2838667845803684e-08,
				0.2825520634651184,
				-1.425037643443261e-09
			]
		},
		{
			"children":[
				3
			],
			"name":"\u30dc\u30fc\u30f3.006",
			"rotation":[
				-5.67377211879716e-09,
				-1.5048843238218979e-07,
				0.08248061686754227,
				0.9965927004814148
			],
			"scale":[
				0.9999999403953552,
				0.9999999403953552,
				1
			],
			"translation":[
				5.28934478438714e-08,
				0.15793432295322418,
				9.468652528710209e-10
			]
		},
		{
			"children":[
				4
			],
			"name":"\u30dc\u30fc\u30f3.005",
			"rotation":[
				-0.04696357250213623,
				-0.05543885380029678,
				-0.7610033750534058,
				0.6446664333343506
			],
			"scale":[
				1.0000001192092896,
				1,
				1
			],
			"translation":[
				-4.4803900918640414e-15,
				0.09031219780445099,
				1.4901161193847656e-08
			]
		},
		{
			"name":"\u30dc\u30fc\u30f3.016",
			"rotation":[
				6.266576722147398e-17,
				0,
				-1.330739838539331e-18,
				1
			],
			"translation":[
				1.3299654710863251e-09,
				0.2688062787055969,
				-3.753356736524438e-09
			]
		},
		{
			"children":[
				6
			],
			"name":"\u30dc\u30fc\u30f3.015",
			"rotation":[
				7.377506537533524e-14,
				2.0940568390415137e-08,
				-8.274298579635797e-09,
				1
			],
			"translation":[
				1.332406629472871e-09,
				0.282552033662796,
				7.875256002876085e-12
			]
		},
		{
			"children":[
				7
			],
			"name":"\u30dc\u30fc\u30f3.014",
			"rotation":[
				-0.05832257866859436,
				-0.704697847366333,
				-0.05832261964678764,
				0.7046970725059509
			],
			"scale":[
				1,
				0.9999998807907104,
				0.9999999403953552
			],
			"translation":[
				4.781829687772188e-08,
				0.15793432295322418,
				4.152566290827053e-09
			]
		},
		{
			"children":[
				8
			],
			"name":"\u30dc\u30fc\u30f3.013",
			"rotation":[
				-0.04696418344974518,
				0.055439069867134094,
				0.7610033750534058,
				0.6446664333343506
			],
			"translation":[
				-4.4803900918640414e-15,
				0.09031219780445099,
				1.4901161193847656e-08
			]
		},
		{
			"children":[
				1,
				5,
				9
			],
			"name":"\u30dc\u30fc\u30f3.002",
			"rotation":[
				0.29998838901519775,
				9.310604155669398e-16,
				7.15227770342608e-08,
				0.9539428949356079
			],
			"scale":[
				1,
				0.9999998807907104,
				1
			],
			"translation":[
				4.401394105137211e-15,
				0.16899892687797546,
				7.450580596923828e-09
			]
		},
		{
			"children":[
				10
			],
			"name":"\u30dc\u30fc\u30f3.001",
			"rotation":[
				-0.37182551622390747,
				1.1481321535861122e-14,
				-8.865008283009956e-08,
				0.9283026456832886
			],
			"translation":[
				-4.4803900918640414e-15,
				0.1294352263212204,
				1.862645149230957e-09
			]
		},
		{
			"name":"\u30dc\u30fc\u30f3.012",
			"rotation":[
				-0.006397288758307695,
				-0.0007914838497526944,
				-0.6593620181083679,
				0.7517980337142944
			],
			"translation":[
				2.35741026699543e-09,
				0.47803616523742676,
				7.725247996859252e-09
			]
		},
		{
			"children":[
				12
			],
			"name":"\u30dc\u30fc\u30f3.011",
			"rotation":[
				0.02109917812049389,
				-0.000637893914245069,
				0.02631399594247341,
				0.9994308352470398
			],
			"scale":[
				0.9999999403953552,
				1.0000001192092896,
				0.9999998807907104
			],
			"translation":[
				-1.5067165293203288e-09,
				0.47286683320999146,
				-2.0216608387357837e-09
			]
		},
		{
			"children":[
				13
			],
			"name":"\u30dc\u30fc\u30f3.010",
			"rotation":[
				-0.4520500600337982,
				-2.4781069441814907e-05,
				-4.9281097744824365e-05,
				0.8919925689697266
			],
			"scale":[
				1,
				0.9999998211860657,
				0.9999999403953552
			],
			"translation":[
				4.129343977865574e-09,
				0.12464183568954468,
				-2.1532610361418847e-08
			]
		},
		{
			"children":[
				14
			],
			"name":"\u30dc\u30fc\u30f3.009",
			"rotation":[
				-0.670768141746521,
				-0.4108630120754242,
				-0.5754924416542053,
				0.22376374900341034
			],
			"scale":[
				0.9999997019767761,
				0.9999997019767761,
				0.9999999403953552
			],
			"translation":[
				-1.515668368590184e-09,
				-0.00434529036283493,
				0.006357166916131973
			]
		},
		{
			"name":"\u30dc\u30fc\u30f3.020",
			"rotation":[
				0.028197694569826126,
				0.02954559400677681,
				-0.6587898135185242,
				0.7512176632881165
			],
			"scale":[
				0.9999999403953552,
				1,
				1
			],
			"translation":[
				-2.2118911147117615e-09,
				0.4780362546443939,
				-1.1932570487260818e-09
			]
		},
		{
			"children":[
				16
			],
			"name":"\u30dc\u30fc\u30f3.019",
			"rotation":[
				-0.02103089727461338,
				-0.001952591584995389,
				0.02636857144534588,
				0.9994291663169861
			],
			"scale":[
				0.9999999403953552,
				0.9999999403953552,
				0.9999999403953552
			],
			"translation":[
				8.789662331309955e-10,
				0.4728666841983795,
				-2.1554882323471247e-09
			]
		},
		{
			"children":[
				17
			],
			"name":"\u30dc\u30fc\u30f3.018",
			"rotation":[
				0.4520496428012848,
				2.549979035393335e-05,
				-4.919610728393309e-05,
				0.8919928073883057
			],
			"scale":[
				1,
				0.9999999403953552,
				1
			],
			"translation":[
				-8.305782728257327e-10,
				0.12464182823896408,
				-3.097134282370462e-08
			]
		},
		{
			"children":[
				18
			],
			"name":"\u30dc\u30fc\u30f3.017",
			"rotation":[
				0.5754926800727844,
				-0.22376367449760437,
				0.670768141746521,
				0.4108627140522003
			],
			"scale":[
				1,
				1,
				0.9999999403953552
			],
			"translation":[
				-1.515668368590184e-09,
				-0.00434529036283493,
				0.006357166916131973
			]
		},
		{
			"children":[
				11,
				15,
				19
			],
			"name":"\u30dc\u30fc\u30f3",
			"rotation":[
				0.1484646201133728,
				1.1788813480961835e-07,
				1.769836366349864e-08,
				0.9889177680015564
			],
			"scale":[
				1,
				0.9999998807907104,
				0.9999998211860657
			],
			"translation":[
				-7.98428310769052e-18,
				1.0801702737808228,
				-0.06528232991695404
			]
		},
		{
			"mesh":0,
			"name":"\u30ba\u30dc\u30f3",
			"skin":0
		},
		{
			"mesh":1,
			"name":"\u524d\u9aea",
			"skin":0
		},
		{
			"mesh":2,
			"name":"\u80f4\u4f53",
			"skin":0
		},
		{
			"mesh":3,
			"name":"\u9854",
			"skin":0
		},
		{
			"children":[
				21,
				22,
				23,
				24,
				20
			],
			"name":"\u30a2\u30fc\u30de\u30c1\u30e5\u30a2"
		}
	],
	"materials":[
		{
			"doubleSided":true,
			"name":"\u30de\u30c6\u30ea\u30a2\u30eb",
			"pbrMetallicRoughness":{
				"baseColorTexture":{
					"index":0
				},
				"metallicFactor":0,
				"roughnessFactor":0.5
			}
		},
		{
			"doubleSided":true,
			"name":"kao",
			"pbrMetallicRoughness":{
				"baseColorTexture":{
					"index":1
				},
				"metallicFactor":0,
				"roughnessFactor":0.5
			}
		}
	],
	"meshes":[
		{
			"name":"\u7acb\u65b9\u4f53.107",
			"primitives":[
				{
					"attributes":{
						"POSITION":0,
						"NORMAL":1,
						"TEXCOORD_0":2,
						"TEXCOORD_1":3,
						"JOINTS_0":4,
						"WEIGHTS_0":5
					},
					"indices":6,
					"material":0
				}
			]
		},
		{
			"name":"\u7acb\u65b9\u4f53.033",
			"primitives":[
				{
					"attributes":{
						"POSITION":8,
						"NORMAL":9,
						"TEXCOORD_0":10,
						"TEXCOORD_1":11,
						"JOINTS_0":12,
						"WEIGHTS_0":13
					},
					"indices":14,
					"material":0
				}
			]
		},
		{
			"name":"\u7acb\u65b9\u4f53.106",
			"primitives":[
				{
					"attributes":{
						"POSITION":15,
						"NORMAL":16,
						"TEXCOORD_0":17,
						"TEXCOORD_1":18,
						"JOINTS_0":19,
						"WEIGHTS_0":20
					},
					"indices":21,
					"material":0
				}
			]
		},
		{
			"name":"\u7acb\u65b9\u4f53.105",
			"primitives":[
				{
					"attributes":{
						"POSITION":22,
						"NORMAL":23,
						"TEXCOORD_0":24,
						"TEXCOORD_1":25,
						"JOINTS_0":26,
						"WEIGHTS_0":27
					},
					"indices":28,
					"material":1
				}
			]
		}
	],
	"textures":[
		{
			"sampler":0,
			"source":0
		},
		{
			"sampler":0,
			"source":1
		}
	],
	"images":[
		{
			"mimeType":"image/png",
			"name":"white4x4",
			"uri":"white4x4.png"
		},
		{
			"mimeType":"image/png",
			"name":"FaceUv",
			"uri":"FaceUv.png"
		}
	],
	"skins":[
		{
			"inverseBindMatrices":7,
			"joints":[
				20,
				11,
				10,
				1,
				0,
				5,
				4,
				3,
				2,
				9,
				8,
				7,
				6,
				15,
				14,
				13,
				12,
				19,
				18,
				17,
				16
			],
			"name":"\u30a2\u30fc\u30de\u30c1\u30e5\u30a2"
		}
	],
	"accessors":[
		{
			"bufferView":0,
			"componentType":5126,
			"count":218,
			"max":[
				0.16429999470710754,
				1.172985315322876,
				0.061991482973098755
			],
			"min":[
				-0.16429999470710754,
				0.0854756236076355,
				-0.1935059130191803
			],
			"type":"VEC3"
		},
		{
			"bufferView":1,
			"componentType":5126,
			"count":218,
			"type":"VEC3"
		},
		{
			"bufferView":2,
			"componentType":5126,
			"count":218,
			"type":"VEC2"
		},
		{
			"bufferView":3,
			"componentType":5126,
			"count":218,
			"type":"VEC2"
		},
		{
			"bufferView":4,
			"componentType":5121,
			"count":218,
			"type":"VEC4"
		},
		{
			"bufferView":5,
			"componentType":5126,
			"count":218,
			"type":"VEC4"
		},
		{
			"bufferView":6,
			"componentType":5123,
			"count":1062,
			"type":"SCALAR"
		},
		{
			"bufferView":7,
			"componentType":5126,
			"count":21,
			"type":"MAT4"
		},
		{
			"bufferView":8,
			"componentType":5126,
			"count":417,
			"max":[
				0.17140239477157593,
				1.9142006635665894,
				0.12609651684761047
			],
			"min":[
				-0.169438898563385,
				1.5032916069030762,
				-0.2802037298679352
			],
			"type":"VEC3"
		},
		{
			"bufferView":9,
			"componentType":5126,
			"count":417,
			"type":"VEC3"
		},
		{
			"bufferView":10,
			"componentType":5126,
			"count":417,
			"type":"VEC2"
		},
		{
			"bufferView":11,
			"componentType":5126,
			"count":417,
			"type":"VEC2"
		},
		{
			"bufferView":12,
			"componentType":5121,
			"count":417,
			"type":"VEC4"
		},
		{
			"bufferView":13,
			"componentType":5126,
			"count":417,
			"type":"VEC4"
		},
		{
			"bufferView":14,
			"componentType":5123,
			"count":621,
			"type":"SCALAR"
		},
		{
			"bufferView":15,
			"componentType":5126,
			"count":488,
			"max":[
				0.9042565226554871,
				1.6042237281799316,
				0.13454276323318481
			],
			"min":[
				-0.9042565226554871,
				0.00035440921783447266,
				-0.16188311576843262
			],
			"type":"VEC3"
		},
		{
			"bufferView":16,
			"componentType":5126,
			"count":488,
			"type":"VEC3"
		},
		{
			"bufferView":17,
			"componentType":5126,
			"count":488,
			"type":"VEC2"
		},
		{
			"bufferView":18,
			"componentType":5126,
			"count":488,
			"type":"VEC2"
		},
		{
			"bufferView":19,
			"componentType":5121,
			"count":488,
			"type":"VEC4"
		},
		{
			"bufferView":20,
			"componentType":5126,
			"count":488,
			"type":"VEC4"
		},
		{
			"bufferView":21,
			"componentType":5123,
			"count":2604,
			"type":"SCALAR"
		},
		{
			"bufferView":22,
			"componentType":5126,
			"count":119,
			"max":[
				0.138902485370636,
				1.880367636680603,
				0.10192938894033432
			],
			"min":[
				-0.138902485370636,
				1.5339009761810303,
				-0.25531449913978577
			],
			"type":"VEC3"
		},
		{
			"bufferView":23,
			"componentType":5126,
			"count":119,
			"type":"VEC3"
		},
		{
			"bufferView":24,
			"componentType":5126,
			"count":119,
			"type":"VEC2"
		},
		{
			"bufferView":25,
			"componentType":5126,
			"count":119,
			"type":"VEC2"
		},
		{
			"bufferView":26,
			"componentType":5121,
			"count":119,
			"type":"VEC4"
		},
		{
			"bufferView":27,
			"componentType":5126,
			"count":119,
			"type":"VEC4"
		},
		{
			"bufferView":28,
			"componentType":5123,
			"count":576,
			"type":"SCALAR"
		}
	],
	"bufferViews":[
		{
			"buffer":0,
			"byteLength":2616,
			"byteOffset":0,
			"target":34962
		},
		{
			"buffer":0,
			"byteLength":2616,
			"byteOffset":2616,
			"target":34962
		},
		{
			"buffer":0,
			"byteLength":1744,
			"byteOffset":5232,
			"target":34962
		},
		{
			"buffer":0,
			"byteLength":1744,
			"byteOffset":6976,
			"target":34962
		},
		{
			"buffer":0,
			"byteLength":872,
			"byteOffset":8720,
			"target":34962
		},
		{
			"buffer":0,
			"byteLength":3488,
			"byteOffset":9592,
			"target":34962
		},
		{
			"buffer":0,
			"byteLength":2124,
			"byteOffset":13080,
			"target":34963
		},
		{
			"buffer":0,
			"byteLength":1344,
			"byteOffset":15204
		},
		{
			"buffer":0,
			"byteLength":5004,
			"byteOffset":16548,
			"target":34962
		},
		{
			"buffer":0,
			"byteLength":5004,
			"byteOffset":21552,
			"target":34962
		},
		{
			"buffer":0,
			"byteLength":3336,
			"byteOffset":26556,
			"target":34962
		},
		{
			"buffer":0,
			"byteLength":3336,
			"byteOffset":29892,
			"target":34962
		},
		{
			"buffer":0,
			"byteLength":1668,
			"byteOffset":33228,
			"target":34962
		},
		{
			"buffer":0,
			"byteLength":6672,
			"byteOffset":34896,
			"target":34962
		},
		{
			"buffer":0,
			"byteLength":1242,
			"byteOffset":41568,
			"target":34963
		},
		{
			"buffer":0,
			"byteLength":5856,
			"byteOffset":42812,
			"target":34962
		},
		{
			"buffer":0,
			"byteLength":5856,
			"byteOffset":48668,
			"target":34962
		},
		{
			"buffer":0,
			"byteLength":3904,
			"byteOffset":54524,
			"target":34962
		},
		{
			"buffer":0,
			"byteLength":3904,
			"byteOffset":58428,
			"target":34962
		},
		{
			"buffer":0,
			"byteLength":1952,
			"byteOffset":62332,
			"target":34962
		},
		{
			"buffer":0,
			"byteLength":7808,
			"byteOffset":64284,
			"target":34962
		},
		{
			"buffer":0,
			"byteLength":5208,
			"byteOffset":72092,
			"target":34963
		},
		{
			"buffer":0,
			"byteLength":1428,
			"byteOffset":77300,
			"target":34962
		},
		{
			"buffer":0,
			"byteLength":1428,
			"byteOffset":78728,
			"target":34962
		},
		{
			"buffer":0,
			"byteLength":952,
			"byteOffset":80156,
			"target":34962
		},
		{
			"buffer":0,
			"byteLength":952,
			"byteOffset":81108,
			"target":34962
		},
		{
			"buffer":0,
			"byteLength":476,
			"byteOffset":82060,
			"target":34962
		},
		{
			"buffer":0,
			"byteLength":1904,
			"byteOffset":82536,
			"target":34962
		},
		{
			"buffer":0,
			"byteLength":1152,
			"byteOffset":84440,
			"target":34963
		}
	],
	"samplers":[
		{
			"magFilter":9729,
			"minFilter":9987
		}
	],
	"buffers":[
		{
			"byteLength":85592,
			"uri":"mari.bin"
		}
	]
}
