# Blender 5.2.2 LTS
# www.blender.org
mtllib movingBlock.mtl
o block-moving-blue
v 0.400000 0.500000 -0.377926
v 0.400000 0.500000 0.377926
v 0.377926 0.500000 -0.400000
v 0.377926 0.500000 0.400000
v -0.377926 0.500000 -0.400000
v -0.377926 0.500000 0.400000
v -0.400000 0.500000 0.377926
v -0.400000 0.500000 -0.377926
v 0.388963 -0.300000 -0.450000
v 0.430652 -0.300000 -0.430652
v 0.388963 0.300000 -0.450000
v 0.430652 0.300000 -0.430652
v -0.388963 -0.300000 -0.450000
v -0.388963 0.300000 -0.450000
v -0.430652 -0.300000 -0.430652
v -0.430652 0.300000 -0.430652
v -0.450000 -0.300000 -0.388963
v -0.450000 0.300000 -0.388963
v -0.450000 -0.300000 0.388963
v -0.450000 0.300000 0.388963
v -0.430652 -0.300000 0.430652
v -0.430652 0.300000 0.430652
v -0.388963 -0.300000 0.450000
v -0.388963 0.300000 0.450000
v 0.388963 -0.300000 0.450000
v 0.388963 0.300000 0.450000
v 0.430652 -0.300000 0.430652
v 0.430652 0.300000 0.430652
v 0.450000 0.300000 0.388963
v 0.450000 -0.300000 0.388963
v 0.450000 0.300000 -0.388963
v 0.450000 -0.300000 -0.388963
v 0.500000 -0.500000 0.400000
v 0.500000 -0.500000 -0.400000
v 0.468301 -0.500000 0.468301
v 0.468301 -0.500000 -0.468301
v 0.400000 -0.500000 0.500000
v 0.400000 -0.500000 -0.500000
v -0.400000 -0.500000 0.500000
v -0.400000 -0.500000 -0.500000
v -0.468301 -0.500000 0.468301
v -0.468301 -0.500000 -0.468301
v -0.500000 -0.500000 0.400000
v -0.500000 -0.500000 -0.400000
v 0.400000 -0.300000 -0.500000
v -0.400000 -0.300000 -0.500000
v 0.500000 -0.300000 0.400000
v 0.500000 -0.300000 -0.400000
v -0.400000 -0.300000 0.500000
v 0.400000 -0.300000 0.500000
v -0.500000 -0.300000 -0.400000
v -0.500000 -0.300000 0.400000
v -0.468301 -0.200000 0.468301
v -0.400000 -0.200000 0.500000
v -0.500000 -0.200000 0.400000
v -0.468301 -0.200000 -0.468301
v -0.500000 -0.200000 -0.400000
v -0.400000 -0.200000 -0.500000
v 0.468301 -0.200000 -0.468301
v 0.400000 -0.200000 -0.500000
v 0.500000 -0.200000 -0.400000
v 0.500000 -0.200000 0.400000
v 0.468301 -0.200000 0.468301
v 0.400000 -0.200000 0.500000
v 0.450000 -0.200000 0.388963
v 0.430652 -0.200000 0.430652
v 0.388963 -0.200000 0.450000
v -0.388963 -0.200000 0.450000
v -0.430652 -0.200000 0.430652
v -0.450000 -0.200000 0.388963
v -0.388963 -0.200000 -0.450000
v -0.430652 -0.200000 -0.430652
v -0.450000 -0.200000 -0.388963
v 0.450000 -0.200000 -0.388963
v 0.430652 -0.200000 -0.430652
v 0.388963 -0.200000 -0.450000
v 0.400000 0.200000 -0.500000
v 0.468301 0.200000 -0.468301
v 0.400000 0.300000 -0.500000
v 0.468301 0.500000 -0.468301
v 0.400000 0.500000 -0.500000
v 0.500000 0.500000 -0.400000
v 0.500000 0.500000 0.400000
v 0.468301 0.500000 0.468301
v 0.400000 0.500000 0.500000
v -0.400000 0.500000 -0.500000
v -0.400000 0.500000 0.500000
v -0.468301 0.500000 -0.468301
v -0.468301 0.500000 0.468301
v -0.500000 0.500000 -0.400000
v -0.500000 0.500000 0.400000
v 0.500000 0.300000 0.400000
v 0.500000 0.200000 0.400000
v 0.468301 0.200000 0.468301
v -0.500000 0.300000 -0.400000
v -0.500000 0.300000 0.400000
v -0.468301 0.200000 -0.468301
v -0.400000 0.200000 -0.500000
v -0.400000 0.300000 -0.500000
v -0.400000 0.200000 0.500000
v -0.468301 0.200000 0.468301
v -0.400000 0.300000 0.500000
v -0.500000 0.200000 0.400000
v 0.500000 0.200000 -0.400000
v 0.500000 0.300000 -0.400000
v -0.500000 0.200000 -0.400000
v 0.400000 0.200000 0.500000
v 0.400000 0.300000 0.500000
v 0.450000 0.200000 0.388963
v 0.430652 0.200000 0.430652
v 0.388963 0.200000 0.450000
v -0.388963 0.200000 0.450000
v -0.430652 0.200000 0.430652
v -0.450000 0.200000 0.388963
v -0.388963 0.200000 -0.450000
v -0.430652 0.200000 -0.430652
v -0.450000 0.200000 -0.388963
v 0.450000 0.200000 -0.388963
v 0.430652 0.200000 -0.430652
v 0.388963 0.200000 -0.450000
vn -0.0000 1.0000 -0.0000
vn 0.1576 0.2244 -0.9617
vn 0.6554 -0.3751 -0.6555
vn 0.2227 -0.2355 -0.9460
vn 0.6504 0.3923 -0.6504
vn -0.2228 0.2355 -0.9460
vn -0.1577 -0.2245 -0.9616
vn -0.6555 0.3751 -0.6555
vn -0.6504 -0.3923 -0.6504
vn -0.9617 -0.2244 -0.1576
vn -0.9460 0.2355 -0.2228
vn -0.9460 -0.2355 0.2228
vn -0.9617 0.2244 0.1576
vn -0.6554 -0.3751 0.6555
vn -0.6504 0.3923 0.6504
vn -0.1576 0.2244 0.9617
vn -0.2228 -0.2355 0.9460
vn 0.2227 0.2355 0.9460
vn 0.1576 -0.2244 0.9617
vn 0.6555 0.3751 0.6554
vn 0.6504 -0.3923 0.6504
vn 0.9617 -0.2244 0.1576
vn 0.9460 0.2355 0.2228
vn 0.9460 -0.2355 -0.2228
vn 0.9617 0.2244 -0.1576
vn 0.6046 -0.6980 0.3838
vn 0.8267 -0.5322 -0.1825
vn 0.6524 -0.6697 0.3547
vn 0.6825 -0.6609 -0.3121
vn 0.1994 -0.7554 0.6242
vn 0.2941 -0.6703 -0.6813
vn -0.0611 -0.7403 0.6695
vn -0.0143 -0.6704 -0.7419
vn -0.6104 -0.7439 0.2721
vn -0.3924 -0.6585 -0.6422
vn -0.7393 -0.6733 0.0062
vn -0.8532 -0.4863 -0.1883
vn 0.1537 0.2722 -0.9499
vn -0.4288 0.8781 0.2122
vn -0.1827 0.2690 -0.9457
vn 0.4288 0.8781 0.2122
vn 0.9484 0.2719 -0.1628
vn -0.3582 0.5896 0.7239
vn -0.3582 0.5896 -0.7239
vn 0.6901 0.5463 0.4747
vn 0.1605 0.2720 0.9488
vn -0.7239 0.5896 -0.3582
vn 0.7239 0.5897 -0.3582
vn -0.1386 0.3665 0.9200
vn 0.3582 0.5896 -0.7239
vn 0.3582 0.5896 0.7239
vn -0.7320 0.4127 0.5420
vn -0.9205 0.3658 -0.1378
vn -0.6369 0.4345 0.6369
vn 0.3654 0.5668 0.7384
vn -0.7384 0.5668 -0.3654
vn -0.6557 0.3742 -0.6557
vn -0.7384 0.5668 0.3654
vn -0.9071 -0.0000 -0.4210
vn -0.9765 -0.0000 -0.2155
vn -0.9580 -0.0000 -0.2866
vn 0.3654 0.5668 -0.7384
vn 0.6488 0.3976 -0.6488
vn -0.3654 0.5668 -0.7384
vn 0.7384 0.5668 0.3654
vn 0.9765 -0.0000 -0.2155
vn 0.9071 -0.0000 -0.4210
vn 0.9580 -0.0000 -0.2866
vn 0.8058 0.4158 0.4216
vn 0.7384 0.5668 -0.3654
vn -0.3654 0.5668 0.7384
vn -0.3582 0.5897 -0.7239
vn -0.2780 0.8912 -0.3585
vn -0.7239 0.5897 -0.3582
vn -0.6741 -0.3019 -0.6741
vn 0.5439 0.8128 -0.2088
vn 0.7239 0.5896 -0.3582
vn 0.6758 0.2942 -0.6758
vn 0.4138 0.8651 0.2834
vn 0.7239 0.5897 0.3582
vn 0.3582 0.5897 0.7239
vn 0.6741 -0.3019 0.6741
vn -0.2658 0.7133 0.6486
vn -0.7239 0.5896 0.3582
vn -0.6758 0.2942 0.6758
vn 0.0364 -0.3879 -0.9210
vn 0.2695 -0.6601 -0.7012
vn -0.3654 -0.5668 -0.7384
vn 0.6344 0.4418 -0.6344
vn 0.2547 0.6691 -0.6981
vn 0.7419 0.6705 0.0062
vn 0.8532 0.4863 -0.1883
vn 0.6808 0.6609 0.3157
vn 0.2953 0.6703 0.6808
vn -0.0419 0.6777 -0.7341
vn -0.0671 0.6689 0.7403
vn -0.4473 0.8159 -0.3663
vn -0.3726 0.6596 0.6527
vn -0.8267 0.5322 -0.1825
vn -0.6524 0.6697 0.3547
vn 0.9895 -0.1376 -0.0439
vn 0.7384 -0.5668 -0.3654
vn 0.6640 -0.6604 0.3506
vn -0.9549 -0.2378 -0.1778
vn -0.6799 -0.5339 0.5027
vn 0.3654 -0.5668 -0.7384
vn -0.6204 -0.4797 -0.6204
vn 0.0410 -0.3797 -0.9242
vn -0.0218 -0.3673 0.9298
vn -0.2803 -0.6604 0.6966
vn 0.3654 -0.5668 0.7384
vn -0.7384 -0.5668 -0.3654
vn 0.7384 -0.5668 0.3654
vn -0.4211 -0.0000 -0.9070
vn -0.2156 -0.0000 -0.9765
vn -0.2867 -0.0000 -0.9580
vn -0.7384 -0.5668 0.3654
vn 0.9765 -0.0000 0.2155
vn 0.9071 -0.0000 0.4210
vn 0.9580 -0.0000 0.2866
vn 0.7320 -0.4127 0.5420
vn -0.3654 -0.5668 0.7384
vn -0.0406 -0.4038 0.9140
vn -0.3582 -0.5896 -0.7239
vn -0.2658 -0.7132 -0.6486
vn -0.7239 -0.5896 -0.3582
vn -0.4288 -0.8781 -0.2122
vn -0.6758 -0.2942 -0.6758
vn 0.4138 -0.8651 -0.2834
vn 0.7239 -0.5897 -0.3582
vn 0.3582 -0.5897 -0.7239
vn 0.3582 -0.5896 -0.7239
vn 0.6741 0.3019 -0.6741
vn 0.4288 -0.8781 -0.2122
vn 0.5439 -0.8128 0.2088
vn 0.7239 -0.5896 0.3582
vn 0.3582 -0.5896 0.7239
vn 0.7239 -0.5897 0.3582
vn 0.6758 -0.2942 0.6758
vn 0.3582 -0.5897 0.7239
vn -0.0000 -1.0000 -0.0000
vn -0.3582 -0.5896 0.7239
vn -0.7239 -0.5896 0.3582
vn -0.3582 -0.5897 0.7239
vn -0.2779 -0.8912 0.3585
vn -0.7239 -0.5897 0.3582
vn -0.6741 0.3019 0.6741
vt 0.468750 0.525000
vt 0.468750 0.725000
vt 0.093750 0.575000
vt 0.093750 0.641667
vt 0.093750 0.675000
s 1
usemtl colormap.001
f 3/1/1 2/1/1 1/1/1
f 2/1/1 3/1/1 4/1/1
f 4/1/1 3/1/1 5/1/1
f 4/1/1 5/1/1 6/1/1
f 6/1/1 5/1/1 7/1/1
f 7/1/1 5/1/1 8/1/1
f 11/1/2 10/2/3 9/2/4
f 10/2/3 11/1/2 12/1/5
f 14/1/6 9/2/4 13/2/7
f 9/2/4 14/1/6 11/1/2
f 16/1/8 13/2/7 15/2/9
f 13/2/7 16/1/8 14/1/6
f 17/2/10 16/1/8 15/2/9
f 16/1/8 17/2/10 18/1/11
f 19/2/12 18/1/11 17/2/10
f 18/1/11 19/2/12 20/1/13
f 21/2/14 20/1/13 19/2/12
f 20/1/13 21/2/14 22/1/15
f 24/1/16 21/2/14 23/2/17
f 21/2/14 24/1/16 22/1/15
f 26/1/18 23/2/17 25/2/19
f 23/2/17 26/1/18 24/1/16
f 28/1/20 25/2/19 27/2/21
f 25/2/19 28/1/20 26/1/18
f 28/1/20 30/2/22 29/1/23
f 30/2/22 28/1/20 27/2/21
f 29/1/23 32/2/24 31/1/25
f 32/2/24 29/1/23 30/2/22
f 31/1/25 10/2/3 12/1/5
f 10/2/3 31/1/25 32/2/24
f 35/3/26 34/3/27 33/3/28
f 34/3/27 35/3/26 36/3/29
f 36/3/29 35/3/26 37/3/30
f 36/3/29 37/3/30 38/3/31
f 38/3/31 37/3/30 39/3/32
f 38/3/31 39/3/32 40/3/33
f 40/3/33 39/3/32 41/3/34
f 40/3/33 41/3/34 42/3/35
f 42/3/35 41/3/34 43/3/36
f 42/3/35 43/3/36 44/3/37
f 46/4/38 9/4/39 45/4/40
f 9/4/39 46/4/38 25/4/1
f 25/4/1 46/4/38 13/4/41
f 27/4/1 9/4/39 25/4/1
f 27/4/1 10/4/1 9/4/39
f 30/4/1 10/4/1 27/4/1
f 30/4/1 32/4/1 10/4/1
f 47/4/42 32/4/43 30/4/44
f 32/4/43 47/4/42 48/4/45
f 23/4/1 25/4/1 13/4/41
f 15/4/1 23/4/1 13/4/41
f 49/4/46 25/4/47 23/4/48
f 25/4/47 49/4/46 50/4/49
f 23/4/1 15/4/1 21/4/1
f 21/4/1 15/4/1 19/4/1
f 19/4/1 15/4/1 17/4/1
f 19/4/50 17/4/51 51/4/52
f 19/4/50 51/4/52 52/4/53
f 50/4/49 39/3/32 37/3/30
f 39/3/32 50/4/49 49/4/46
f 49/4/46 41/3/34 39/3/32
f 41/3/34 49/4/46 53/5/54
f 53/5/54 49/4/46 54/5/55
f 41/3/34 52/4/53 43/3/36
f 52/4/53 41/3/34 55/5/56
f 55/5/56 41/3/34 53/5/54
f 43/3/36 51/4/52 44/3/37
f 51/4/52 43/3/36 52/4/53
f 44/3/37 56/5/57 42/3/35
f 56/5/57 44/3/37 57/5/58
s 0
f 57/5/59 44/3/60 51/4/61
s 1
f 56/5/57 40/3/33 42/3/35
f 40/3/33 56/5/57 46/4/38
f 46/4/38 56/5/57 58/5/62
f 46/4/38 38/3/31 40/3/33
f 38/3/31 46/4/38 45/4/40
f 45/4/40 36/3/29 38/3/31
f 36/3/29 45/4/40 59/5/63
f 59/5/63 45/4/40 60/5/64
f 61/5/65 36/3/29 59/5/63
f 36/3/29 61/5/65 34/3/27
s 0
f 34/3/66 61/5/67 48/4/68
s 1
f 47/4/42 34/3/27 48/4/45
f 34/3/27 47/4/42 33/3/28
f 63/5/69 47/4/42 62/5/70
f 47/4/42 63/5/69 33/3/28
f 33/3/28 63/5/69 35/3/26
f 63/5/69 37/3/30 35/3/26
f 37/3/30 63/5/69 50/4/49
f 50/4/49 63/5/69 64/5/71
f 65/5/72 63/5/69 62/5/70
f 63/5/69 65/5/72 64/5/71
f 64/5/71 65/5/72 66/5/73
f 64/5/71 66/5/73 67/5/74
f 65/5/72 47/4/42 30/4/44
f 47/4/42 65/5/72 62/5/70
f 27/4/75 65/5/72 30/4/44
f 65/5/72 27/4/75 66/5/73
f 67/5/74 27/4/75 25/4/47
f 27/4/75 67/5/74 66/5/73
f 50/4/49 67/5/74 25/4/47
f 67/5/74 50/4/49 64/5/71
f 69/5/76 54/5/55 68/5/77
f 54/5/55 69/5/76 53/5/54
f 53/5/54 69/5/76 70/5/50
f 53/5/54 70/5/50 55/5/56
f 54/5/55 23/4/48 68/5/77
f 23/4/48 54/5/55 49/4/46
f 69/5/76 23/4/48 21/4/78
f 23/4/48 69/5/76 68/5/77
f 69/5/76 19/4/50 70/5/50
f 19/4/50 69/5/76 21/4/78
f 55/5/56 19/4/50 52/4/53
f 19/4/50 55/5/56 70/5/50
f 58/5/62 72/5/79 71/5/80
f 72/5/79 58/5/62 56/5/57
f 72/5/79 56/5/57 73/5/81
f 73/5/81 56/5/57 57/5/58
f 73/5/81 51/4/52 17/4/51
f 51/4/52 73/5/81 57/5/58
f 73/5/81 15/4/82 72/5/79
f 15/4/82 73/5/81 17/4/51
f 71/5/80 15/4/82 13/4/41
f 15/4/82 71/5/80 72/5/79
f 71/5/80 46/4/38 58/5/62
f 46/4/38 71/5/80 13/4/41
f 59/5/63 74/5/43 61/5/65
f 74/5/43 59/5/63 60/5/64
f 74/5/43 60/5/64 75/5/83
f 75/5/83 60/5/64 76/5/84
f 9/4/39 60/5/64 45/4/40
f 60/5/64 9/4/39 76/5/84
f 75/5/83 9/4/39 10/4/85
f 9/4/39 75/5/83 76/5/84
f 32/4/43 75/5/83 10/4/85
f 75/5/83 32/4/43 74/5/43
f 61/5/65 32/4/43 48/4/45
f 32/4/43 61/5/65 74/5/43
f 79/3/86 78/3/87 77/3/88
f 78/3/87 79/3/86 80/5/89
f 80/5/89 79/3/86 81/5/90
f 80/5/89 83/5/91 82/5/92
f 83/5/91 80/5/89 84/5/93
f 84/5/93 80/5/89 81/5/90
f 84/5/93 81/5/90 1/5/1
f 1/5/1 81/5/90 3/5/1
f 2/5/1 84/5/93 1/5/1
f 84/5/93 2/5/1 85/5/94
f 85/5/94 2/5/1 4/5/1
f 3/5/1 81/5/90 86/5/95
f 3/5/1 86/5/95 5/5/1
f 5/5/1 86/5/95 8/5/1
f 85/5/94 4/5/1 87/5/96
f 87/5/96 4/5/1 6/5/1
f 8/5/1 86/5/95 88/5/97
f 87/5/96 6/5/1 7/5/1
f 8/5/1 88/5/97 7/5/1
f 87/5/96 7/5/1 89/5/98
f 89/5/98 7/5/1 88/5/97
f 89/5/98 88/5/97 90/5/99
f 89/5/98 90/5/99 91/5/100
f 84/5/93 92/3/101 83/5/91
f 92/3/101 84/5/93 93/3/102
f 93/3/102 84/5/93 94/3/103
f 96/3/104 90/5/99 95/3/105
f 90/5/99 96/3/104 91/5/100
f 88/5/97 98/3/106 97/3/107
f 98/3/106 88/5/97 99/3/108
f 99/3/108 88/5/97 86/5/95
f 102/3/109 101/3/110 100/3/111
f 101/3/110 102/3/109 89/5/98
f 89/5/98 102/3/109 87/5/96
f 101/3/110 96/3/104 103/3/112
f 96/3/104 101/3/110 91/5/100
f 91/5/100 101/3/110 89/5/98
f 82/5/92 78/3/87 80/5/89
f 78/3/87 82/5/92 104/3/113
s 0
f 104/3/114 82/5/115 105/3/116
s 1
f 106/3/117 88/5/97 97/3/107
f 88/5/97 106/3/117 90/5/99
s 0
f 90/5/118 106/3/119 95/3/120
s 1
f 83/5/91 105/3/121 82/5/92
f 105/3/121 83/5/91 92/3/101
f 84/5/93 107/3/122 94/3/103
f 107/3/122 84/5/93 108/3/123
f 108/3/123 84/5/93 85/5/94
f 85/5/94 102/3/109 108/3/123
f 102/3/109 85/5/94 87/5/96
f 86/5/95 79/3/86 99/3/108
f 79/3/86 86/5/95 81/5/90
f 94/3/103 109/3/124 93/3/102
f 109/3/124 94/3/103 107/3/122
f 109/3/124 107/3/122 110/3/125
f 110/3/125 107/3/122 111/3/126
f 107/3/122 26/3/127 111/3/126
f 26/3/127 107/3/122 108/3/123
f 26/3/127 110/3/125 111/3/126
f 110/3/125 26/3/127 28/3/128
f 110/3/125 29/3/124 109/3/124
f 29/3/124 110/3/125 28/3/128
f 29/3/124 93/3/102 109/3/124
f 93/3/102 29/3/124 92/3/101
f 100/3/111 113/3/129 112/3/130
f 113/3/129 100/3/111 101/3/110
f 113/3/129 101/3/110 114/3/131
f 114/3/131 101/3/110 103/3/112
f 96/3/104 114/3/131 103/3/112
f 114/3/131 96/3/104 20/3/132
f 22/3/133 114/3/131 20/3/132
f 114/3/131 22/3/133 113/3/129
f 22/3/133 112/3/130 113/3/129
f 112/3/130 22/3/133 24/3/134
f 102/3/109 112/3/130 24/3/134
f 112/3/130 102/3/109 100/3/111
f 116/3/135 98/3/106 115/3/136
f 98/3/106 116/3/135 97/3/107
f 97/3/107 116/3/135 117/3/137
f 97/3/107 117/3/137 106/3/117
f 14/3/138 98/3/106 99/3/108
f 98/3/106 14/3/138 115/3/136
f 14/3/138 116/3/135 115/3/136
f 116/3/135 14/3/138 16/3/139
f 18/3/140 116/3/135 16/3/139
f 116/3/135 18/3/140 117/3/137
f 18/3/140 106/3/117 117/3/137
f 106/3/117 18/3/140 95/3/105
f 102/3/109 26/3/127 108/3/123
f 26/3/127 102/3/109 11/3/141
f 11/3/141 102/3/109 24/3/134
f 11/3/141 28/3/141 26/3/127
f 12/3/141 28/3/141 11/3/141
f 12/3/141 29/3/141 28/3/141
f 31/3/141 29/3/141 12/3/141
f 105/3/121 29/3/124 31/3/142
f 29/3/124 105/3/121 92/3/101
f 14/3/141 11/3/141 24/3/134
f 22/3/141 14/3/141 24/3/134
f 99/3/108 11/3/143 14/3/138
f 11/3/143 99/3/108 79/3/86
f 14/3/141 22/3/141 16/3/141
f 16/3/141 22/3/141 20/3/141
f 16/3/141 20/3/141 18/3/141
f 18/3/140 20/3/132 95/3/105
f 95/3/105 20/3/132 96/3/104
f 118/3/144 78/3/87 104/3/113
f 78/3/87 118/3/144 77/3/88
f 77/3/88 118/3/144 119/3/145
f 77/3/88 119/3/145 120/3/146
f 105/3/121 118/3/144 104/3/113
f 118/3/144 105/3/121 31/3/142
f 118/3/144 12/3/147 119/3/145
f 12/3/147 118/3/144 31/3/142
f 12/3/147 120/3/146 119/3/145
f 120/3/146 12/3/147 11/3/143
f 120/3/146 79/3/86 77/3/88
f 79/3/86 120/3/146 11/3/143
