{
	"asset":{
		"generator":"Khronos glTF Blender I/O v5.0.21",
		"version":"2.0"
	},
	"scene":0,
	"scenes":[
		{
			"name":"Scene",
			"nodes":[
				0
			]
		}
	],
	"nodes":[
		{
			"mesh":0,
			"name":"\u7acb\u65b9\u4f53"
		}
	],
	"animations":[
		{
			"channels":[
				{
					"sampler":0,
					"target":{
						"node":0,
						"path":"translation"
					}
				},
				{
					"sampler":1,
					"target":{
						"node":0,
						"path":"rotation"
					}
				},
				{
					"sampler":2,
					"target":{
						"node":0,
						"path":"scale"
					}
				}
			],
			"name":"\u7acb\u65b9\u4f53\u30a2\u30af\u30b7\u30e7\u30f3",
			"samplers":[
				{
					"input":4,
					"interpolation":"STEP",
					"output":5
				},
				{
					"input":6,
					"interpolation":"LINEAR",
					"output":7
				},
				{
					"input":4,
					"interpolation":"STEP",
					"output":8
				}
			]
		}
	],
	"materials":[
		{
			"doubleSided":true,
			"name":"\u30de\u30c6\u30ea\u30a2\u30eb.001",
			"pbrMetallicRoughness":{
				"baseColorTexture":{
					"index":0
				},
				"metallicFactor":0,
				"roughnessFactor":0.5
			}
		}
	],
	"meshes":[
		{
			"name":"\u7acb\u65b9\u4f53",
			"primitives":[
				{
					"attributes":{
						"POSITION":0,
						"NORMAL":1,
						"TEXCOORD_0":2
					},
					"indices":3,
					"material":0
				}
			]
		}
	],
	"textures":[
		{
			"sampler":0,
			"source":0
		}
	],
	"images":[
		{
			"mimeType":"image/png",
			"name":"white4x4",
			"uri":"white4x4.png"
		}
	],
	"accessors":[
		{
			"bufferView":0,
			"componentType":5126,
			"count":1130,
			"max":[
				0.5125842094421387,
				0.5217875838279724,
				0.15143141150474548
			],
			"min":[
				-0.5125842094421387,
				-0.5217875838279724,
				-0.15143141150474548
			],
			"type":"VEC3"
		},
		{
			"bufferView":1,
			"componentType":5126,
			"count":1130,
			"type":"VEC3"
		},
		{
			"bufferView":2,
			"componentType":5126,
			"count":1130,
			"type":"VEC2"
		},
		{
			"bufferView":3,
			"componentType":5123,
			"count":2280,
			"type":"SCALAR"
		},
		{
			"bufferView":4,
			"componentType":5126,
			"count":2,
			"max":[
				2.5
			],
			"min":[
				0.041666666666666664
			],
			"type":"SCALAR"
		},
		{
			"bufferView":5,
			"componentType":5126,
			"count":2,
			"type":"VEC3"
		},
		{
			"bufferView":6,
			"componentType":5126,
			"count":60,
			"max":[
				2.5
			],
			"min":[
				0.041666666666666664
			],
			"type":"SCALAR"
		},
		{
			"bufferView":7,
			"componentType":5126,
			"count":60,
			"type":"VEC4"
		},
		{
			"bufferView":8,
			"componentType":5126,
			"count":2,
			"type":"VEC3"
		}
	],
	"bufferViews":[
		{
			"buffer":0,
			"byteLength":13560,
			"byteOffset":0,
			"target":34962
		},
		{
			"buffer":0,
			"byteLength":13560,
			"byteOffset":13560,
			"target":34962
		},
		{
			"buffer":0,
			"byteLength":9040,
			"byteOffset":27120,
			"target":34962
		},
		{
			"buffer":0,
			"byteLength":4560,
			"byteOffset":36160,
			"target":34963
		},
		{
			"buffer":0,
			"byteLength":8,
			"byteOffset":40720
		},
		{
			"buffer":0,
			"byteLength":24,
			"byteOffset":40728
		},
		{
			"buffer":0,
			"byteLength":240,
			"byteOffset":40752
		},
		{
			"buffer":0,
			"byteLength":960,
			"byteOffset":40992
		},
		{
			"buffer":0,
			"byteLength":24,
			"byteOffset":41952
		}
	],
	"samplers":[
		{
			"magFilter":9729,
			"minFilter":9987
		}
	],
	"buffers":[
		{
			"byteLength":41976,
			"uri":"savePoint.bin"
		}
	]
}
