{
	"asset":{
		"generator":"Khronos glTF Blender I/O v4.4.56",
		"version":"2.0"
	},
	"scene":1,
	"scenes":[
		{
			"name":"Circle",
			"nodes":[
				0
			]
		},
		{
			"name":"Enemy",
			"nodes":[
				9,
				10
			]
		}
	],
	"nodes":[
		{
			"name":"Empty.007",
			"rotation":[
				0.70710688829422,
				0,
				0,
				0.7071066498756409
			]
		},
		{
			"name":"upperJaw",
			"rotation":[
				0.45523449778556824,
				1.0614057543989475e-07,
				5.426817750731061e-08,
				0.890371561050415
			],
			"scale":[
				1,
				1,
				1.0000003576278687
			],
			"translation":[
				0.004672375041991472,
				0.034226663410663605,
				-0.49576497077941895
			]
		},
		{
			"name":"arm_L",
			"rotation":[
				0.6312075853347778,
				0.027726463973522186,
				-0.2909933626651764,
				0.7184227108955383
			],
			"scale":[
				0.9999998211860657,
				1,
				1
			],
			"translation":[
				0,
				1.2691930532455444,
				4.470348358154297e-08
			]
		},
		{
			"name":"middleArm_L",
			"rotation":[
				0.8184621930122375,
				0.018108341842889786,
				-0.42949116230010986,
				0.3812205493450165
			],
			"scale":[
				1,
				1,
				1.0000001192092896
			],
			"translation":[
				0,
				1.2691930532455444,
				4.470348358154297e-08
			]
		},
		{
			"children":[
				2,
				3
			],
			"name":"upArm_L",
			"rotation":[
				0.1884130984544754,
				0.5046616792678833,
				-0.3302645981311798,
				0.7750757336616516
			],
			"translation":[
				0.6196745038032532,
				0.3955829441547394,
				0.019456759095191956
			]
		},
		{
			"name":"lowerJaw",
			"rotation":[
				3.540851025718439e-07,
				0.5759127140045166,
				0.8175112009048462,
				2.494426780685899e-07
			],
			"scale":[
				1,
				1.0000001192092896,
				1.0000016689300537
			],
			"translation":[
				0.004672375041991472,
				0.034226663410663605,
				-0.49576497077941895
			]
		},
		{
			"name":"arm_R",
			"rotation":[
				0.6312074661254883,
				-0.027726521715521812,
				0.2909933030605316,
				0.7184228301048279
			],
			"translation":[
				2.9802322387695312e-08,
				1.2691929340362549,
				-8.940696716308594e-08
			]
		},
		{
			"name":"middleArm_R",
			"rotation":[
				0.8184621334075928,
				-0.018108315765857697,
				0.4294913411140442,
				0.3812204897403717
			],
			"scale":[
				1.0000001192092896,
				1.0000001192092896,
				1.000000238418579
			],
			"translation":[
				2.9802322387695312e-08,
				1.2691929340362549,
				-8.940696716308594e-08
			]
		},
		{
			"children":[
				6,
				7
			],
			"name":"upArm_R",
			"rotation":[
				0.18841305375099182,
				-0.5046616196632385,
				0.3302645683288574,
				0.7750757932662964
			],
			"scale":[
				1.0000001192092896,
				1.0000003576278687,
				1
			],
			"translation":[
				-0.619674563407898,
				0.3955829441547394,
				0.019456759095191956
			]
		},
		{
			"mesh":0,
			"name":"batBossBody",
			"skin":0
		},
		{
			"children":[
				1,
				4,
				5,
				8
			],
			"name":"Armature",
			"scale":[
				0.9840848445892334,
				0.9840848445892334,
				0.9840848445892334
			],
			"translation":[
				0,
				0,
				0.20070971548557281
			]
		}
	],
	"animations":[
		{
			"channels":[
				{
					"sampler":0,
					"target":{
						"node":1,
						"path":"translation"
					}
				},
				{
					"sampler":1,
					"target":{
						"node":1,
						"path":"rotation"
					}
				},
				{
					"sampler":2,
					"target":{
						"node":1,
						"path":"scale"
					}
				},
				{
					"sampler":3,
					"target":{
						"node":4,
						"path":"translation"
					}
				},
				{
					"sampler":4,
					"target":{
						"node":4,
						"path":"rotation"
					}
				},
				{
					"sampler":5,
					"target":{
						"node":4,
						"path":"scale"
					}
				},
				{
					"sampler":6,
					"target":{
						"node":2,
						"path":"translation"
					}
				},
				{
					"sampler":7,
					"target":{
						"node":2,
						"path":"rotation"
					}
				},
				{
					"sampler":8,
					"target":{
						"node":2,
						"path":"scale"
					}
				},
				{
					"sampler":9,
					"target":{
						"node":3,
						"path":"translation"
					}
				},
				{
					"sampler":10,
					"target":{
						"node":3,
						"path":"rotation"
					}
				},
				{
					"sampler":11,
					"target":{
						"node":3,
						"path":"scale"
					}
				},
				{
					"sampler":12,
					"target":{
						"node":5,
						"path":"translation"
					}
				},
				{
					"sampler":13,
					"target":{
						"node":5,
						"path":"rotation"
					}
				},
				{
					"sampler":14,
					"target":{
						"node":5,
						"path":"scale"
					}
				},
				{
					"sampler":15,
					"target":{
						"node":8,
						"path":"translation"
					}
				},
				{
					"sampler":16,
					"target":{
						"node":8,
						"path":"rotation"
					}
				},
				{
					"sampler":17,
					"target":{
						"node":8,
						"path":"scale"
					}
				},
				{
					"sampler":18,
					"target":{
						"node":6,
						"path":"translation"
					}
				},
				{
					"sampler":19,
					"target":{
						"node":6,
						"path":"rotation"
					}
				},
				{
					"sampler":20,
					"target":{
						"node":6,
						"path":"scale"
					}
				},
				{
					"sampler":21,
					"target":{
						"node":7,
						"path":"translation"
					}
				},
				{
					"sampler":22,
					"target":{
						"node":7,
						"path":"rotation"
					}
				},
				{
					"sampler":23,
					"target":{
						"node":7,
						"path":"scale"
					}
				},
				{
					"sampler":24,
					"target":{
						"node":10,
						"path":"translation"
					}
				},
				{
					"sampler":25,
					"target":{
						"node":10,
						"path":"scale"
					}
				}
			],
			"name":"ArmatureAction",
			"samplers":[
				{
					"input":7,
					"interpolation":"STEP",
					"output":8
				},
				{
					"input":9,
					"interpolation":"LINEAR",
					"output":10
				},
				{
					"input":7,
					"interpolation":"STEP",
					"output":11
				},
				{
					"input":7,
					"interpolation":"STEP",
					"output":12
				},
				{
					"input":9,
					"interpolation":"LINEAR",
					"output":13
				},
				{
					"input":7,
					"interpolation":"STEP",
					"output":14
				},
				{
					"input":7,
					"interpolation":"LINEAR",
					"output":15
				},
				{
					"input":9,
					"interpolation":"LINEAR",
					"output":16
				},
				{
					"input":7,
					"interpolation":"LINEAR",
					"output":17
				},
				{
					"input":7,
					"interpolation":"LINEAR",
					"output":18
				},
				{
					"input":9,
					"interpolation":"LINEAR",
					"output":19
				},
				{
					"input":7,
					"interpolation":"LINEAR",
					"output":20
				},
				{
					"input":7,
					"interpolation":"STEP",
					"output":21
				},
				{
					"input":9,
					"interpolation":"LINEAR",
					"output":22
				},
				{
					"input":7,
					"interpolation":"STEP",
					"output":23
				},
				{
					"input":7,
					"interpolation":"STEP",
					"output":24
				},
				{
					"input":9,
					"interpolation":"LINEAR",
					"output":25
				},
				{
					"input":7,
					"interpolation":"STEP",
					"output":26
				},
				{
					"input":7,
					"interpolation":"LINEAR",
					"output":27
				},
				{
					"input":9,
					"interpolation":"LINEAR",
					"output":28
				},
				{
					"input":7,
					"interpolation":"LINEAR",
					"output":29
				},
				{
					"input":7,
					"interpolation":"LINEAR",
					"output":30
				},
				{
					"input":9,
					"interpolation":"LINEAR",
					"output":31
				},
				{
					"input":7,
					"interpolation":"LINEAR",
					"output":32
				},
				{
					"input":7,
					"interpolation":"STEP",
					"output":33
				},
				{
					"input":7,
					"interpolation":"STEP",
					"output":34
				}
			]
		}
	],
	"materials":[
		{
			"doubleSided":true,
			"name":"Material.018",
			"pbrMetallicRoughness":{
				"baseColorTexture":{
					"index":0
				},
				"metallicFactor":0,
				"roughnessFactor":0.5
			}
		}
	],
	"meshes":[
		{
			"name":"Cube.010",
			"primitives":[
				{
					"attributes":{
						"POSITION":0,
						"NORMAL":1,
						"TEXCOORD_0":2,
						"JOINTS_0":3,
						"WEIGHTS_0":4
					},
					"indices":5,
					"material":0
				}
			]
		}
	],
	"textures":[
		{
			"sampler":0,
			"source":0
		}
	],
	"images":[
		{
			"mimeType":"image/png",
			"name":"boss1",
			"uri":"batBoss.png"
		}
	],
	"skins":[
		{
			"inverseBindMatrices":6,
			"joints":[
				1,
				4,
				2,
				3,
				5,
				8,
				6,
				7
			],
			"name":"Armature"
		}
	],
	"accessors":[
		{
			"bufferView":0,
			"componentType":5126,
			"count":625,
			"max":[
				2.3351728916168213,
				1.7893383502960205,
				1.0113648176193237
			],
			"min":[
				-2.3351728916168213,
				-0.5150541663169861,
				-0.46260637044906616
			],
			"type":"VEC3"
		},
		{
			"bufferView":1,
			"componentType":5126,
			"count":625,
			"type":"VEC3"
		},
		{
			"bufferView":2,
			"componentType":5126,
			"count":625,
			"type":"VEC2"
		},
		{
			"bufferView":3,
			"componentType":5121,
			"count":625,
			"type":"VEC4"
		},
		{
			"bufferView":4,
			"componentType":5126,
			"count":625,
			"type":"VEC4"
		},
		{
			"bufferView":5,
			"componentType":5123,
			"count":1986,
			"type":"SCALAR"
		},
		{
			"bufferView":6,
			"componentType":5126,
			"count":8,
			"type":"MAT4"
		},
		{
			"bufferView":7,
			"componentType":5126,
			"count":2,
			"max":[
				2.5
			],
			"min":[
				0.041666666666666664
			],
			"type":"SCALAR"
		},
		{
			"bufferView":8,
			"componentType":5126,
			"count":2,
			"type":"VEC3"
		},
		{
			"bufferView":9,
			"componentType":5126,
			"count":60,
			"max":[
				2.5
			],
			"min":[
				0.041666666666666664
			],
			"type":"SCALAR"
		},
		{
			"bufferView":10,
			"componentType":5126,
			"count":60,
			"type":"VEC4"
		},
		{
			"bufferView":11,
			"componentType":5126,
			"count":2,
			"type":"VEC3"
		},
		{
			"bufferView":12,
			"componentType":5126,
			"count":2,
			"type":"VEC3"
		},
		{
			"bufferView":13,
			"componentType":5126,
			"count":60,
			"type":"VEC4"
		},
		{
			"bufferView":14,
			"componentType":5126,
			"count":2,
			"type":"VEC3"
		},
		{
			"bufferView":15,
			"componentType":5126,
			"count":2,
			"type":"VEC3"
		},
		{
			"bufferView":16,
			"componentType":5126,
			"count":60,
			"type":"VEC4"
		},
		{
			"bufferView":17,
			"componentType":5126,
			"count":2,
			"type":"VEC3"
		},
		{
			"bufferView":18,
			"componentType":5126,
			"count":2,
			"type":"VEC3"
		},
		{
			"bufferView":19,
			"componentType":5126,
			"count":60,
			"type":"VEC4"
		},
		{
			"bufferView":20,
			"componentType":5126,
			"count":2,
			"type":"VEC3"
		},
		{
			"bufferView":21,
			"componentType":5126,
			"count":2,
			"type":"VEC3"
		},
		{
			"bufferView":22,
			"componentType":5126,
			"count":60,
			"type":"VEC4"
		},
		{
			"bufferView":23,
			"componentType":5126,
			"count":2,
			"type":"VEC3"
		},
		{
			"bufferView":24,
			"componentType":5126,
			"count":2,
			"type":"VEC3"
		},
		{
			"bufferView":25,
			"componentType":5126,
			"count":60,
			"type":"VEC4"
		},
		{
			"bufferView":26,
			"componentType":5126,
			"count":2,
			"type":"VEC3"
		},
		{
			"bufferView":27,
			"componentType":5126,
			"count":2,
			"type":"VEC3"
		},
		{
			"bufferView":28,
			"componentType":5126,
			"count":60,
			"type":"VEC4"
		},
		{
			"bufferView":29,
			"componentType":5126,
			"count":2,
			"type":"VEC3"
		},
		{
			"bufferView":30,
			"componentType":5126,
			"count":2,
			"type":"VEC3"
		},
		{
			"bufferView":31,
			"componentType":5126,
			"count":60,
			"type":"VEC4"
		},
		{
			"bufferView":32,
			"componentType":5126,
			"count":2,
			"type":"VEC3"
		},
		{
			"bufferView":33,
			"componentType":5126,
			"count":2,
			"type":"VEC3"
		},
		{
			"bufferView":34,
			"componentType":5126,
			"count":2,
			"type":"VEC3"
		}
	],
	"bufferViews":[
		{
			"buffer":0,
			"byteLength":7500,
			"byteOffset":0,
			"target":34962
		},
		{
			"buffer":0,
			"byteLength":7500,
			"byteOffset":7500,
			"target":34962
		},
		{
			"buffer":0,
			"byteLength":5000,
			"byteOffset":15000,
			"target":34962
		},
		{
			"buffer":0,
			"byteLength":2500,
			"byteOffset":20000,
			"target":34962
		},
		{
			"buffer":0,
			"byteLength":10000,
			"byteOffset":22500,
			"target":34962
		},
		{
			"buffer":0,
			"byteLength":3972,
			"byteOffset":32500,
			"target":34963
		},
		{
			"buffer":0,
			"byteLength":512,
			"byteOffset":36472
		},
		{
			"buffer":0,
			"byteLength":8,
			"byteOffset":36984
		},
		{
			"buffer":0,
			"byteLength":24,
			"byteOffset":36992
		},
		{
			"buffer":0,
			"byteLength":240,
			"byteOffset":37016
		},
		{
			"buffer":0,
			"byteLength":960,
			"byteOffset":37256
		},
		{
			"buffer":0,
			"byteLength":24,
			"byteOffset":38216
		},
		{
			"buffer":0,
			"byteLength":24,
			"byteOffset":38240
		},
		{
			"buffer":0,
			"byteLength":960,
			"byteOffset":38264
		},
		{
			"buffer":0,
			"byteLength":24,
			"byteOffset":39224
		},
		{
			"buffer":0,
			"byteLength":24,
			"byteOffset":39248
		},
		{
			"buffer":0,
			"byteLength":960,
			"byteOffset":39272
		},
		{
			"buffer":0,
			"byteLength":24,
			"byteOffset":40232
		},
		{
			"buffer":0,
			"byteLength":24,
			"byteOffset":40256
		},
		{
			"buffer":0,
			"byteLength":960,
			"byteOffset":40280
		},
		{
			"buffer":0,
			"byteLength":24,
			"byteOffset":41240
		},
		{
			"buffer":0,
			"byteLength":24,
			"byteOffset":41264
		},
		{
			"buffer":0,
			"byteLength":960,
			"byteOffset":41288
		},
		{
			"buffer":0,
			"byteLength":24,
			"byteOffset":42248
		},
		{
			"buffer":0,
			"byteLength":24,
			"byteOffset":42272
		},
		{
			"buffer":0,
			"byteLength":960,
			"byteOffset":42296
		},
		{
			"buffer":0,
			"byteLength":24,
			"byteOffset":43256
		},
		{
			"buffer":0,
			"byteLength":24,
			"byteOffset":43280
		},
		{
			"buffer":0,
			"byteLength":960,
			"byteOffset":43304
		},
		{
			"buffer":0,
			"byteLength":24,
			"byteOffset":44264
		},
		{
			"buffer":0,
			"byteLength":24,
			"byteOffset":44288
		},
		{
			"buffer":0,
			"byteLength":960,
			"byteOffset":44312
		},
		{
			"buffer":0,
			"byteLength":24,
			"byteOffset":45272
		},
		{
			"buffer":0,
			"byteLength":24,
			"byteOffset":45296
		},
		{
			"buffer":0,
			"byteLength":24,
			"byteOffset":45320
		}
	],
	"samplers":[
		{
			"magFilter":9729,
			"minFilter":9987
		}
	],
	"buffers":[
		{
			"byteLength":45344,
			"uri":"batBoss.bin"
		}
	]
}
